G04 #@! TF.FileFunction,Copper,L1,Top,Signal*
%FSLAX46Y46*%
G04 Gerber Fmt 4.6, Leading zero omitted, Abs format (unit mm)*
G04 Created by KiCad (PCBNEW 4.0.7) date 06/03/18 15:12:42*
%MOMM*%
%LPD*%
G01*
G04 APERTURE LIST*
%ADD10C,0.100000*%
%ADD11R,1.500000X1.250000*%
%ADD12R,1.500000X1.300000*%
%ADD13R,1.300000X1.500000*%
%ADD14R,0.600000X2.000000*%
%ADD15R,5.000000X10.000000*%
%ADD16C,0.600000*%
%ADD17C,0.250000*%
%ADD18C,0.254000*%
G04 APERTURE END LIST*
D10*
D11*
X147340000Y-99314000D03*
X149840000Y-99314000D03*
X153690000Y-102108000D03*
X156190000Y-102108000D03*
D12*
X153590000Y-107950000D03*
X156290000Y-107950000D03*
X153590000Y-104902000D03*
X156290000Y-104902000D03*
D13*
X144018000Y-106252000D03*
X144018000Y-103552000D03*
D14*
X146685000Y-107860000D03*
X147955000Y-107860000D03*
X150495000Y-107860000D03*
X150495000Y-102960000D03*
X149225000Y-102960000D03*
X147955000Y-102960000D03*
X146685000Y-102960000D03*
X149225000Y-107860000D03*
D15*
X153162000Y-117602000D03*
X146050000Y-117602000D03*
X142494000Y-91694000D03*
X149352000Y-91694000D03*
X156210000Y-91694000D03*
D16*
X145796000Y-97536000D03*
X141224000Y-101346000D03*
X141478000Y-113030000D03*
X149606000Y-111760000D03*
X156972000Y-111252000D03*
D17*
X147340000Y-99314000D02*
X145288000Y-99314000D01*
X145288000Y-99314000D02*
X142494000Y-96520000D01*
X142494000Y-96520000D02*
X142494000Y-91694000D01*
X146685000Y-102960000D02*
X146685000Y-99969000D01*
X146685000Y-99969000D02*
X147340000Y-99314000D01*
X149840000Y-99314000D02*
X149606000Y-99314000D01*
X153690000Y-102108000D02*
X153690000Y-99334000D01*
X150622000Y-97790000D02*
X148590000Y-95758000D01*
X152146000Y-97790000D02*
X150622000Y-97790000D01*
X153690000Y-99334000D02*
X152146000Y-97790000D01*
X150495000Y-107860000D02*
X150495000Y-105303000D01*
X150495000Y-105303000D02*
X153690000Y-102108000D01*
X144018000Y-103552000D02*
X144018000Y-103886000D01*
X144018000Y-103886000D02*
X146050000Y-105918000D01*
X146050000Y-105918000D02*
X147066000Y-105918000D01*
X147066000Y-105918000D02*
X147955000Y-106807000D01*
X147955000Y-106807000D02*
X147955000Y-107860000D01*
X151130000Y-110410000D02*
X149272000Y-110410000D01*
X147955000Y-109093000D02*
X147955000Y-107860000D01*
X149272000Y-110410000D02*
X147955000Y-109093000D01*
X151130000Y-113030000D02*
X151130000Y-110410000D01*
X151130000Y-110410000D02*
X153590000Y-107950000D01*
X144018000Y-106252000D02*
X145077000Y-106252000D01*
X145077000Y-106252000D02*
X146685000Y-107860000D01*
X146050000Y-113030000D02*
X146050000Y-108495000D01*
X146050000Y-108495000D02*
X146685000Y-107860000D01*
X153590000Y-104902000D02*
X152654000Y-104902000D01*
X149225000Y-109093000D02*
X149225000Y-107860000D01*
X149860000Y-109728000D02*
X149225000Y-109093000D01*
X150876000Y-109728000D02*
X149860000Y-109728000D01*
X151892000Y-108712000D02*
X150876000Y-109728000D01*
X151892000Y-105664000D02*
X151892000Y-108712000D01*
X152654000Y-104902000D02*
X151892000Y-105664000D01*
D18*
G36*
X153075000Y-91408250D02*
X153233750Y-91567000D01*
X156083000Y-91567000D01*
X156083000Y-91547000D01*
X156337000Y-91547000D01*
X156337000Y-91567000D01*
X156357000Y-91567000D01*
X156357000Y-91821000D01*
X156337000Y-91821000D01*
X156337000Y-97170250D01*
X156495750Y-97329000D01*
X158548000Y-97329000D01*
X158548000Y-122480000D01*
X156309440Y-122480000D01*
X156309440Y-112602000D01*
X156265162Y-112366683D01*
X156126090Y-112150559D01*
X155913890Y-112005569D01*
X155662000Y-111954560D01*
X151890000Y-111954560D01*
X151890000Y-110724802D01*
X153367362Y-109247440D01*
X154340000Y-109247440D01*
X154575317Y-109203162D01*
X154791441Y-109064090D01*
X154936431Y-108851890D01*
X154943191Y-108818510D01*
X155001673Y-108959699D01*
X155180302Y-109138327D01*
X155413691Y-109235000D01*
X156004250Y-109235000D01*
X156163000Y-109076250D01*
X156163000Y-108077000D01*
X156417000Y-108077000D01*
X156417000Y-109076250D01*
X156575750Y-109235000D01*
X157166309Y-109235000D01*
X157399698Y-109138327D01*
X157578327Y-108959699D01*
X157675000Y-108726310D01*
X157675000Y-108235750D01*
X157516250Y-108077000D01*
X156417000Y-108077000D01*
X156163000Y-108077000D01*
X156143000Y-108077000D01*
X156143000Y-107823000D01*
X156163000Y-107823000D01*
X156163000Y-106823750D01*
X156417000Y-106823750D01*
X156417000Y-107823000D01*
X157516250Y-107823000D01*
X157675000Y-107664250D01*
X157675000Y-107173690D01*
X157578327Y-106940301D01*
X157399698Y-106761673D01*
X157166309Y-106665000D01*
X156575750Y-106665000D01*
X156417000Y-106823750D01*
X156163000Y-106823750D01*
X156004250Y-106665000D01*
X155413691Y-106665000D01*
X155180302Y-106761673D01*
X155001673Y-106940301D01*
X154945346Y-107076287D01*
X154943162Y-107064683D01*
X154804090Y-106848559D01*
X154591890Y-106703569D01*
X154340000Y-106652560D01*
X152840000Y-106652560D01*
X152652000Y-106687935D01*
X152652000Y-106161369D01*
X152840000Y-106199440D01*
X154340000Y-106199440D01*
X154575317Y-106155162D01*
X154791441Y-106016090D01*
X154936431Y-105803890D01*
X154943191Y-105770510D01*
X155001673Y-105911699D01*
X155180302Y-106090327D01*
X155413691Y-106187000D01*
X156004250Y-106187000D01*
X156163000Y-106028250D01*
X156163000Y-105029000D01*
X156417000Y-105029000D01*
X156417000Y-106028250D01*
X156575750Y-106187000D01*
X157166309Y-106187000D01*
X157399698Y-106090327D01*
X157578327Y-105911699D01*
X157675000Y-105678310D01*
X157675000Y-105187750D01*
X157516250Y-105029000D01*
X156417000Y-105029000D01*
X156163000Y-105029000D01*
X156143000Y-105029000D01*
X156143000Y-104775000D01*
X156163000Y-104775000D01*
X156163000Y-103775750D01*
X156417000Y-103775750D01*
X156417000Y-104775000D01*
X157516250Y-104775000D01*
X157675000Y-104616250D01*
X157675000Y-104125690D01*
X157578327Y-103892301D01*
X157399698Y-103713673D01*
X157166309Y-103617000D01*
X156575750Y-103617000D01*
X156417000Y-103775750D01*
X156163000Y-103775750D01*
X156004250Y-103617000D01*
X155413691Y-103617000D01*
X155180302Y-103713673D01*
X155001673Y-103892301D01*
X154945346Y-104028287D01*
X154943162Y-104016683D01*
X154804090Y-103800559D01*
X154591890Y-103655569D01*
X154340000Y-103604560D01*
X153268242Y-103604560D01*
X153492362Y-103380440D01*
X154440000Y-103380440D01*
X154675317Y-103336162D01*
X154891441Y-103197090D01*
X154937969Y-103128994D01*
X155080302Y-103271327D01*
X155313691Y-103368000D01*
X155904250Y-103368000D01*
X156063000Y-103209250D01*
X156063000Y-102235000D01*
X156317000Y-102235000D01*
X156317000Y-103209250D01*
X156475750Y-103368000D01*
X157066309Y-103368000D01*
X157299698Y-103271327D01*
X157478327Y-103092699D01*
X157575000Y-102859310D01*
X157575000Y-102393750D01*
X157416250Y-102235000D01*
X156317000Y-102235000D01*
X156063000Y-102235000D01*
X156043000Y-102235000D01*
X156043000Y-101981000D01*
X156063000Y-101981000D01*
X156063000Y-101006750D01*
X156317000Y-101006750D01*
X156317000Y-101981000D01*
X157416250Y-101981000D01*
X157575000Y-101822250D01*
X157575000Y-101356690D01*
X157478327Y-101123301D01*
X157299698Y-100944673D01*
X157066309Y-100848000D01*
X156475750Y-100848000D01*
X156317000Y-101006750D01*
X156063000Y-101006750D01*
X155904250Y-100848000D01*
X155313691Y-100848000D01*
X155080302Y-100944673D01*
X154939064Y-101085910D01*
X154904090Y-101031559D01*
X154691890Y-100886569D01*
X154450000Y-100837585D01*
X154450000Y-99334000D01*
X154392148Y-99043161D01*
X154227401Y-98796599D01*
X152683401Y-97252599D01*
X152436839Y-97087852D01*
X152361651Y-97072896D01*
X152448431Y-96945890D01*
X152499440Y-96694000D01*
X152499440Y-91979750D01*
X153075000Y-91979750D01*
X153075000Y-96820310D01*
X153171673Y-97053699D01*
X153350302Y-97232327D01*
X153583691Y-97329000D01*
X155924250Y-97329000D01*
X156083000Y-97170250D01*
X156083000Y-91821000D01*
X153233750Y-91821000D01*
X153075000Y-91979750D01*
X152499440Y-91979750D01*
X152499440Y-86816000D01*
X153075000Y-86816000D01*
X153075000Y-91408250D01*
X153075000Y-91408250D01*
G37*
X153075000Y-91408250D02*
X153233750Y-91567000D01*
X156083000Y-91567000D01*
X156083000Y-91547000D01*
X156337000Y-91547000D01*
X156337000Y-91567000D01*
X156357000Y-91567000D01*
X156357000Y-91821000D01*
X156337000Y-91821000D01*
X156337000Y-97170250D01*
X156495750Y-97329000D01*
X158548000Y-97329000D01*
X158548000Y-122480000D01*
X156309440Y-122480000D01*
X156309440Y-112602000D01*
X156265162Y-112366683D01*
X156126090Y-112150559D01*
X155913890Y-112005569D01*
X155662000Y-111954560D01*
X151890000Y-111954560D01*
X151890000Y-110724802D01*
X153367362Y-109247440D01*
X154340000Y-109247440D01*
X154575317Y-109203162D01*
X154791441Y-109064090D01*
X154936431Y-108851890D01*
X154943191Y-108818510D01*
X155001673Y-108959699D01*
X155180302Y-109138327D01*
X155413691Y-109235000D01*
X156004250Y-109235000D01*
X156163000Y-109076250D01*
X156163000Y-108077000D01*
X156417000Y-108077000D01*
X156417000Y-109076250D01*
X156575750Y-109235000D01*
X157166309Y-109235000D01*
X157399698Y-109138327D01*
X157578327Y-108959699D01*
X157675000Y-108726310D01*
X157675000Y-108235750D01*
X157516250Y-108077000D01*
X156417000Y-108077000D01*
X156163000Y-108077000D01*
X156143000Y-108077000D01*
X156143000Y-107823000D01*
X156163000Y-107823000D01*
X156163000Y-106823750D01*
X156417000Y-106823750D01*
X156417000Y-107823000D01*
X157516250Y-107823000D01*
X157675000Y-107664250D01*
X157675000Y-107173690D01*
X157578327Y-106940301D01*
X157399698Y-106761673D01*
X157166309Y-106665000D01*
X156575750Y-106665000D01*
X156417000Y-106823750D01*
X156163000Y-106823750D01*
X156004250Y-106665000D01*
X155413691Y-106665000D01*
X155180302Y-106761673D01*
X155001673Y-106940301D01*
X154945346Y-107076287D01*
X154943162Y-107064683D01*
X154804090Y-106848559D01*
X154591890Y-106703569D01*
X154340000Y-106652560D01*
X152840000Y-106652560D01*
X152652000Y-106687935D01*
X152652000Y-106161369D01*
X152840000Y-106199440D01*
X154340000Y-106199440D01*
X154575317Y-106155162D01*
X154791441Y-106016090D01*
X154936431Y-105803890D01*
X154943191Y-105770510D01*
X155001673Y-105911699D01*
X155180302Y-106090327D01*
X155413691Y-106187000D01*
X156004250Y-106187000D01*
X156163000Y-106028250D01*
X156163000Y-105029000D01*
X156417000Y-105029000D01*
X156417000Y-106028250D01*
X156575750Y-106187000D01*
X157166309Y-106187000D01*
X157399698Y-106090327D01*
X157578327Y-105911699D01*
X157675000Y-105678310D01*
X157675000Y-105187750D01*
X157516250Y-105029000D01*
X156417000Y-105029000D01*
X156163000Y-105029000D01*
X156143000Y-105029000D01*
X156143000Y-104775000D01*
X156163000Y-104775000D01*
X156163000Y-103775750D01*
X156417000Y-103775750D01*
X156417000Y-104775000D01*
X157516250Y-104775000D01*
X157675000Y-104616250D01*
X157675000Y-104125690D01*
X157578327Y-103892301D01*
X157399698Y-103713673D01*
X157166309Y-103617000D01*
X156575750Y-103617000D01*
X156417000Y-103775750D01*
X156163000Y-103775750D01*
X156004250Y-103617000D01*
X155413691Y-103617000D01*
X155180302Y-103713673D01*
X155001673Y-103892301D01*
X154945346Y-104028287D01*
X154943162Y-104016683D01*
X154804090Y-103800559D01*
X154591890Y-103655569D01*
X154340000Y-103604560D01*
X153268242Y-103604560D01*
X153492362Y-103380440D01*
X154440000Y-103380440D01*
X154675317Y-103336162D01*
X154891441Y-103197090D01*
X154937969Y-103128994D01*
X155080302Y-103271327D01*
X155313691Y-103368000D01*
X155904250Y-103368000D01*
X156063000Y-103209250D01*
X156063000Y-102235000D01*
X156317000Y-102235000D01*
X156317000Y-103209250D01*
X156475750Y-103368000D01*
X157066309Y-103368000D01*
X157299698Y-103271327D01*
X157478327Y-103092699D01*
X157575000Y-102859310D01*
X157575000Y-102393750D01*
X157416250Y-102235000D01*
X156317000Y-102235000D01*
X156063000Y-102235000D01*
X156043000Y-102235000D01*
X156043000Y-101981000D01*
X156063000Y-101981000D01*
X156063000Y-101006750D01*
X156317000Y-101006750D01*
X156317000Y-101981000D01*
X157416250Y-101981000D01*
X157575000Y-101822250D01*
X157575000Y-101356690D01*
X157478327Y-101123301D01*
X157299698Y-100944673D01*
X157066309Y-100848000D01*
X156475750Y-100848000D01*
X156317000Y-101006750D01*
X156063000Y-101006750D01*
X155904250Y-100848000D01*
X155313691Y-100848000D01*
X155080302Y-100944673D01*
X154939064Y-101085910D01*
X154904090Y-101031559D01*
X154691890Y-100886569D01*
X154450000Y-100837585D01*
X154450000Y-99334000D01*
X154392148Y-99043161D01*
X154227401Y-98796599D01*
X152683401Y-97252599D01*
X152436839Y-97087852D01*
X152361651Y-97072896D01*
X152448431Y-96945890D01*
X152499440Y-96694000D01*
X152499440Y-91979750D01*
X153075000Y-91979750D01*
X153075000Y-96820310D01*
X153171673Y-97053699D01*
X153350302Y-97232327D01*
X153583691Y-97329000D01*
X155924250Y-97329000D01*
X156083000Y-97170250D01*
X156083000Y-91821000D01*
X153233750Y-91821000D01*
X153075000Y-91979750D01*
X152499440Y-91979750D01*
X152499440Y-86816000D01*
X153075000Y-86816000D01*
X153075000Y-91408250D01*
G36*
X147417599Y-109630401D02*
X148734599Y-110947401D01*
X148981160Y-111112148D01*
X149272000Y-111170000D01*
X150370000Y-111170000D01*
X150370000Y-112035313D01*
X150210559Y-112137910D01*
X150065569Y-112350110D01*
X150014560Y-112602000D01*
X150014560Y-122480000D01*
X149197440Y-122480000D01*
X149197440Y-112602000D01*
X149153162Y-112366683D01*
X149014090Y-112150559D01*
X148801890Y-112005569D01*
X148550000Y-111954560D01*
X146810000Y-111954560D01*
X146810000Y-109507440D01*
X146985000Y-109507440D01*
X147220317Y-109463162D01*
X147280135Y-109424670D01*
X147417599Y-109630401D01*
X147417599Y-109630401D01*
G37*
X147417599Y-109630401D02*
X148734599Y-110947401D01*
X148981160Y-111112148D01*
X149272000Y-111170000D01*
X150370000Y-111170000D01*
X150370000Y-112035313D01*
X150210559Y-112137910D01*
X150065569Y-112350110D01*
X150014560Y-112602000D01*
X150014560Y-122480000D01*
X149197440Y-122480000D01*
X149197440Y-112602000D01*
X149153162Y-112366683D01*
X149014090Y-112150559D01*
X148801890Y-112005569D01*
X148550000Y-111954560D01*
X146810000Y-111954560D01*
X146810000Y-109507440D01*
X146985000Y-109507440D01*
X147220317Y-109463162D01*
X147280135Y-109424670D01*
X147417599Y-109630401D01*
G36*
X144750599Y-99851401D02*
X144997161Y-100016148D01*
X145288000Y-100074000D01*
X145925000Y-100074000D01*
X145925000Y-101508437D01*
X145788569Y-101708110D01*
X145737560Y-101960000D01*
X145737560Y-103960000D01*
X145781838Y-104195317D01*
X145920910Y-104411441D01*
X146133110Y-104556431D01*
X146385000Y-104607440D01*
X146985000Y-104607440D01*
X147220317Y-104563162D01*
X147319528Y-104499322D01*
X147403110Y-104556431D01*
X147655000Y-104607440D01*
X148255000Y-104607440D01*
X148490317Y-104563162D01*
X148589528Y-104499322D01*
X148673110Y-104556431D01*
X148925000Y-104607440D01*
X149525000Y-104607440D01*
X149760317Y-104563162D01*
X149859528Y-104499322D01*
X149943110Y-104556431D01*
X150129103Y-104594095D01*
X149957599Y-104765599D01*
X149792852Y-105012161D01*
X149735000Y-105303000D01*
X149735000Y-106255086D01*
X149525000Y-106212560D01*
X148925000Y-106212560D01*
X148689683Y-106256838D01*
X148590472Y-106320678D01*
X148506890Y-106263569D01*
X148481161Y-106258359D01*
X147603401Y-105380599D01*
X147356839Y-105215852D01*
X147066000Y-105158000D01*
X146364802Y-105158000D01*
X145315440Y-104108638D01*
X145315440Y-102802000D01*
X145271162Y-102566683D01*
X145132090Y-102350559D01*
X144919890Y-102205569D01*
X144668000Y-102154560D01*
X143368000Y-102154560D01*
X143132683Y-102198838D01*
X142916559Y-102337910D01*
X142771569Y-102550110D01*
X142720560Y-102802000D01*
X142720560Y-104302000D01*
X142764838Y-104537317D01*
X142903910Y-104753441D01*
X143116110Y-104898431D01*
X143129197Y-104901081D01*
X142916559Y-105037910D01*
X142771569Y-105250110D01*
X142720560Y-105502000D01*
X142720560Y-107002000D01*
X142764838Y-107237317D01*
X142903910Y-107453441D01*
X143116110Y-107598431D01*
X143368000Y-107649440D01*
X144668000Y-107649440D01*
X144903317Y-107605162D01*
X145119441Y-107466090D01*
X145158753Y-107408555D01*
X145610198Y-107860000D01*
X145512599Y-107957599D01*
X145347852Y-108204161D01*
X145290000Y-108495000D01*
X145290000Y-111954560D01*
X143550000Y-111954560D01*
X143314683Y-111998838D01*
X143098559Y-112137910D01*
X142953569Y-112350110D01*
X142902560Y-112602000D01*
X142902560Y-122480000D01*
X140156000Y-122480000D01*
X140156000Y-97341440D01*
X142240638Y-97341440D01*
X144750599Y-99851401D01*
X144750599Y-99851401D01*
G37*
X144750599Y-99851401D02*
X144997161Y-100016148D01*
X145288000Y-100074000D01*
X145925000Y-100074000D01*
X145925000Y-101508437D01*
X145788569Y-101708110D01*
X145737560Y-101960000D01*
X145737560Y-103960000D01*
X145781838Y-104195317D01*
X145920910Y-104411441D01*
X146133110Y-104556431D01*
X146385000Y-104607440D01*
X146985000Y-104607440D01*
X147220317Y-104563162D01*
X147319528Y-104499322D01*
X147403110Y-104556431D01*
X147655000Y-104607440D01*
X148255000Y-104607440D01*
X148490317Y-104563162D01*
X148589528Y-104499322D01*
X148673110Y-104556431D01*
X148925000Y-104607440D01*
X149525000Y-104607440D01*
X149760317Y-104563162D01*
X149859528Y-104499322D01*
X149943110Y-104556431D01*
X150129103Y-104594095D01*
X149957599Y-104765599D01*
X149792852Y-105012161D01*
X149735000Y-105303000D01*
X149735000Y-106255086D01*
X149525000Y-106212560D01*
X148925000Y-106212560D01*
X148689683Y-106256838D01*
X148590472Y-106320678D01*
X148506890Y-106263569D01*
X148481161Y-106258359D01*
X147603401Y-105380599D01*
X147356839Y-105215852D01*
X147066000Y-105158000D01*
X146364802Y-105158000D01*
X145315440Y-104108638D01*
X145315440Y-102802000D01*
X145271162Y-102566683D01*
X145132090Y-102350559D01*
X144919890Y-102205569D01*
X144668000Y-102154560D01*
X143368000Y-102154560D01*
X143132683Y-102198838D01*
X142916559Y-102337910D01*
X142771569Y-102550110D01*
X142720560Y-102802000D01*
X142720560Y-104302000D01*
X142764838Y-104537317D01*
X142903910Y-104753441D01*
X143116110Y-104898431D01*
X143129197Y-104901081D01*
X142916559Y-105037910D01*
X142771569Y-105250110D01*
X142720560Y-105502000D01*
X142720560Y-107002000D01*
X142764838Y-107237317D01*
X142903910Y-107453441D01*
X143116110Y-107598431D01*
X143368000Y-107649440D01*
X144668000Y-107649440D01*
X144903317Y-107605162D01*
X145119441Y-107466090D01*
X145158753Y-107408555D01*
X145610198Y-107860000D01*
X145512599Y-107957599D01*
X145347852Y-108204161D01*
X145290000Y-108495000D01*
X145290000Y-111954560D01*
X143550000Y-111954560D01*
X143314683Y-111998838D01*
X143098559Y-112137910D01*
X142953569Y-112350110D01*
X142902560Y-112602000D01*
X142902560Y-122480000D01*
X140156000Y-122480000D01*
X140156000Y-97341440D01*
X142240638Y-97341440D01*
X144750599Y-99851401D01*
G36*
X152930000Y-99648802D02*
X152930000Y-100837442D01*
X152704683Y-100879838D01*
X152488559Y-101018910D01*
X152343569Y-101231110D01*
X152292560Y-101483000D01*
X152292560Y-102430638D01*
X151442440Y-103280758D01*
X151442440Y-101960000D01*
X151398162Y-101724683D01*
X151259090Y-101508559D01*
X151046890Y-101363569D01*
X150795000Y-101312560D01*
X150195000Y-101312560D01*
X149959683Y-101356838D01*
X149860472Y-101420678D01*
X149776890Y-101363569D01*
X149525000Y-101312560D01*
X148925000Y-101312560D01*
X148689683Y-101356838D01*
X148590472Y-101420678D01*
X148506890Y-101363569D01*
X148255000Y-101312560D01*
X147655000Y-101312560D01*
X147445000Y-101352074D01*
X147445000Y-100586440D01*
X148090000Y-100586440D01*
X148325317Y-100542162D01*
X148541441Y-100403090D01*
X148587969Y-100334994D01*
X148730302Y-100477327D01*
X148963691Y-100574000D01*
X149554250Y-100574000D01*
X149713000Y-100415250D01*
X149713000Y-99441000D01*
X149967000Y-99441000D01*
X149967000Y-100415250D01*
X150125750Y-100574000D01*
X150716309Y-100574000D01*
X150949698Y-100477327D01*
X151128327Y-100298699D01*
X151225000Y-100065310D01*
X151225000Y-99599750D01*
X151066250Y-99441000D01*
X149967000Y-99441000D01*
X149713000Y-99441000D01*
X149693000Y-99441000D01*
X149693000Y-99187000D01*
X149713000Y-99187000D01*
X149713000Y-99167000D01*
X149967000Y-99167000D01*
X149967000Y-99187000D01*
X151066250Y-99187000D01*
X151225000Y-99028250D01*
X151225000Y-98562690D01*
X151219744Y-98550000D01*
X151831198Y-98550000D01*
X152930000Y-99648802D01*
X152930000Y-99648802D01*
G37*
X152930000Y-99648802D02*
X152930000Y-100837442D01*
X152704683Y-100879838D01*
X152488559Y-101018910D01*
X152343569Y-101231110D01*
X152292560Y-101483000D01*
X152292560Y-102430638D01*
X151442440Y-103280758D01*
X151442440Y-101960000D01*
X151398162Y-101724683D01*
X151259090Y-101508559D01*
X151046890Y-101363569D01*
X150795000Y-101312560D01*
X150195000Y-101312560D01*
X149959683Y-101356838D01*
X149860472Y-101420678D01*
X149776890Y-101363569D01*
X149525000Y-101312560D01*
X148925000Y-101312560D01*
X148689683Y-101356838D01*
X148590472Y-101420678D01*
X148506890Y-101363569D01*
X148255000Y-101312560D01*
X147655000Y-101312560D01*
X147445000Y-101352074D01*
X147445000Y-100586440D01*
X148090000Y-100586440D01*
X148325317Y-100542162D01*
X148541441Y-100403090D01*
X148587969Y-100334994D01*
X148730302Y-100477327D01*
X148963691Y-100574000D01*
X149554250Y-100574000D01*
X149713000Y-100415250D01*
X149713000Y-99441000D01*
X149967000Y-99441000D01*
X149967000Y-100415250D01*
X150125750Y-100574000D01*
X150716309Y-100574000D01*
X150949698Y-100477327D01*
X151128327Y-100298699D01*
X151225000Y-100065310D01*
X151225000Y-99599750D01*
X151066250Y-99441000D01*
X149967000Y-99441000D01*
X149713000Y-99441000D01*
X149693000Y-99441000D01*
X149693000Y-99187000D01*
X149713000Y-99187000D01*
X149713000Y-99167000D01*
X149967000Y-99167000D01*
X149967000Y-99187000D01*
X151066250Y-99187000D01*
X151225000Y-99028250D01*
X151225000Y-98562690D01*
X151219744Y-98550000D01*
X151831198Y-98550000D01*
X152930000Y-99648802D01*
G36*
X146204560Y-96694000D02*
X146248838Y-96929317D01*
X146387910Y-97145441D01*
X146600110Y-97290431D01*
X146852000Y-97341440D01*
X149098638Y-97341440D01*
X149811198Y-98054000D01*
X149712998Y-98054000D01*
X149712998Y-98212748D01*
X149554250Y-98054000D01*
X148963691Y-98054000D01*
X148730302Y-98150673D01*
X148589064Y-98291910D01*
X148554090Y-98237559D01*
X148341890Y-98092569D01*
X148090000Y-98041560D01*
X146590000Y-98041560D01*
X146354683Y-98085838D01*
X146138559Y-98224910D01*
X145993569Y-98437110D01*
X145969898Y-98554000D01*
X145602802Y-98554000D01*
X144390242Y-97341440D01*
X144994000Y-97341440D01*
X145229317Y-97297162D01*
X145445441Y-97158090D01*
X145590431Y-96945890D01*
X145641440Y-96694000D01*
X145641440Y-86816000D01*
X146204560Y-86816000D01*
X146204560Y-96694000D01*
X146204560Y-96694000D01*
G37*
X146204560Y-96694000D02*
X146248838Y-96929317D01*
X146387910Y-97145441D01*
X146600110Y-97290431D01*
X146852000Y-97341440D01*
X149098638Y-97341440D01*
X149811198Y-98054000D01*
X149712998Y-98054000D01*
X149712998Y-98212748D01*
X149554250Y-98054000D01*
X148963691Y-98054000D01*
X148730302Y-98150673D01*
X148589064Y-98291910D01*
X148554090Y-98237559D01*
X148341890Y-98092569D01*
X148090000Y-98041560D01*
X146590000Y-98041560D01*
X146354683Y-98085838D01*
X146138559Y-98224910D01*
X145993569Y-98437110D01*
X145969898Y-98554000D01*
X145602802Y-98554000D01*
X144390242Y-97341440D01*
X144994000Y-97341440D01*
X145229317Y-97297162D01*
X145445441Y-97158090D01*
X145590431Y-96945890D01*
X145641440Y-96694000D01*
X145641440Y-86816000D01*
X146204560Y-86816000D01*
X146204560Y-96694000D01*
M02*
