G04 #@! TF.GenerationSoftware,KiCad,Pcbnew,(5.1.5)-3*
G04 #@! TF.CreationDate,2020-06-08T15:14:44-04:00*
G04 #@! TF.ProjectId,Vextrex Buzz Fix,56657874-7265-4782-9042-757a7a204669,rev?*
G04 #@! TF.SameCoordinates,Original*
G04 #@! TF.FileFunction,Copper,L2,Bot*
G04 #@! TF.FilePolarity,Positive*
%FSLAX46Y46*%
G04 Gerber Fmt 4.6, Leading zero omitted, Abs format (unit mm)*
G04 Created by KiCad (PCBNEW (5.1.5)-3) date 2020-06-08 15:14:44*
%MOMM*%
%LPD*%
G04 APERTURE LIST*
%ADD10C,0.300000*%
%ADD11C,0.600000*%
%ADD12C,0.254000*%
G04 APERTURE END LIST*
D10*
X144649000Y-121344571D02*
X144291857Y-122344571D01*
X143934714Y-121344571D01*
X142577571Y-122344571D02*
X143434714Y-122344571D01*
X143006142Y-122344571D02*
X143006142Y-120844571D01*
X143149000Y-121058857D01*
X143291857Y-121201714D01*
X143434714Y-121273142D01*
X141934714Y-122201714D02*
X141863285Y-122273142D01*
X141934714Y-122344571D01*
X142006142Y-122273142D01*
X141934714Y-122201714D01*
X141934714Y-122344571D01*
X140934714Y-120844571D02*
X140791857Y-120844571D01*
X140649000Y-120916000D01*
X140577571Y-120987428D01*
X140506142Y-121130285D01*
X140434714Y-121416000D01*
X140434714Y-121773142D01*
X140506142Y-122058857D01*
X140577571Y-122201714D01*
X140649000Y-122273142D01*
X140791857Y-122344571D01*
X140934714Y-122344571D01*
X141077571Y-122273142D01*
X141149000Y-122201714D01*
X141220428Y-122058857D01*
X141291857Y-121773142D01*
X141291857Y-121416000D01*
X141220428Y-121130285D01*
X141149000Y-120987428D01*
X141077571Y-120916000D01*
X140934714Y-120844571D01*
D11*
X145796000Y-97536000D03*
X141224000Y-101346000D03*
X141478000Y-113030000D03*
X149606000Y-111760000D03*
X156972000Y-111252000D03*
X152000000Y-100250000D03*
D12*
G36*
X158548001Y-122480000D02*
G01*
X145603286Y-122480000D01*
X145603286Y-119876000D01*
X140156000Y-119876000D01*
X140156000Y-86816000D01*
X158548000Y-86816000D01*
X158548001Y-122480000D01*
G37*
X158548001Y-122480000D02*
X145603286Y-122480000D01*
X145603286Y-119876000D01*
X140156000Y-119876000D01*
X140156000Y-86816000D01*
X158548000Y-86816000D01*
X158548001Y-122480000D01*
M02*
