G04 #@! TF.GenerationSoftware,KiCad,Pcbnew,(5.1.5)-3*
G04 #@! TF.CreationDate,2020-06-08T15:14:44-04:00*
G04 #@! TF.ProjectId,Vextrex Buzz Fix,56657874-7265-4782-9042-757a7a204669,rev?*
G04 #@! TF.SameCoordinates,Original*
G04 #@! TF.FileFunction,Copper,L1,Top*
G04 #@! TF.FilePolarity,Positive*
%FSLAX46Y46*%
G04 Gerber Fmt 4.6, Leading zero omitted, Abs format (unit mm)*
G04 Created by KiCad (PCBNEW (5.1.5)-3) date 2020-06-08 15:14:44*
%MOMM*%
%LPD*%
G04 APERTURE LIST*
%ADD10R,1.500000X1.250000*%
%ADD11R,1.500000X1.300000*%
%ADD12R,1.300000X1.500000*%
%ADD13R,0.600000X2.000000*%
%ADD14R,5.000000X10.000000*%
%ADD15C,0.600000*%
%ADD16C,0.250000*%
%ADD17C,0.254000*%
G04 APERTURE END LIST*
D10*
X147340000Y-99314000D03*
X149840000Y-99314000D03*
X153690000Y-102108000D03*
X156190000Y-102108000D03*
D11*
X153590000Y-107950000D03*
X156290000Y-107950000D03*
X153590000Y-104902000D03*
X156290000Y-104902000D03*
D12*
X144018000Y-106252000D03*
X144018000Y-103552000D03*
D13*
X146685000Y-107860000D03*
X147955000Y-107860000D03*
X150495000Y-107860000D03*
X150495000Y-102960000D03*
X149225000Y-102960000D03*
X147955000Y-102960000D03*
X146685000Y-102960000D03*
X149225000Y-107860000D03*
D14*
X153162000Y-117602000D03*
X146050000Y-117602000D03*
X142494000Y-91694000D03*
X149352000Y-91694000D03*
X156210000Y-91694000D03*
D15*
X145796000Y-97536000D03*
X141224000Y-101346000D03*
X141478000Y-113030000D03*
X149606000Y-111760000D03*
X156972000Y-111252000D03*
X152000000Y-100250000D03*
D16*
X147955000Y-102960000D02*
X149225000Y-102960000D01*
X147340000Y-99314000D02*
X145288000Y-99314000D01*
X145288000Y-99314000D02*
X142494000Y-96520000D01*
X142494000Y-96520000D02*
X142494000Y-91694000D01*
X146685000Y-102960000D02*
X146685000Y-99969000D01*
X146685000Y-99969000D02*
X147340000Y-99314000D01*
X149840000Y-99314000D02*
X149606000Y-99314000D01*
X153690000Y-102108000D02*
X153690000Y-99334000D01*
X150622000Y-97790000D02*
X148590000Y-95758000D01*
X152146000Y-97790000D02*
X150622000Y-97790000D01*
X153690000Y-99334000D02*
X152146000Y-97790000D01*
X150495000Y-107860000D02*
X150495000Y-105303000D01*
X150495000Y-105303000D02*
X153690000Y-102108000D01*
X144018000Y-103552000D02*
X144018000Y-103886000D01*
X144018000Y-103886000D02*
X146050000Y-105918000D01*
X146050000Y-105918000D02*
X147066000Y-105918000D01*
X147066000Y-105918000D02*
X147955000Y-106807000D01*
X147955000Y-106807000D02*
X147955000Y-107860000D01*
X151130000Y-110410000D02*
X149272000Y-110410000D01*
X147955000Y-109093000D02*
X147955000Y-107860000D01*
X149272000Y-110410000D02*
X147955000Y-109093000D01*
X151130000Y-113030000D02*
X151130000Y-110410000D01*
X151130000Y-110410000D02*
X153590000Y-107950000D01*
X144018000Y-106252000D02*
X145077000Y-106252000D01*
X145077000Y-106252000D02*
X146685000Y-107860000D01*
X146050000Y-113030000D02*
X146050000Y-108495000D01*
X146050000Y-108495000D02*
X146685000Y-107860000D01*
X153590000Y-104902000D02*
X152654000Y-104902000D01*
X149225000Y-109093000D02*
X149225000Y-107860000D01*
X149860000Y-109728000D02*
X149225000Y-109093000D01*
X150876000Y-109728000D02*
X149860000Y-109728000D01*
X151892000Y-108712000D02*
X150876000Y-109728000D01*
X151892000Y-105664000D02*
X151892000Y-108712000D01*
X152654000Y-104902000D02*
X151892000Y-105664000D01*
D17*
G36*
X153075000Y-91408250D02*
G01*
X153233750Y-91567000D01*
X156083000Y-91567000D01*
X156083000Y-91547000D01*
X156337000Y-91547000D01*
X156337000Y-91567000D01*
X156357000Y-91567000D01*
X156357000Y-91821000D01*
X156337000Y-91821000D01*
X156337000Y-97170250D01*
X156495750Y-97329000D01*
X158548000Y-97331847D01*
X158548001Y-122480000D01*
X156300072Y-122480000D01*
X156300072Y-112602000D01*
X156287812Y-112477518D01*
X156251502Y-112357820D01*
X156192537Y-112247506D01*
X156113185Y-112150815D01*
X156016494Y-112071463D01*
X155906180Y-112012498D01*
X155786482Y-111976188D01*
X155662000Y-111963928D01*
X151890000Y-111963928D01*
X151890000Y-110724801D01*
X153376730Y-109238072D01*
X154340000Y-109238072D01*
X154464482Y-109225812D01*
X154584180Y-109189502D01*
X154694494Y-109130537D01*
X154791185Y-109051185D01*
X154870537Y-108954494D01*
X154929502Y-108844180D01*
X154940000Y-108809573D01*
X154950498Y-108844180D01*
X155009463Y-108954494D01*
X155088815Y-109051185D01*
X155185506Y-109130537D01*
X155295820Y-109189502D01*
X155415518Y-109225812D01*
X155540000Y-109238072D01*
X156004250Y-109235000D01*
X156163000Y-109076250D01*
X156163000Y-108077000D01*
X156417000Y-108077000D01*
X156417000Y-109076250D01*
X156575750Y-109235000D01*
X157040000Y-109238072D01*
X157164482Y-109225812D01*
X157284180Y-109189502D01*
X157394494Y-109130537D01*
X157491185Y-109051185D01*
X157570537Y-108954494D01*
X157629502Y-108844180D01*
X157665812Y-108724482D01*
X157678072Y-108600000D01*
X157675000Y-108235750D01*
X157516250Y-108077000D01*
X156417000Y-108077000D01*
X156163000Y-108077000D01*
X156143000Y-108077000D01*
X156143000Y-107823000D01*
X156163000Y-107823000D01*
X156163000Y-106823750D01*
X156417000Y-106823750D01*
X156417000Y-107823000D01*
X157516250Y-107823000D01*
X157675000Y-107664250D01*
X157678072Y-107300000D01*
X157665812Y-107175518D01*
X157629502Y-107055820D01*
X157570537Y-106945506D01*
X157491185Y-106848815D01*
X157394494Y-106769463D01*
X157284180Y-106710498D01*
X157164482Y-106674188D01*
X157040000Y-106661928D01*
X156575750Y-106665000D01*
X156417000Y-106823750D01*
X156163000Y-106823750D01*
X156004250Y-106665000D01*
X155540000Y-106661928D01*
X155415518Y-106674188D01*
X155295820Y-106710498D01*
X155185506Y-106769463D01*
X155088815Y-106848815D01*
X155009463Y-106945506D01*
X154950498Y-107055820D01*
X154940000Y-107090427D01*
X154929502Y-107055820D01*
X154870537Y-106945506D01*
X154791185Y-106848815D01*
X154694494Y-106769463D01*
X154584180Y-106710498D01*
X154464482Y-106674188D01*
X154340000Y-106661928D01*
X152840000Y-106661928D01*
X152715518Y-106674188D01*
X152652000Y-106693456D01*
X152652000Y-106158544D01*
X152715518Y-106177812D01*
X152840000Y-106190072D01*
X154340000Y-106190072D01*
X154464482Y-106177812D01*
X154584180Y-106141502D01*
X154694494Y-106082537D01*
X154791185Y-106003185D01*
X154870537Y-105906494D01*
X154929502Y-105796180D01*
X154940000Y-105761573D01*
X154950498Y-105796180D01*
X155009463Y-105906494D01*
X155088815Y-106003185D01*
X155185506Y-106082537D01*
X155295820Y-106141502D01*
X155415518Y-106177812D01*
X155540000Y-106190072D01*
X156004250Y-106187000D01*
X156163000Y-106028250D01*
X156163000Y-105029000D01*
X156417000Y-105029000D01*
X156417000Y-106028250D01*
X156575750Y-106187000D01*
X157040000Y-106190072D01*
X157164482Y-106177812D01*
X157284180Y-106141502D01*
X157394494Y-106082537D01*
X157491185Y-106003185D01*
X157570537Y-105906494D01*
X157629502Y-105796180D01*
X157665812Y-105676482D01*
X157678072Y-105552000D01*
X157675000Y-105187750D01*
X157516250Y-105029000D01*
X156417000Y-105029000D01*
X156163000Y-105029000D01*
X156143000Y-105029000D01*
X156143000Y-104775000D01*
X156163000Y-104775000D01*
X156163000Y-103775750D01*
X156417000Y-103775750D01*
X156417000Y-104775000D01*
X157516250Y-104775000D01*
X157675000Y-104616250D01*
X157678072Y-104252000D01*
X157665812Y-104127518D01*
X157629502Y-104007820D01*
X157570537Y-103897506D01*
X157491185Y-103800815D01*
X157394494Y-103721463D01*
X157284180Y-103662498D01*
X157164482Y-103626188D01*
X157040000Y-103613928D01*
X156575750Y-103617000D01*
X156417000Y-103775750D01*
X156163000Y-103775750D01*
X156004250Y-103617000D01*
X155540000Y-103613928D01*
X155415518Y-103626188D01*
X155295820Y-103662498D01*
X155185506Y-103721463D01*
X155088815Y-103800815D01*
X155009463Y-103897506D01*
X154950498Y-104007820D01*
X154940000Y-104042427D01*
X154929502Y-104007820D01*
X154870537Y-103897506D01*
X154791185Y-103800815D01*
X154694494Y-103721463D01*
X154584180Y-103662498D01*
X154464482Y-103626188D01*
X154340000Y-103613928D01*
X153258874Y-103613928D01*
X153501730Y-103371072D01*
X154440000Y-103371072D01*
X154564482Y-103358812D01*
X154684180Y-103322502D01*
X154794494Y-103263537D01*
X154891185Y-103184185D01*
X154940000Y-103124704D01*
X154988815Y-103184185D01*
X155085506Y-103263537D01*
X155195820Y-103322502D01*
X155315518Y-103358812D01*
X155440000Y-103371072D01*
X155904250Y-103368000D01*
X156063000Y-103209250D01*
X156063000Y-102235000D01*
X156317000Y-102235000D01*
X156317000Y-103209250D01*
X156475750Y-103368000D01*
X156940000Y-103371072D01*
X157064482Y-103358812D01*
X157184180Y-103322502D01*
X157294494Y-103263537D01*
X157391185Y-103184185D01*
X157470537Y-103087494D01*
X157529502Y-102977180D01*
X157565812Y-102857482D01*
X157578072Y-102733000D01*
X157575000Y-102393750D01*
X157416250Y-102235000D01*
X156317000Y-102235000D01*
X156063000Y-102235000D01*
X156043000Y-102235000D01*
X156043000Y-101981000D01*
X156063000Y-101981000D01*
X156063000Y-101006750D01*
X156317000Y-101006750D01*
X156317000Y-101981000D01*
X157416250Y-101981000D01*
X157575000Y-101822250D01*
X157578072Y-101483000D01*
X157565812Y-101358518D01*
X157529502Y-101238820D01*
X157470537Y-101128506D01*
X157391185Y-101031815D01*
X157294494Y-100952463D01*
X157184180Y-100893498D01*
X157064482Y-100857188D01*
X156940000Y-100844928D01*
X156475750Y-100848000D01*
X156317000Y-101006750D01*
X156063000Y-101006750D01*
X155904250Y-100848000D01*
X155440000Y-100844928D01*
X155315518Y-100857188D01*
X155195820Y-100893498D01*
X155085506Y-100952463D01*
X154988815Y-101031815D01*
X154940000Y-101091296D01*
X154891185Y-101031815D01*
X154794494Y-100952463D01*
X154684180Y-100893498D01*
X154564482Y-100857188D01*
X154450000Y-100845913D01*
X154450000Y-99371325D01*
X154453676Y-99334000D01*
X154450000Y-99296675D01*
X154450000Y-99296667D01*
X154439003Y-99185014D01*
X154395546Y-99041753D01*
X154324974Y-98909724D01*
X154230001Y-98793999D01*
X154201003Y-98770201D01*
X152709804Y-97279003D01*
X152686001Y-97249999D01*
X152570276Y-97155026D01*
X152438247Y-97084454D01*
X152370012Y-97063756D01*
X152382537Y-97048494D01*
X152441502Y-96938180D01*
X152477812Y-96818482D01*
X152490072Y-96694000D01*
X153071928Y-96694000D01*
X153084188Y-96818482D01*
X153120498Y-96938180D01*
X153179463Y-97048494D01*
X153258815Y-97145185D01*
X153355506Y-97224537D01*
X153465820Y-97283502D01*
X153585518Y-97319812D01*
X153710000Y-97332072D01*
X155924250Y-97329000D01*
X156083000Y-97170250D01*
X156083000Y-91821000D01*
X153233750Y-91821000D01*
X153075000Y-91979750D01*
X153071928Y-96694000D01*
X152490072Y-96694000D01*
X152490072Y-86816000D01*
X153072008Y-86816000D01*
X153075000Y-91408250D01*
G37*
X153075000Y-91408250D02*
X153233750Y-91567000D01*
X156083000Y-91567000D01*
X156083000Y-91547000D01*
X156337000Y-91547000D01*
X156337000Y-91567000D01*
X156357000Y-91567000D01*
X156357000Y-91821000D01*
X156337000Y-91821000D01*
X156337000Y-97170250D01*
X156495750Y-97329000D01*
X158548000Y-97331847D01*
X158548001Y-122480000D01*
X156300072Y-122480000D01*
X156300072Y-112602000D01*
X156287812Y-112477518D01*
X156251502Y-112357820D01*
X156192537Y-112247506D01*
X156113185Y-112150815D01*
X156016494Y-112071463D01*
X155906180Y-112012498D01*
X155786482Y-111976188D01*
X155662000Y-111963928D01*
X151890000Y-111963928D01*
X151890000Y-110724801D01*
X153376730Y-109238072D01*
X154340000Y-109238072D01*
X154464482Y-109225812D01*
X154584180Y-109189502D01*
X154694494Y-109130537D01*
X154791185Y-109051185D01*
X154870537Y-108954494D01*
X154929502Y-108844180D01*
X154940000Y-108809573D01*
X154950498Y-108844180D01*
X155009463Y-108954494D01*
X155088815Y-109051185D01*
X155185506Y-109130537D01*
X155295820Y-109189502D01*
X155415518Y-109225812D01*
X155540000Y-109238072D01*
X156004250Y-109235000D01*
X156163000Y-109076250D01*
X156163000Y-108077000D01*
X156417000Y-108077000D01*
X156417000Y-109076250D01*
X156575750Y-109235000D01*
X157040000Y-109238072D01*
X157164482Y-109225812D01*
X157284180Y-109189502D01*
X157394494Y-109130537D01*
X157491185Y-109051185D01*
X157570537Y-108954494D01*
X157629502Y-108844180D01*
X157665812Y-108724482D01*
X157678072Y-108600000D01*
X157675000Y-108235750D01*
X157516250Y-108077000D01*
X156417000Y-108077000D01*
X156163000Y-108077000D01*
X156143000Y-108077000D01*
X156143000Y-107823000D01*
X156163000Y-107823000D01*
X156163000Y-106823750D01*
X156417000Y-106823750D01*
X156417000Y-107823000D01*
X157516250Y-107823000D01*
X157675000Y-107664250D01*
X157678072Y-107300000D01*
X157665812Y-107175518D01*
X157629502Y-107055820D01*
X157570537Y-106945506D01*
X157491185Y-106848815D01*
X157394494Y-106769463D01*
X157284180Y-106710498D01*
X157164482Y-106674188D01*
X157040000Y-106661928D01*
X156575750Y-106665000D01*
X156417000Y-106823750D01*
X156163000Y-106823750D01*
X156004250Y-106665000D01*
X155540000Y-106661928D01*
X155415518Y-106674188D01*
X155295820Y-106710498D01*
X155185506Y-106769463D01*
X155088815Y-106848815D01*
X155009463Y-106945506D01*
X154950498Y-107055820D01*
X154940000Y-107090427D01*
X154929502Y-107055820D01*
X154870537Y-106945506D01*
X154791185Y-106848815D01*
X154694494Y-106769463D01*
X154584180Y-106710498D01*
X154464482Y-106674188D01*
X154340000Y-106661928D01*
X152840000Y-106661928D01*
X152715518Y-106674188D01*
X152652000Y-106693456D01*
X152652000Y-106158544D01*
X152715518Y-106177812D01*
X152840000Y-106190072D01*
X154340000Y-106190072D01*
X154464482Y-106177812D01*
X154584180Y-106141502D01*
X154694494Y-106082537D01*
X154791185Y-106003185D01*
X154870537Y-105906494D01*
X154929502Y-105796180D01*
X154940000Y-105761573D01*
X154950498Y-105796180D01*
X155009463Y-105906494D01*
X155088815Y-106003185D01*
X155185506Y-106082537D01*
X155295820Y-106141502D01*
X155415518Y-106177812D01*
X155540000Y-106190072D01*
X156004250Y-106187000D01*
X156163000Y-106028250D01*
X156163000Y-105029000D01*
X156417000Y-105029000D01*
X156417000Y-106028250D01*
X156575750Y-106187000D01*
X157040000Y-106190072D01*
X157164482Y-106177812D01*
X157284180Y-106141502D01*
X157394494Y-106082537D01*
X157491185Y-106003185D01*
X157570537Y-105906494D01*
X157629502Y-105796180D01*
X157665812Y-105676482D01*
X157678072Y-105552000D01*
X157675000Y-105187750D01*
X157516250Y-105029000D01*
X156417000Y-105029000D01*
X156163000Y-105029000D01*
X156143000Y-105029000D01*
X156143000Y-104775000D01*
X156163000Y-104775000D01*
X156163000Y-103775750D01*
X156417000Y-103775750D01*
X156417000Y-104775000D01*
X157516250Y-104775000D01*
X157675000Y-104616250D01*
X157678072Y-104252000D01*
X157665812Y-104127518D01*
X157629502Y-104007820D01*
X157570537Y-103897506D01*
X157491185Y-103800815D01*
X157394494Y-103721463D01*
X157284180Y-103662498D01*
X157164482Y-103626188D01*
X157040000Y-103613928D01*
X156575750Y-103617000D01*
X156417000Y-103775750D01*
X156163000Y-103775750D01*
X156004250Y-103617000D01*
X155540000Y-103613928D01*
X155415518Y-103626188D01*
X155295820Y-103662498D01*
X155185506Y-103721463D01*
X155088815Y-103800815D01*
X155009463Y-103897506D01*
X154950498Y-104007820D01*
X154940000Y-104042427D01*
X154929502Y-104007820D01*
X154870537Y-103897506D01*
X154791185Y-103800815D01*
X154694494Y-103721463D01*
X154584180Y-103662498D01*
X154464482Y-103626188D01*
X154340000Y-103613928D01*
X153258874Y-103613928D01*
X153501730Y-103371072D01*
X154440000Y-103371072D01*
X154564482Y-103358812D01*
X154684180Y-103322502D01*
X154794494Y-103263537D01*
X154891185Y-103184185D01*
X154940000Y-103124704D01*
X154988815Y-103184185D01*
X155085506Y-103263537D01*
X155195820Y-103322502D01*
X155315518Y-103358812D01*
X155440000Y-103371072D01*
X155904250Y-103368000D01*
X156063000Y-103209250D01*
X156063000Y-102235000D01*
X156317000Y-102235000D01*
X156317000Y-103209250D01*
X156475750Y-103368000D01*
X156940000Y-103371072D01*
X157064482Y-103358812D01*
X157184180Y-103322502D01*
X157294494Y-103263537D01*
X157391185Y-103184185D01*
X157470537Y-103087494D01*
X157529502Y-102977180D01*
X157565812Y-102857482D01*
X157578072Y-102733000D01*
X157575000Y-102393750D01*
X157416250Y-102235000D01*
X156317000Y-102235000D01*
X156063000Y-102235000D01*
X156043000Y-102235000D01*
X156043000Y-101981000D01*
X156063000Y-101981000D01*
X156063000Y-101006750D01*
X156317000Y-101006750D01*
X156317000Y-101981000D01*
X157416250Y-101981000D01*
X157575000Y-101822250D01*
X157578072Y-101483000D01*
X157565812Y-101358518D01*
X157529502Y-101238820D01*
X157470537Y-101128506D01*
X157391185Y-101031815D01*
X157294494Y-100952463D01*
X157184180Y-100893498D01*
X157064482Y-100857188D01*
X156940000Y-100844928D01*
X156475750Y-100848000D01*
X156317000Y-101006750D01*
X156063000Y-101006750D01*
X155904250Y-100848000D01*
X155440000Y-100844928D01*
X155315518Y-100857188D01*
X155195820Y-100893498D01*
X155085506Y-100952463D01*
X154988815Y-101031815D01*
X154940000Y-101091296D01*
X154891185Y-101031815D01*
X154794494Y-100952463D01*
X154684180Y-100893498D01*
X154564482Y-100857188D01*
X154450000Y-100845913D01*
X154450000Y-99371325D01*
X154453676Y-99334000D01*
X154450000Y-99296675D01*
X154450000Y-99296667D01*
X154439003Y-99185014D01*
X154395546Y-99041753D01*
X154324974Y-98909724D01*
X154230001Y-98793999D01*
X154201003Y-98770201D01*
X152709804Y-97279003D01*
X152686001Y-97249999D01*
X152570276Y-97155026D01*
X152438247Y-97084454D01*
X152370012Y-97063756D01*
X152382537Y-97048494D01*
X152441502Y-96938180D01*
X152477812Y-96818482D01*
X152490072Y-96694000D01*
X153071928Y-96694000D01*
X153084188Y-96818482D01*
X153120498Y-96938180D01*
X153179463Y-97048494D01*
X153258815Y-97145185D01*
X153355506Y-97224537D01*
X153465820Y-97283502D01*
X153585518Y-97319812D01*
X153710000Y-97332072D01*
X155924250Y-97329000D01*
X156083000Y-97170250D01*
X156083000Y-91821000D01*
X153233750Y-91821000D01*
X153075000Y-91979750D01*
X153071928Y-96694000D01*
X152490072Y-96694000D01*
X152490072Y-86816000D01*
X153072008Y-86816000D01*
X153075000Y-91408250D01*
G36*
X147320026Y-109517276D02*
G01*
X147359871Y-109565826D01*
X147414999Y-109633001D01*
X147444003Y-109656804D01*
X148708201Y-110921003D01*
X148731999Y-110950001D01*
X148847724Y-111044974D01*
X148979753Y-111115546D01*
X149123014Y-111159003D01*
X149234667Y-111170000D01*
X149234676Y-111170000D01*
X149271999Y-111173676D01*
X149309322Y-111170000D01*
X150370001Y-111170000D01*
X150370000Y-112038059D01*
X150307506Y-112071463D01*
X150210815Y-112150815D01*
X150131463Y-112247506D01*
X150072498Y-112357820D01*
X150036188Y-112477518D01*
X150023928Y-112602000D01*
X150023928Y-122480000D01*
X149188072Y-122480000D01*
X149188072Y-112602000D01*
X149175812Y-112477518D01*
X149139502Y-112357820D01*
X149080537Y-112247506D01*
X149001185Y-112150815D01*
X148904494Y-112071463D01*
X148794180Y-112012498D01*
X148674482Y-111976188D01*
X148550000Y-111963928D01*
X146810000Y-111963928D01*
X146810000Y-109498072D01*
X146985000Y-109498072D01*
X147109482Y-109485812D01*
X147229180Y-109449502D01*
X147271662Y-109426794D01*
X147320026Y-109517276D01*
G37*
X147320026Y-109517276D02*
X147359871Y-109565826D01*
X147414999Y-109633001D01*
X147444003Y-109656804D01*
X148708201Y-110921003D01*
X148731999Y-110950001D01*
X148847724Y-111044974D01*
X148979753Y-111115546D01*
X149123014Y-111159003D01*
X149234667Y-111170000D01*
X149234676Y-111170000D01*
X149271999Y-111173676D01*
X149309322Y-111170000D01*
X150370001Y-111170000D01*
X150370000Y-112038059D01*
X150307506Y-112071463D01*
X150210815Y-112150815D01*
X150131463Y-112247506D01*
X150072498Y-112357820D01*
X150036188Y-112477518D01*
X150023928Y-112602000D01*
X150023928Y-122480000D01*
X149188072Y-122480000D01*
X149188072Y-112602000D01*
X149175812Y-112477518D01*
X149139502Y-112357820D01*
X149080537Y-112247506D01*
X149001185Y-112150815D01*
X148904494Y-112071463D01*
X148794180Y-112012498D01*
X148674482Y-111976188D01*
X148550000Y-111963928D01*
X146810000Y-111963928D01*
X146810000Y-109498072D01*
X146985000Y-109498072D01*
X147109482Y-109485812D01*
X147229180Y-109449502D01*
X147271662Y-109426794D01*
X147320026Y-109517276D01*
G36*
X144724201Y-99825003D02*
G01*
X144747999Y-99854001D01*
X144863724Y-99948974D01*
X144995753Y-100019546D01*
X145139014Y-100063003D01*
X145250667Y-100074000D01*
X145250675Y-100074000D01*
X145288000Y-100077676D01*
X145325325Y-100074000D01*
X145925001Y-100074000D01*
X145925000Y-101519556D01*
X145854463Y-101605506D01*
X145795498Y-101715820D01*
X145759188Y-101835518D01*
X145746928Y-101960000D01*
X145746928Y-103960000D01*
X145759188Y-104084482D01*
X145795498Y-104204180D01*
X145854463Y-104314494D01*
X145933815Y-104411185D01*
X146030506Y-104490537D01*
X146140820Y-104549502D01*
X146260518Y-104585812D01*
X146385000Y-104598072D01*
X146985000Y-104598072D01*
X147109482Y-104585812D01*
X147229180Y-104549502D01*
X147320000Y-104500957D01*
X147410820Y-104549502D01*
X147530518Y-104585812D01*
X147655000Y-104598072D01*
X148255000Y-104598072D01*
X148379482Y-104585812D01*
X148499180Y-104549502D01*
X148590000Y-104500957D01*
X148680820Y-104549502D01*
X148800518Y-104585812D01*
X148925000Y-104598072D01*
X149525000Y-104598072D01*
X149649482Y-104585812D01*
X149769180Y-104549502D01*
X149860000Y-104500957D01*
X149950820Y-104549502D01*
X150070518Y-104585812D01*
X150131392Y-104591807D01*
X149983998Y-104739201D01*
X149955000Y-104762999D01*
X149931202Y-104791997D01*
X149931201Y-104791998D01*
X149860026Y-104878724D01*
X149789454Y-105010754D01*
X149759180Y-105110558D01*
X149745998Y-105154014D01*
X149744522Y-105168997D01*
X149731324Y-105303000D01*
X149735001Y-105340332D01*
X149735001Y-106260130D01*
X149649482Y-106234188D01*
X149525000Y-106221928D01*
X148925000Y-106221928D01*
X148800518Y-106234188D01*
X148680820Y-106270498D01*
X148590000Y-106319043D01*
X148499180Y-106270498D01*
X148497439Y-106269970D01*
X148495001Y-106266999D01*
X148466004Y-106243202D01*
X147629803Y-105407002D01*
X147606001Y-105377999D01*
X147490276Y-105283026D01*
X147358247Y-105212454D01*
X147214986Y-105168997D01*
X147103333Y-105158000D01*
X147103322Y-105158000D01*
X147066000Y-105154324D01*
X147028678Y-105158000D01*
X146364802Y-105158000D01*
X145306072Y-104099271D01*
X145306072Y-102802000D01*
X145293812Y-102677518D01*
X145257502Y-102557820D01*
X145198537Y-102447506D01*
X145119185Y-102350815D01*
X145022494Y-102271463D01*
X144912180Y-102212498D01*
X144792482Y-102176188D01*
X144668000Y-102163928D01*
X143368000Y-102163928D01*
X143243518Y-102176188D01*
X143123820Y-102212498D01*
X143013506Y-102271463D01*
X142916815Y-102350815D01*
X142837463Y-102447506D01*
X142778498Y-102557820D01*
X142742188Y-102677518D01*
X142729928Y-102802000D01*
X142729928Y-104302000D01*
X142742188Y-104426482D01*
X142778498Y-104546180D01*
X142837463Y-104656494D01*
X142916815Y-104753185D01*
X143013506Y-104832537D01*
X143123820Y-104891502D01*
X143158427Y-104902000D01*
X143123820Y-104912498D01*
X143013506Y-104971463D01*
X142916815Y-105050815D01*
X142837463Y-105147506D01*
X142778498Y-105257820D01*
X142742188Y-105377518D01*
X142729928Y-105502000D01*
X142729928Y-107002000D01*
X142742188Y-107126482D01*
X142778498Y-107246180D01*
X142837463Y-107356494D01*
X142916815Y-107453185D01*
X143013506Y-107532537D01*
X143123820Y-107591502D01*
X143243518Y-107627812D01*
X143368000Y-107640072D01*
X144668000Y-107640072D01*
X144792482Y-107627812D01*
X144912180Y-107591502D01*
X145022494Y-107532537D01*
X145119185Y-107453185D01*
X145157138Y-107406939D01*
X145610198Y-107860001D01*
X145538998Y-107931201D01*
X145510000Y-107954999D01*
X145486202Y-107983997D01*
X145486201Y-107983998D01*
X145415026Y-108070724D01*
X145344454Y-108202754D01*
X145319726Y-108284275D01*
X145300998Y-108346014D01*
X145295681Y-108400000D01*
X145286324Y-108495000D01*
X145290001Y-108532332D01*
X145290000Y-111963928D01*
X143550000Y-111963928D01*
X143425518Y-111976188D01*
X143305820Y-112012498D01*
X143195506Y-112071463D01*
X143098815Y-112150815D01*
X143019463Y-112247506D01*
X142960498Y-112357820D01*
X142924188Y-112477518D01*
X142911928Y-112602000D01*
X142911928Y-122480000D01*
X140156000Y-122480000D01*
X140156000Y-97332072D01*
X142231271Y-97332072D01*
X144724201Y-99825003D01*
G37*
X144724201Y-99825003D02*
X144747999Y-99854001D01*
X144863724Y-99948974D01*
X144995753Y-100019546D01*
X145139014Y-100063003D01*
X145250667Y-100074000D01*
X145250675Y-100074000D01*
X145288000Y-100077676D01*
X145325325Y-100074000D01*
X145925001Y-100074000D01*
X145925000Y-101519556D01*
X145854463Y-101605506D01*
X145795498Y-101715820D01*
X145759188Y-101835518D01*
X145746928Y-101960000D01*
X145746928Y-103960000D01*
X145759188Y-104084482D01*
X145795498Y-104204180D01*
X145854463Y-104314494D01*
X145933815Y-104411185D01*
X146030506Y-104490537D01*
X146140820Y-104549502D01*
X146260518Y-104585812D01*
X146385000Y-104598072D01*
X146985000Y-104598072D01*
X147109482Y-104585812D01*
X147229180Y-104549502D01*
X147320000Y-104500957D01*
X147410820Y-104549502D01*
X147530518Y-104585812D01*
X147655000Y-104598072D01*
X148255000Y-104598072D01*
X148379482Y-104585812D01*
X148499180Y-104549502D01*
X148590000Y-104500957D01*
X148680820Y-104549502D01*
X148800518Y-104585812D01*
X148925000Y-104598072D01*
X149525000Y-104598072D01*
X149649482Y-104585812D01*
X149769180Y-104549502D01*
X149860000Y-104500957D01*
X149950820Y-104549502D01*
X150070518Y-104585812D01*
X150131392Y-104591807D01*
X149983998Y-104739201D01*
X149955000Y-104762999D01*
X149931202Y-104791997D01*
X149931201Y-104791998D01*
X149860026Y-104878724D01*
X149789454Y-105010754D01*
X149759180Y-105110558D01*
X149745998Y-105154014D01*
X149744522Y-105168997D01*
X149731324Y-105303000D01*
X149735001Y-105340332D01*
X149735001Y-106260130D01*
X149649482Y-106234188D01*
X149525000Y-106221928D01*
X148925000Y-106221928D01*
X148800518Y-106234188D01*
X148680820Y-106270498D01*
X148590000Y-106319043D01*
X148499180Y-106270498D01*
X148497439Y-106269970D01*
X148495001Y-106266999D01*
X148466004Y-106243202D01*
X147629803Y-105407002D01*
X147606001Y-105377999D01*
X147490276Y-105283026D01*
X147358247Y-105212454D01*
X147214986Y-105168997D01*
X147103333Y-105158000D01*
X147103322Y-105158000D01*
X147066000Y-105154324D01*
X147028678Y-105158000D01*
X146364802Y-105158000D01*
X145306072Y-104099271D01*
X145306072Y-102802000D01*
X145293812Y-102677518D01*
X145257502Y-102557820D01*
X145198537Y-102447506D01*
X145119185Y-102350815D01*
X145022494Y-102271463D01*
X144912180Y-102212498D01*
X144792482Y-102176188D01*
X144668000Y-102163928D01*
X143368000Y-102163928D01*
X143243518Y-102176188D01*
X143123820Y-102212498D01*
X143013506Y-102271463D01*
X142916815Y-102350815D01*
X142837463Y-102447506D01*
X142778498Y-102557820D01*
X142742188Y-102677518D01*
X142729928Y-102802000D01*
X142729928Y-104302000D01*
X142742188Y-104426482D01*
X142778498Y-104546180D01*
X142837463Y-104656494D01*
X142916815Y-104753185D01*
X143013506Y-104832537D01*
X143123820Y-104891502D01*
X143158427Y-104902000D01*
X143123820Y-104912498D01*
X143013506Y-104971463D01*
X142916815Y-105050815D01*
X142837463Y-105147506D01*
X142778498Y-105257820D01*
X142742188Y-105377518D01*
X142729928Y-105502000D01*
X142729928Y-107002000D01*
X142742188Y-107126482D01*
X142778498Y-107246180D01*
X142837463Y-107356494D01*
X142916815Y-107453185D01*
X143013506Y-107532537D01*
X143123820Y-107591502D01*
X143243518Y-107627812D01*
X143368000Y-107640072D01*
X144668000Y-107640072D01*
X144792482Y-107627812D01*
X144912180Y-107591502D01*
X145022494Y-107532537D01*
X145119185Y-107453185D01*
X145157138Y-107406939D01*
X145610198Y-107860001D01*
X145538998Y-107931201D01*
X145510000Y-107954999D01*
X145486202Y-107983997D01*
X145486201Y-107983998D01*
X145415026Y-108070724D01*
X145344454Y-108202754D01*
X145319726Y-108284275D01*
X145300998Y-108346014D01*
X145295681Y-108400000D01*
X145286324Y-108495000D01*
X145290001Y-108532332D01*
X145290000Y-111963928D01*
X143550000Y-111963928D01*
X143425518Y-111976188D01*
X143305820Y-112012498D01*
X143195506Y-112071463D01*
X143098815Y-112150815D01*
X143019463Y-112247506D01*
X142960498Y-112357820D01*
X142924188Y-112477518D01*
X142911928Y-112602000D01*
X142911928Y-122480000D01*
X140156000Y-122480000D01*
X140156000Y-97332072D01*
X142231271Y-97332072D01*
X144724201Y-99825003D01*
G36*
X152930001Y-99648803D02*
G01*
X152930000Y-100845913D01*
X152815518Y-100857188D01*
X152695820Y-100893498D01*
X152585506Y-100952463D01*
X152488815Y-101031815D01*
X152409463Y-101128506D01*
X152350498Y-101238820D01*
X152314188Y-101358518D01*
X152301928Y-101483000D01*
X152301928Y-102421270D01*
X151430203Y-103292995D01*
X151430000Y-103245750D01*
X151271250Y-103087000D01*
X150622000Y-103087000D01*
X150622000Y-103107000D01*
X150368000Y-103107000D01*
X150368000Y-103087000D01*
X150348000Y-103087000D01*
X150348000Y-102833000D01*
X150368000Y-102833000D01*
X150368000Y-101483750D01*
X150622000Y-101483750D01*
X150622000Y-102833000D01*
X151271250Y-102833000D01*
X151430000Y-102674250D01*
X151433072Y-101960000D01*
X151420812Y-101835518D01*
X151384502Y-101715820D01*
X151325537Y-101605506D01*
X151246185Y-101508815D01*
X151149494Y-101429463D01*
X151039180Y-101370498D01*
X150919482Y-101334188D01*
X150795000Y-101321928D01*
X150780750Y-101325000D01*
X150622000Y-101483750D01*
X150368000Y-101483750D01*
X150209250Y-101325000D01*
X150195000Y-101321928D01*
X150070518Y-101334188D01*
X149950820Y-101370498D01*
X149860000Y-101419043D01*
X149769180Y-101370498D01*
X149649482Y-101334188D01*
X149525000Y-101321928D01*
X148925000Y-101321928D01*
X148800518Y-101334188D01*
X148680820Y-101370498D01*
X148590000Y-101419043D01*
X148499180Y-101370498D01*
X148379482Y-101334188D01*
X148255000Y-101321928D01*
X147655000Y-101321928D01*
X147530518Y-101334188D01*
X147445000Y-101360130D01*
X147445000Y-100577072D01*
X148090000Y-100577072D01*
X148214482Y-100564812D01*
X148334180Y-100528502D01*
X148444494Y-100469537D01*
X148541185Y-100390185D01*
X148590000Y-100330704D01*
X148638815Y-100390185D01*
X148735506Y-100469537D01*
X148845820Y-100528502D01*
X148965518Y-100564812D01*
X149090000Y-100577072D01*
X149554250Y-100574000D01*
X149713000Y-100415250D01*
X149713000Y-99441000D01*
X149967000Y-99441000D01*
X149967000Y-100415250D01*
X150125750Y-100574000D01*
X150590000Y-100577072D01*
X150714482Y-100564812D01*
X150834180Y-100528502D01*
X150944494Y-100469537D01*
X151041185Y-100390185D01*
X151120537Y-100293494D01*
X151179502Y-100183180D01*
X151215812Y-100063482D01*
X151228072Y-99939000D01*
X151225000Y-99599750D01*
X151066250Y-99441000D01*
X149967000Y-99441000D01*
X149713000Y-99441000D01*
X149693000Y-99441000D01*
X149693000Y-99187000D01*
X149713000Y-99187000D01*
X149713000Y-99167000D01*
X149967000Y-99167000D01*
X149967000Y-99187000D01*
X151066250Y-99187000D01*
X151225000Y-99028250D01*
X151228072Y-98689000D01*
X151215812Y-98564518D01*
X151211408Y-98550000D01*
X151831199Y-98550000D01*
X152930001Y-99648803D01*
G37*
X152930001Y-99648803D02*
X152930000Y-100845913D01*
X152815518Y-100857188D01*
X152695820Y-100893498D01*
X152585506Y-100952463D01*
X152488815Y-101031815D01*
X152409463Y-101128506D01*
X152350498Y-101238820D01*
X152314188Y-101358518D01*
X152301928Y-101483000D01*
X152301928Y-102421270D01*
X151430203Y-103292995D01*
X151430000Y-103245750D01*
X151271250Y-103087000D01*
X150622000Y-103087000D01*
X150622000Y-103107000D01*
X150368000Y-103107000D01*
X150368000Y-103087000D01*
X150348000Y-103087000D01*
X150348000Y-102833000D01*
X150368000Y-102833000D01*
X150368000Y-101483750D01*
X150622000Y-101483750D01*
X150622000Y-102833000D01*
X151271250Y-102833000D01*
X151430000Y-102674250D01*
X151433072Y-101960000D01*
X151420812Y-101835518D01*
X151384502Y-101715820D01*
X151325537Y-101605506D01*
X151246185Y-101508815D01*
X151149494Y-101429463D01*
X151039180Y-101370498D01*
X150919482Y-101334188D01*
X150795000Y-101321928D01*
X150780750Y-101325000D01*
X150622000Y-101483750D01*
X150368000Y-101483750D01*
X150209250Y-101325000D01*
X150195000Y-101321928D01*
X150070518Y-101334188D01*
X149950820Y-101370498D01*
X149860000Y-101419043D01*
X149769180Y-101370498D01*
X149649482Y-101334188D01*
X149525000Y-101321928D01*
X148925000Y-101321928D01*
X148800518Y-101334188D01*
X148680820Y-101370498D01*
X148590000Y-101419043D01*
X148499180Y-101370498D01*
X148379482Y-101334188D01*
X148255000Y-101321928D01*
X147655000Y-101321928D01*
X147530518Y-101334188D01*
X147445000Y-101360130D01*
X147445000Y-100577072D01*
X148090000Y-100577072D01*
X148214482Y-100564812D01*
X148334180Y-100528502D01*
X148444494Y-100469537D01*
X148541185Y-100390185D01*
X148590000Y-100330704D01*
X148638815Y-100390185D01*
X148735506Y-100469537D01*
X148845820Y-100528502D01*
X148965518Y-100564812D01*
X149090000Y-100577072D01*
X149554250Y-100574000D01*
X149713000Y-100415250D01*
X149713000Y-99441000D01*
X149967000Y-99441000D01*
X149967000Y-100415250D01*
X150125750Y-100574000D01*
X150590000Y-100577072D01*
X150714482Y-100564812D01*
X150834180Y-100528502D01*
X150944494Y-100469537D01*
X151041185Y-100390185D01*
X151120537Y-100293494D01*
X151179502Y-100183180D01*
X151215812Y-100063482D01*
X151228072Y-99939000D01*
X151225000Y-99599750D01*
X151066250Y-99441000D01*
X149967000Y-99441000D01*
X149713000Y-99441000D01*
X149693000Y-99441000D01*
X149693000Y-99187000D01*
X149713000Y-99187000D01*
X149713000Y-99167000D01*
X149967000Y-99167000D01*
X149967000Y-99187000D01*
X151066250Y-99187000D01*
X151225000Y-99028250D01*
X151228072Y-98689000D01*
X151215812Y-98564518D01*
X151211408Y-98550000D01*
X151831199Y-98550000D01*
X152930001Y-99648803D01*
G36*
X146213928Y-96694000D02*
G01*
X146226188Y-96818482D01*
X146262498Y-96938180D01*
X146321463Y-97048494D01*
X146400815Y-97145185D01*
X146497506Y-97224537D01*
X146607820Y-97283502D01*
X146727518Y-97319812D01*
X146852000Y-97332072D01*
X149089270Y-97332072D01*
X149811198Y-98054000D01*
X149712998Y-98054000D01*
X149712998Y-98212748D01*
X149554250Y-98054000D01*
X149090000Y-98050928D01*
X148965518Y-98063188D01*
X148845820Y-98099498D01*
X148735506Y-98158463D01*
X148638815Y-98237815D01*
X148590000Y-98297296D01*
X148541185Y-98237815D01*
X148444494Y-98158463D01*
X148334180Y-98099498D01*
X148214482Y-98063188D01*
X148090000Y-98050928D01*
X146590000Y-98050928D01*
X146465518Y-98063188D01*
X146345820Y-98099498D01*
X146235506Y-98158463D01*
X146138815Y-98237815D01*
X146059463Y-98334506D01*
X146000498Y-98444820D01*
X145967379Y-98554000D01*
X145602802Y-98554000D01*
X144380873Y-97332072D01*
X144994000Y-97332072D01*
X145118482Y-97319812D01*
X145238180Y-97283502D01*
X145348494Y-97224537D01*
X145445185Y-97145185D01*
X145524537Y-97048494D01*
X145583502Y-96938180D01*
X145619812Y-96818482D01*
X145632072Y-96694000D01*
X145632072Y-86816000D01*
X146213928Y-86816000D01*
X146213928Y-96694000D01*
G37*
X146213928Y-96694000D02*
X146226188Y-96818482D01*
X146262498Y-96938180D01*
X146321463Y-97048494D01*
X146400815Y-97145185D01*
X146497506Y-97224537D01*
X146607820Y-97283502D01*
X146727518Y-97319812D01*
X146852000Y-97332072D01*
X149089270Y-97332072D01*
X149811198Y-98054000D01*
X149712998Y-98054000D01*
X149712998Y-98212748D01*
X149554250Y-98054000D01*
X149090000Y-98050928D01*
X148965518Y-98063188D01*
X148845820Y-98099498D01*
X148735506Y-98158463D01*
X148638815Y-98237815D01*
X148590000Y-98297296D01*
X148541185Y-98237815D01*
X148444494Y-98158463D01*
X148334180Y-98099498D01*
X148214482Y-98063188D01*
X148090000Y-98050928D01*
X146590000Y-98050928D01*
X146465518Y-98063188D01*
X146345820Y-98099498D01*
X146235506Y-98158463D01*
X146138815Y-98237815D01*
X146059463Y-98334506D01*
X146000498Y-98444820D01*
X145967379Y-98554000D01*
X145602802Y-98554000D01*
X144380873Y-97332072D01*
X144994000Y-97332072D01*
X145118482Y-97319812D01*
X145238180Y-97283502D01*
X145348494Y-97224537D01*
X145445185Y-97145185D01*
X145524537Y-97048494D01*
X145583502Y-96938180D01*
X145619812Y-96818482D01*
X145632072Y-96694000D01*
X145632072Y-86816000D01*
X146213928Y-86816000D01*
X146213928Y-96694000D01*
M02*
