G04 #@! TF.GenerationSoftware,KiCad,Pcbnew,(5.1.5)-3*
G04 #@! TF.CreationDate,2020-06-08T15:14:45-04:00*
G04 #@! TF.ProjectId,Vextrex Buzz Fix,56657874-7265-4782-9042-757a7a204669,rev?*
G04 #@! TF.SameCoordinates,Original*
G04 #@! TF.FileFunction,Legend,Top*
G04 #@! TF.FilePolarity,Positive*
%FSLAX46Y46*%
G04 Gerber Fmt 4.6, Leading zero omitted, Abs format (unit mm)*
G04 Created by KiCad (PCBNEW (5.1.5)-3) date 2020-06-08 15:14:45*
%MOMM*%
%LPD*%
G04 APERTURE LIST*
%ADD10C,0.120000*%
%ADD11C,0.100000*%
%ADD12C,0.150000*%
G04 APERTURE END LIST*
D10*
X149090000Y-98464000D02*
X148090000Y-98464000D01*
X148090000Y-100164000D02*
X149090000Y-100164000D01*
X155440000Y-101258000D02*
X154440000Y-101258000D01*
X154440000Y-102958000D02*
X155440000Y-102958000D01*
X155540000Y-108830000D02*
X154340000Y-108830000D01*
X154340000Y-107070000D02*
X155540000Y-107070000D01*
X155540000Y-105782000D02*
X154340000Y-105782000D01*
X154340000Y-104022000D02*
X155540000Y-104022000D01*
X144898000Y-104302000D02*
X144898000Y-105502000D01*
X143138000Y-105502000D02*
X143138000Y-104302000D01*
D11*
X145990000Y-106610000D02*
X145990000Y-107010000D01*
X145990000Y-107010000D02*
X146290000Y-107310000D01*
X146290000Y-107310000D02*
X146290000Y-108110000D01*
X150890000Y-107510000D02*
X151190000Y-107510000D01*
X151190000Y-107510000D02*
X151190000Y-107210000D01*
X146290000Y-103310000D02*
X145990000Y-103310000D01*
X145990000Y-103310000D02*
X145990000Y-103610000D01*
X150890000Y-103310000D02*
X151190000Y-103310000D01*
X151190000Y-103310000D02*
X151190000Y-103610000D01*
D12*
X148423333Y-101449142D02*
X148375714Y-101496761D01*
X148232857Y-101544380D01*
X148137619Y-101544380D01*
X147994761Y-101496761D01*
X147899523Y-101401523D01*
X147851904Y-101306285D01*
X147804285Y-101115809D01*
X147804285Y-100972952D01*
X147851904Y-100782476D01*
X147899523Y-100687238D01*
X147994761Y-100592000D01*
X148137619Y-100544380D01*
X148232857Y-100544380D01*
X148375714Y-100592000D01*
X148423333Y-100639619D01*
X149375714Y-101544380D02*
X148804285Y-101544380D01*
X149090000Y-101544380D02*
X149090000Y-100544380D01*
X148994761Y-100687238D01*
X148899523Y-100782476D01*
X148804285Y-100830095D01*
X154773333Y-100715142D02*
X154725714Y-100762761D01*
X154582857Y-100810380D01*
X154487619Y-100810380D01*
X154344761Y-100762761D01*
X154249523Y-100667523D01*
X154201904Y-100572285D01*
X154154285Y-100381809D01*
X154154285Y-100238952D01*
X154201904Y-100048476D01*
X154249523Y-99953238D01*
X154344761Y-99858000D01*
X154487619Y-99810380D01*
X154582857Y-99810380D01*
X154725714Y-99858000D01*
X154773333Y-99905619D01*
X155154285Y-99905619D02*
X155201904Y-99858000D01*
X155297142Y-99810380D01*
X155535238Y-99810380D01*
X155630476Y-99858000D01*
X155678095Y-99905619D01*
X155725714Y-100000857D01*
X155725714Y-100096095D01*
X155678095Y-100238952D01*
X155106666Y-100810380D01*
X155725714Y-100810380D01*
X154773333Y-110180380D02*
X154440000Y-109704190D01*
X154201904Y-110180380D02*
X154201904Y-109180380D01*
X154582857Y-109180380D01*
X154678095Y-109228000D01*
X154725714Y-109275619D01*
X154773333Y-109370857D01*
X154773333Y-109513714D01*
X154725714Y-109608952D01*
X154678095Y-109656571D01*
X154582857Y-109704190D01*
X154201904Y-109704190D01*
X155725714Y-110180380D02*
X155154285Y-110180380D01*
X155440000Y-110180380D02*
X155440000Y-109180380D01*
X155344761Y-109323238D01*
X155249523Y-109418476D01*
X155154285Y-109466095D01*
X152344380Y-105068666D02*
X151868190Y-105402000D01*
X152344380Y-105640095D02*
X151344380Y-105640095D01*
X151344380Y-105259142D01*
X151392000Y-105163904D01*
X151439619Y-105116285D01*
X151534857Y-105068666D01*
X151677714Y-105068666D01*
X151772952Y-105116285D01*
X151820571Y-105163904D01*
X151868190Y-105259142D01*
X151868190Y-105640095D01*
X151439619Y-104687714D02*
X151392000Y-104640095D01*
X151344380Y-104544857D01*
X151344380Y-104306761D01*
X151392000Y-104211523D01*
X151439619Y-104163904D01*
X151534857Y-104116285D01*
X151630095Y-104116285D01*
X151772952Y-104163904D01*
X152344380Y-104735333D01*
X152344380Y-104116285D01*
X144470380Y-108624666D02*
X143994190Y-108958000D01*
X144470380Y-109196095D02*
X143470380Y-109196095D01*
X143470380Y-108815142D01*
X143518000Y-108719904D01*
X143565619Y-108672285D01*
X143660857Y-108624666D01*
X143803714Y-108624666D01*
X143898952Y-108672285D01*
X143946571Y-108719904D01*
X143994190Y-108815142D01*
X143994190Y-109196095D01*
X143470380Y-108291333D02*
X143470380Y-107672285D01*
X143851333Y-108005619D01*
X143851333Y-107862761D01*
X143898952Y-107767523D01*
X143946571Y-107719904D01*
X144041809Y-107672285D01*
X144279904Y-107672285D01*
X144375142Y-107719904D01*
X144422761Y-107767523D01*
X144470380Y-107862761D01*
X144470380Y-108148476D01*
X144422761Y-108243714D01*
X144375142Y-108291333D01*
X147828095Y-104862380D02*
X147828095Y-105671904D01*
X147875714Y-105767142D01*
X147923333Y-105814761D01*
X148018571Y-105862380D01*
X148209047Y-105862380D01*
X148304285Y-105814761D01*
X148351904Y-105767142D01*
X148399523Y-105671904D01*
X148399523Y-104862380D01*
X149399523Y-105862380D02*
X148828095Y-105862380D01*
X149113809Y-105862380D02*
X149113809Y-104862380D01*
X149018571Y-105005238D01*
X148923333Y-105100476D01*
X148828095Y-105148095D01*
X152638190Y-112212380D02*
X152638190Y-111212380D01*
X153114380Y-112212380D02*
X153114380Y-111212380D01*
X153685809Y-112212380D01*
X153685809Y-111212380D01*
X145050000Y-111212380D02*
X145240476Y-111212380D01*
X145335714Y-111260000D01*
X145430952Y-111355238D01*
X145478571Y-111545714D01*
X145478571Y-111879047D01*
X145430952Y-112069523D01*
X145335714Y-112164761D01*
X145240476Y-112212380D01*
X145050000Y-112212380D01*
X144954761Y-112164761D01*
X144859523Y-112069523D01*
X144811904Y-111879047D01*
X144811904Y-111545714D01*
X144859523Y-111355238D01*
X144954761Y-111260000D01*
X145050000Y-111212380D01*
X145907142Y-111212380D02*
X145907142Y-112021904D01*
X145954761Y-112117142D01*
X146002380Y-112164761D01*
X146097619Y-112212380D01*
X146288095Y-112212380D01*
X146383333Y-112164761D01*
X146430952Y-112117142D01*
X146478571Y-112021904D01*
X146478571Y-111212380D01*
X146811904Y-111212380D02*
X147383333Y-111212380D01*
X147097619Y-112212380D02*
X147097619Y-111212380D01*
X141636857Y-97861428D02*
X142398761Y-97861428D01*
X142017809Y-98242380D02*
X142017809Y-97480476D01*
X143351142Y-97242380D02*
X142874952Y-97242380D01*
X142827333Y-97718571D01*
X142874952Y-97670952D01*
X142970190Y-97623333D01*
X143208285Y-97623333D01*
X143303523Y-97670952D01*
X143351142Y-97718571D01*
X143398761Y-97813809D01*
X143398761Y-98051904D01*
X143351142Y-98147142D01*
X143303523Y-98194761D01*
X143208285Y-98242380D01*
X142970190Y-98242380D01*
X142874952Y-98194761D01*
X142827333Y-98147142D01*
X148494857Y-97607428D02*
X149256761Y-97607428D01*
X150209142Y-96988380D02*
X149732952Y-96988380D01*
X149685333Y-97464571D01*
X149732952Y-97416952D01*
X149828190Y-97369333D01*
X150066285Y-97369333D01*
X150161523Y-97416952D01*
X150209142Y-97464571D01*
X150256761Y-97559809D01*
X150256761Y-97797904D01*
X150209142Y-97893142D01*
X150161523Y-97940761D01*
X150066285Y-97988380D01*
X149828190Y-97988380D01*
X149732952Y-97940761D01*
X149685333Y-97893142D01*
X155448095Y-97036000D02*
X155352857Y-96988380D01*
X155210000Y-96988380D01*
X155067142Y-97036000D01*
X154971904Y-97131238D01*
X154924285Y-97226476D01*
X154876666Y-97416952D01*
X154876666Y-97559809D01*
X154924285Y-97750285D01*
X154971904Y-97845523D01*
X155067142Y-97940761D01*
X155210000Y-97988380D01*
X155305238Y-97988380D01*
X155448095Y-97940761D01*
X155495714Y-97893142D01*
X155495714Y-97559809D01*
X155305238Y-97559809D01*
X155924285Y-97988380D02*
X155924285Y-96988380D01*
X156495714Y-97988380D01*
X156495714Y-96988380D01*
X156971904Y-97988380D02*
X156971904Y-96988380D01*
X157210000Y-96988380D01*
X157352857Y-97036000D01*
X157448095Y-97131238D01*
X157495714Y-97226476D01*
X157543333Y-97416952D01*
X157543333Y-97559809D01*
X157495714Y-97750285D01*
X157448095Y-97845523D01*
X157352857Y-97940761D01*
X157210000Y-97988380D01*
X156971904Y-97988380D01*
M02*
