G04 #@! TF.FileFunction,Legend,Bot*
%FSLAX46Y46*%
G04 Gerber Fmt 4.6, Leading zero omitted, Abs format (unit mm)*
G04 Created by KiCad (PCBNEW 4.0.7) date 06/03/18 15:05:31*
%MOMM*%
%LPD*%
G01*
G04 APERTURE LIST*
%ADD10C,0.100000*%
%ADD11C,0.300000*%
G04 APERTURE END LIST*
D10*
D11*
X164198000Y-108385571D02*
X163626571Y-108385571D01*
X163983714Y-107885571D02*
X163983714Y-109171286D01*
X163912286Y-109314143D01*
X163769428Y-109385571D01*
X163626571Y-109385571D01*
X163126571Y-109385571D02*
X163126571Y-108385571D01*
X163126571Y-107885571D02*
X163198000Y-107957000D01*
X163126571Y-108028429D01*
X163055143Y-107957000D01*
X163126571Y-107885571D01*
X163126571Y-108028429D01*
X162412285Y-108385571D02*
X162412285Y-109385571D01*
X162412285Y-108528429D02*
X162340857Y-108457000D01*
X162197999Y-108385571D01*
X161983714Y-108385571D01*
X161840857Y-108457000D01*
X161769428Y-108599857D01*
X161769428Y-109385571D01*
X161055142Y-109385571D02*
X161055142Y-107885571D01*
X160912285Y-108814143D02*
X160483714Y-109385571D01*
X160483714Y-108385571D02*
X161055142Y-108957000D01*
X159269428Y-109314143D02*
X159412285Y-109385571D01*
X159697999Y-109385571D01*
X159840856Y-109314143D01*
X159912285Y-109171286D01*
X159912285Y-108599857D01*
X159840856Y-108457000D01*
X159697999Y-108385571D01*
X159412285Y-108385571D01*
X159269428Y-108457000D01*
X159197999Y-108599857D01*
X159197999Y-108742714D01*
X159912285Y-108885571D01*
X158555142Y-109385571D02*
X158555142Y-108385571D01*
X158555142Y-108671286D02*
X158483714Y-108528429D01*
X158412285Y-108457000D01*
X158269428Y-108385571D01*
X158126571Y-108385571D01*
X157626571Y-108385571D02*
X157626571Y-109885571D01*
X157626571Y-108457000D02*
X157483714Y-108385571D01*
X157198000Y-108385571D01*
X157055143Y-108457000D01*
X156983714Y-108528429D01*
X156912285Y-108671286D01*
X156912285Y-109099857D01*
X156983714Y-109242714D01*
X157055143Y-109314143D01*
X157198000Y-109385571D01*
X157483714Y-109385571D01*
X157626571Y-109314143D01*
X156055142Y-109385571D02*
X156198000Y-109314143D01*
X156269428Y-109171286D01*
X156269428Y-107885571D01*
X154840857Y-108385571D02*
X154840857Y-109385571D01*
X155483714Y-108385571D02*
X155483714Y-109171286D01*
X155412286Y-109314143D01*
X155269428Y-109385571D01*
X155055143Y-109385571D01*
X154912286Y-109314143D01*
X154840857Y-109242714D01*
X154126571Y-108385571D02*
X154126571Y-109385571D01*
X154126571Y-108528429D02*
X154055143Y-108457000D01*
X153912285Y-108385571D01*
X153698000Y-108385571D01*
X153555143Y-108457000D01*
X153483714Y-108599857D01*
X153483714Y-109385571D01*
X152769428Y-109385571D02*
X152769428Y-107885571D01*
X152626571Y-108814143D02*
X152198000Y-109385571D01*
X152198000Y-108385571D02*
X152769428Y-108957000D01*
X151555142Y-109242714D02*
X151483714Y-109314143D01*
X151555142Y-109385571D01*
X151626571Y-109314143D01*
X151555142Y-109242714D01*
X151555142Y-109385571D01*
X150197999Y-109314143D02*
X150340856Y-109385571D01*
X150626570Y-109385571D01*
X150769428Y-109314143D01*
X150840856Y-109242714D01*
X150912285Y-109099857D01*
X150912285Y-108671286D01*
X150840856Y-108528429D01*
X150769428Y-108457000D01*
X150626570Y-108385571D01*
X150340856Y-108385571D01*
X150197999Y-108457000D01*
X149340856Y-109385571D02*
X149483714Y-109314143D01*
X149555142Y-109242714D01*
X149626571Y-109099857D01*
X149626571Y-108671286D01*
X149555142Y-108528429D01*
X149483714Y-108457000D01*
X149340856Y-108385571D01*
X149126571Y-108385571D01*
X148983714Y-108457000D01*
X148912285Y-108528429D01*
X148840856Y-108671286D01*
X148840856Y-109099857D01*
X148912285Y-109242714D01*
X148983714Y-109314143D01*
X149126571Y-109385571D01*
X149340856Y-109385571D01*
X148197999Y-109385571D02*
X148197999Y-108385571D01*
X148197999Y-108528429D02*
X148126571Y-108457000D01*
X147983713Y-108385571D01*
X147769428Y-108385571D01*
X147626571Y-108457000D01*
X147555142Y-108599857D01*
X147555142Y-109385571D01*
X147555142Y-108599857D02*
X147483713Y-108457000D01*
X147340856Y-108385571D01*
X147126571Y-108385571D01*
X146983713Y-108457000D01*
X146912285Y-108599857D01*
X146912285Y-109385571D01*
X162055142Y-111792714D02*
X162126571Y-111864143D01*
X162340857Y-111935571D01*
X162483714Y-111935571D01*
X162697999Y-111864143D01*
X162840857Y-111721286D01*
X162912285Y-111578429D01*
X162983714Y-111292714D01*
X162983714Y-111078429D01*
X162912285Y-110792714D01*
X162840857Y-110649857D01*
X162697999Y-110507000D01*
X162483714Y-110435571D01*
X162340857Y-110435571D01*
X162126571Y-110507000D01*
X162055142Y-110578429D01*
X161197999Y-111935571D02*
X161340857Y-111864143D01*
X161412285Y-111792714D01*
X161483714Y-111649857D01*
X161483714Y-111221286D01*
X161412285Y-111078429D01*
X161340857Y-111007000D01*
X161197999Y-110935571D01*
X160983714Y-110935571D01*
X160840857Y-111007000D01*
X160769428Y-111078429D01*
X160697999Y-111221286D01*
X160697999Y-111649857D01*
X160769428Y-111792714D01*
X160840857Y-111864143D01*
X160983714Y-111935571D01*
X161197999Y-111935571D01*
X160055142Y-110935571D02*
X160055142Y-111935571D01*
X160055142Y-111078429D02*
X159983714Y-111007000D01*
X159840856Y-110935571D01*
X159626571Y-110935571D01*
X159483714Y-111007000D01*
X159412285Y-111149857D01*
X159412285Y-111935571D01*
X158769428Y-111864143D02*
X158626571Y-111935571D01*
X158340856Y-111935571D01*
X158197999Y-111864143D01*
X158126571Y-111721286D01*
X158126571Y-111649857D01*
X158197999Y-111507000D01*
X158340856Y-111435571D01*
X158555142Y-111435571D01*
X158697999Y-111364143D01*
X158769428Y-111221286D01*
X158769428Y-111149857D01*
X158697999Y-111007000D01*
X158555142Y-110935571D01*
X158340856Y-110935571D01*
X158197999Y-111007000D01*
X157269427Y-111935571D02*
X157412285Y-111864143D01*
X157483713Y-111792714D01*
X157555142Y-111649857D01*
X157555142Y-111221286D01*
X157483713Y-111078429D01*
X157412285Y-111007000D01*
X157269427Y-110935571D01*
X157055142Y-110935571D01*
X156912285Y-111007000D01*
X156840856Y-111078429D01*
X156769427Y-111221286D01*
X156769427Y-111649857D01*
X156840856Y-111792714D01*
X156912285Y-111864143D01*
X157055142Y-111935571D01*
X157269427Y-111935571D01*
X155912284Y-111935571D02*
X156055142Y-111864143D01*
X156126570Y-111721286D01*
X156126570Y-110435571D01*
X154769428Y-111864143D02*
X154912285Y-111935571D01*
X155197999Y-111935571D01*
X155340856Y-111864143D01*
X155412285Y-111721286D01*
X155412285Y-111149857D01*
X155340856Y-111007000D01*
X155197999Y-110935571D01*
X154912285Y-110935571D01*
X154769428Y-111007000D01*
X154697999Y-111149857D01*
X154697999Y-111292714D01*
X155412285Y-111435571D01*
X153340856Y-110435571D02*
X154055142Y-110435571D01*
X154126571Y-111149857D01*
X154055142Y-111078429D01*
X153912285Y-111007000D01*
X153555142Y-111007000D01*
X153412285Y-111078429D01*
X153340856Y-111149857D01*
X153269428Y-111292714D01*
X153269428Y-111649857D01*
X153340856Y-111792714D01*
X153412285Y-111864143D01*
X153555142Y-111935571D01*
X153912285Y-111935571D01*
X154055142Y-111864143D01*
X154126571Y-111792714D01*
X152626571Y-111792714D02*
X152555143Y-111864143D01*
X152626571Y-111935571D01*
X152698000Y-111864143D01*
X152626571Y-111792714D01*
X152626571Y-111935571D01*
X151269428Y-111864143D02*
X151412285Y-111935571D01*
X151697999Y-111935571D01*
X151840857Y-111864143D01*
X151912285Y-111792714D01*
X151983714Y-111649857D01*
X151983714Y-111221286D01*
X151912285Y-111078429D01*
X151840857Y-111007000D01*
X151697999Y-110935571D01*
X151412285Y-110935571D01*
X151269428Y-111007000D01*
X150412285Y-111935571D02*
X150555143Y-111864143D01*
X150626571Y-111792714D01*
X150698000Y-111649857D01*
X150698000Y-111221286D01*
X150626571Y-111078429D01*
X150555143Y-111007000D01*
X150412285Y-110935571D01*
X150198000Y-110935571D01*
X150055143Y-111007000D01*
X149983714Y-111078429D01*
X149912285Y-111221286D01*
X149912285Y-111649857D01*
X149983714Y-111792714D01*
X150055143Y-111864143D01*
X150198000Y-111935571D01*
X150412285Y-111935571D01*
X149269428Y-111935571D02*
X149269428Y-110935571D01*
X149269428Y-111078429D02*
X149198000Y-111007000D01*
X149055142Y-110935571D01*
X148840857Y-110935571D01*
X148698000Y-111007000D01*
X148626571Y-111149857D01*
X148626571Y-111935571D01*
X148626571Y-111149857D02*
X148555142Y-111007000D01*
X148412285Y-110935571D01*
X148198000Y-110935571D01*
X148055142Y-111007000D01*
X147983714Y-111149857D01*
X147983714Y-111935571D01*
M02*
