M48
;DRILL file {KiCad 4.0.7} date 06/03/18 15:04:58
;FORMAT={-:-/ absolute / inch / decimal}
FMAT,2
INCH,TZ
T1C0.016
T2C0.031
T3C0.039
%
G90
G05
M72
T1
X5.76Y-4.45
X5.94Y-4.75
X6.12Y-4.32
X6.26Y-4.82
X6.28Y-4.54
T2
X5.74Y-3.96
X5.74Y-4.56
X5.9Y-4.15
X5.9Y-4.55
X6.Y-4.15
X6.Y-4.55
X6.1Y-4.15
X6.1Y-4.55
X6.2Y-4.15
X6.2Y-4.55
X6.36Y-3.96
X6.36Y-4.56
X6.49Y-3.96
X6.49Y-4.56
T3
X5.95Y-3.96
X6.1469Y-3.96
X6.42Y-4.74
X6.42Y-4.9369
T0
M30
