G04 #@! TF.FileFunction,Legend,Top*
%FSLAX46Y46*%
G04 Gerber Fmt 4.6, Leading zero omitted, Abs format (unit mm)*
G04 Created by KiCad (PCBNEW 4.0.7) date 06/03/18 15:05:31*
%MOMM*%
%LPD*%
G01*
G04 APERTURE LIST*
%ADD10C,0.100000*%
%ADD11C,0.200000*%
%ADD12C,0.120000*%
%ADD13C,0.150000*%
G04 APERTURE END LIST*
D10*
D11*
X152400000Y-94234000D02*
X151892000Y-94742000D01*
X152400000Y-94234000D02*
X151892000Y-93726000D01*
X151384000Y-94234000D02*
X152400000Y-94234000D01*
X151384000Y-96266000D02*
X151384000Y-94234000D01*
D12*
X148530000Y-109490000D02*
G75*
G02X148530000Y-111490000I0J-1000000D01*
G01*
X148530000Y-111490000D02*
X148530000Y-113725000D01*
X148530000Y-113725000D02*
X158810000Y-113725000D01*
X158810000Y-113725000D02*
X158810000Y-107255000D01*
X158810000Y-107255000D02*
X148530000Y-107255000D01*
X148530000Y-107255000D02*
X148530000Y-109490000D01*
X148320000Y-98024000D02*
X158940000Y-98024000D01*
X148320000Y-103144000D02*
X158940000Y-103144000D01*
X148320000Y-98024000D02*
X148320000Y-103144000D01*
X158940000Y-98024000D02*
X158940000Y-103144000D01*
X165628000Y-117586000D02*
X165628000Y-128206000D01*
X160508000Y-117586000D02*
X160508000Y-128206000D01*
X165628000Y-117586000D02*
X160508000Y-117586000D01*
X165628000Y-128206000D02*
X160508000Y-128206000D01*
X160234000Y-111414000D02*
X162854000Y-111414000D01*
X162854000Y-111414000D02*
X162854000Y-104994000D01*
X162854000Y-104994000D02*
X160234000Y-104994000D01*
X160234000Y-104994000D02*
X160234000Y-111414000D01*
X161544000Y-114844000D02*
X161544000Y-111414000D01*
X161544000Y-101564000D02*
X161544000Y-104994000D01*
X163536000Y-111414000D02*
X166156000Y-111414000D01*
X166156000Y-111414000D02*
X166156000Y-104994000D01*
X166156000Y-104994000D02*
X163536000Y-104994000D01*
X163536000Y-104994000D02*
X163536000Y-111414000D01*
X164846000Y-114844000D02*
X164846000Y-111414000D01*
X164846000Y-101564000D02*
X164846000Y-104994000D01*
X144486000Y-111414000D02*
X147106000Y-111414000D01*
X147106000Y-111414000D02*
X147106000Y-104994000D01*
X147106000Y-104994000D02*
X144486000Y-104994000D01*
X144486000Y-104994000D02*
X144486000Y-111414000D01*
X145796000Y-114844000D02*
X145796000Y-111414000D01*
X145796000Y-101564000D02*
X145796000Y-104994000D01*
D13*
X153122381Y-112609048D02*
X153122381Y-112037619D01*
X154122381Y-112323334D02*
X153122381Y-112323334D01*
X154122381Y-111228095D02*
X154122381Y-111704286D01*
X153122381Y-111704286D01*
X153122381Y-110704286D02*
X153122381Y-110609047D01*
X153170000Y-110513809D01*
X153217619Y-110466190D01*
X153312857Y-110418571D01*
X153503333Y-110370952D01*
X153741429Y-110370952D01*
X153931905Y-110418571D01*
X154027143Y-110466190D01*
X154074762Y-110513809D01*
X154122381Y-110609047D01*
X154122381Y-110704286D01*
X154074762Y-110799524D01*
X154027143Y-110847143D01*
X153931905Y-110894762D01*
X153741429Y-110942381D01*
X153503333Y-110942381D01*
X153312857Y-110894762D01*
X153217619Y-110847143D01*
X153170000Y-110799524D01*
X153122381Y-110704286D01*
X153550952Y-109799524D02*
X153503333Y-109894762D01*
X153455714Y-109942381D01*
X153360476Y-109990000D01*
X153312857Y-109990000D01*
X153217619Y-109942381D01*
X153170000Y-109894762D01*
X153122381Y-109799524D01*
X153122381Y-109609047D01*
X153170000Y-109513809D01*
X153217619Y-109466190D01*
X153312857Y-109418571D01*
X153360476Y-109418571D01*
X153455714Y-109466190D01*
X153503333Y-109513809D01*
X153550952Y-109609047D01*
X153550952Y-109799524D01*
X153598571Y-109894762D01*
X153646190Y-109942381D01*
X153741429Y-109990000D01*
X153931905Y-109990000D01*
X154027143Y-109942381D01*
X154074762Y-109894762D01*
X154122381Y-109799524D01*
X154122381Y-109609047D01*
X154074762Y-109513809D01*
X154027143Y-109466190D01*
X153931905Y-109418571D01*
X153741429Y-109418571D01*
X153646190Y-109466190D01*
X153598571Y-109513809D01*
X153550952Y-109609047D01*
X153217619Y-109037619D02*
X153170000Y-108990000D01*
X153122381Y-108894762D01*
X153122381Y-108656666D01*
X153170000Y-108561428D01*
X153217619Y-108513809D01*
X153312857Y-108466190D01*
X153408095Y-108466190D01*
X153550952Y-108513809D01*
X154122381Y-109085238D01*
X154122381Y-108466190D01*
X153122381Y-102679238D02*
X153122381Y-102583999D01*
X153170000Y-102488761D01*
X153217619Y-102441142D01*
X153312857Y-102393523D01*
X153503333Y-102345904D01*
X153741429Y-102345904D01*
X153931905Y-102393523D01*
X154027143Y-102441142D01*
X154074762Y-102488761D01*
X154122381Y-102583999D01*
X154122381Y-102679238D01*
X154074762Y-102774476D01*
X154027143Y-102822095D01*
X153931905Y-102869714D01*
X153741429Y-102917333D01*
X153503333Y-102917333D01*
X153312857Y-102869714D01*
X153217619Y-102822095D01*
X153170000Y-102774476D01*
X153122381Y-102679238D01*
X154027143Y-101917333D02*
X154074762Y-101869714D01*
X154122381Y-101917333D01*
X154074762Y-101964952D01*
X154027143Y-101917333D01*
X154122381Y-101917333D01*
X154122381Y-100917333D02*
X154122381Y-101488762D01*
X154122381Y-101203048D02*
X153122381Y-101203048D01*
X153265238Y-101298286D01*
X153360476Y-101393524D01*
X153408095Y-101488762D01*
X153455714Y-99726857D02*
X154455714Y-99726857D01*
X153979524Y-99250666D02*
X154074762Y-99203047D01*
X154122381Y-99107809D01*
X153979524Y-99726857D02*
X154074762Y-99679238D01*
X154122381Y-99584000D01*
X154122381Y-99393523D01*
X154074762Y-99298285D01*
X153979524Y-99250666D01*
X153455714Y-99250666D01*
X153598571Y-98345904D02*
X153598571Y-98679238D01*
X154122381Y-98679238D02*
X153122381Y-98679238D01*
X153122381Y-98203047D01*
X161353714Y-122134381D02*
X161448953Y-122134381D01*
X161544191Y-122182000D01*
X161591810Y-122229619D01*
X161639429Y-122324857D01*
X161687048Y-122515333D01*
X161687048Y-122753429D01*
X161639429Y-122943905D01*
X161591810Y-123039143D01*
X161544191Y-123086762D01*
X161448953Y-123134381D01*
X161353714Y-123134381D01*
X161258476Y-123086762D01*
X161210857Y-123039143D01*
X161163238Y-122943905D01*
X161115619Y-122753429D01*
X161115619Y-122515333D01*
X161163238Y-122324857D01*
X161210857Y-122229619D01*
X161258476Y-122182000D01*
X161353714Y-122134381D01*
X162115619Y-123039143D02*
X162163238Y-123086762D01*
X162115619Y-123134381D01*
X162068000Y-123086762D01*
X162115619Y-123039143D01*
X162115619Y-123134381D01*
X163115619Y-123134381D02*
X162544190Y-123134381D01*
X162829904Y-123134381D02*
X162829904Y-122134381D01*
X162734666Y-122277238D01*
X162639428Y-122372476D01*
X162544190Y-122420095D01*
X163544190Y-122467714D02*
X163544190Y-123467714D01*
X164020381Y-122991524D02*
X164068000Y-123086762D01*
X164163238Y-123134381D01*
X163544190Y-122991524D02*
X163591809Y-123086762D01*
X163687047Y-123134381D01*
X163877524Y-123134381D01*
X163972762Y-123086762D01*
X164020381Y-122991524D01*
X164020381Y-122467714D01*
X164925143Y-122610571D02*
X164591809Y-122610571D01*
X164591809Y-123134381D02*
X164591809Y-122134381D01*
X165068000Y-122134381D01*
X158694381Y-124729809D02*
X157694381Y-124729809D01*
X158694381Y-124253619D02*
X157694381Y-124253619D01*
X158694381Y-123682190D01*
X157694381Y-123682190D01*
X149820381Y-124698000D02*
X149820381Y-124507523D01*
X149868000Y-124412285D01*
X149963238Y-124317047D01*
X150153714Y-124269428D01*
X150487048Y-124269428D01*
X150677524Y-124317047D01*
X150772762Y-124412285D01*
X150820381Y-124507523D01*
X150820381Y-124698000D01*
X150772762Y-124793238D01*
X150677524Y-124888476D01*
X150487048Y-124936095D01*
X150153714Y-124936095D01*
X149963238Y-124888476D01*
X149868000Y-124793238D01*
X149820381Y-124698000D01*
X149820381Y-123840857D02*
X150629905Y-123840857D01*
X150725143Y-123793238D01*
X150772762Y-123745619D01*
X150820381Y-123650381D01*
X150820381Y-123459904D01*
X150772762Y-123364666D01*
X150725143Y-123317047D01*
X150629905Y-123269428D01*
X149820381Y-123269428D01*
X149820381Y-122936095D02*
X149820381Y-122364666D01*
X150820381Y-122650381D02*
X149820381Y-122650381D01*
X145954857Y-98369429D02*
X146716762Y-98369429D01*
X146335810Y-98750381D02*
X146335810Y-97988476D01*
X147669143Y-97750381D02*
X147192952Y-97750381D01*
X147145333Y-98226571D01*
X147192952Y-98178952D01*
X147288190Y-98131333D01*
X147526286Y-98131333D01*
X147621524Y-98178952D01*
X147669143Y-98226571D01*
X147716762Y-98321810D01*
X147716762Y-98559905D01*
X147669143Y-98655143D01*
X147621524Y-98702762D01*
X147526286Y-98750381D01*
X147288190Y-98750381D01*
X147192952Y-98702762D01*
X147145333Y-98655143D01*
X162464857Y-98369429D02*
X163226762Y-98369429D01*
X164179143Y-97750381D02*
X163702952Y-97750381D01*
X163655333Y-98226571D01*
X163702952Y-98178952D01*
X163798190Y-98131333D01*
X164036286Y-98131333D01*
X164131524Y-98178952D01*
X164179143Y-98226571D01*
X164226762Y-98321810D01*
X164226762Y-98559905D01*
X164179143Y-98655143D01*
X164131524Y-98702762D01*
X164036286Y-98750381D01*
X163798190Y-98750381D01*
X163702952Y-98702762D01*
X163655333Y-98655143D01*
X150622096Y-96528000D02*
X150526858Y-96480381D01*
X150384001Y-96480381D01*
X150241143Y-96528000D01*
X150145905Y-96623238D01*
X150098286Y-96718476D01*
X150050667Y-96908952D01*
X150050667Y-97051810D01*
X150098286Y-97242286D01*
X150145905Y-97337524D01*
X150241143Y-97432762D01*
X150384001Y-97480381D01*
X150479239Y-97480381D01*
X150622096Y-97432762D01*
X150669715Y-97385143D01*
X150669715Y-97051810D01*
X150479239Y-97051810D01*
X151098286Y-97480381D02*
X151098286Y-96480381D01*
X151669715Y-97480381D01*
X151669715Y-96480381D01*
X152145905Y-97480381D02*
X152145905Y-96480381D01*
X152384000Y-96480381D01*
X152526858Y-96528000D01*
X152622096Y-96623238D01*
X152669715Y-96718476D01*
X152717334Y-96908952D01*
X152717334Y-97051810D01*
X152669715Y-97242286D01*
X152622096Y-97337524D01*
X152526858Y-97432762D01*
X152384000Y-97480381D01*
X152145905Y-97480381D01*
X161996381Y-110227809D02*
X161996381Y-110799238D01*
X161996381Y-110513524D02*
X160996381Y-110513524D01*
X161139238Y-110608762D01*
X161234476Y-110704000D01*
X161282095Y-110799238D01*
X160996381Y-109608762D02*
X160996381Y-109513523D01*
X161044000Y-109418285D01*
X161091619Y-109370666D01*
X161186857Y-109323047D01*
X161377333Y-109275428D01*
X161615429Y-109275428D01*
X161805905Y-109323047D01*
X161901143Y-109370666D01*
X161948762Y-109418285D01*
X161996381Y-109513523D01*
X161996381Y-109608762D01*
X161948762Y-109704000D01*
X161901143Y-109751619D01*
X161805905Y-109799238D01*
X161615429Y-109846857D01*
X161377333Y-109846857D01*
X161186857Y-109799238D01*
X161091619Y-109751619D01*
X161044000Y-109704000D01*
X160996381Y-109608762D01*
X160996381Y-108656381D02*
X160996381Y-108561142D01*
X161044000Y-108465904D01*
X161091619Y-108418285D01*
X161186857Y-108370666D01*
X161377333Y-108323047D01*
X161615429Y-108323047D01*
X161805905Y-108370666D01*
X161901143Y-108418285D01*
X161948762Y-108465904D01*
X161996381Y-108561142D01*
X161996381Y-108656381D01*
X161948762Y-108751619D01*
X161901143Y-108799238D01*
X161805905Y-108846857D01*
X161615429Y-108894476D01*
X161377333Y-108894476D01*
X161186857Y-108846857D01*
X161091619Y-108799238D01*
X161044000Y-108751619D01*
X160996381Y-108656381D01*
X161996381Y-107132571D02*
X160996381Y-107132571D01*
X161615429Y-107037333D02*
X161996381Y-106751618D01*
X161329714Y-106751618D02*
X161710667Y-107132571D01*
X161996381Y-106370666D02*
X161996381Y-106132571D01*
X161805905Y-106132571D01*
X161758286Y-106227809D01*
X161663048Y-106323047D01*
X161520190Y-106370666D01*
X161282095Y-106370666D01*
X161139238Y-106323047D01*
X161044000Y-106227809D01*
X160996381Y-106084952D01*
X160996381Y-105894475D01*
X161044000Y-105751618D01*
X161139238Y-105656380D01*
X161282095Y-105608761D01*
X161520190Y-105608761D01*
X161663048Y-105656380D01*
X161758286Y-105751618D01*
X161805905Y-105846856D01*
X161996381Y-105846856D01*
X161996381Y-105608761D01*
X164393619Y-110799238D02*
X164346000Y-110751619D01*
X164298381Y-110656381D01*
X164298381Y-110418285D01*
X164346000Y-110323047D01*
X164393619Y-110275428D01*
X164488857Y-110227809D01*
X164584095Y-110227809D01*
X164726952Y-110275428D01*
X165298381Y-110846857D01*
X165298381Y-110227809D01*
X164298381Y-109608762D02*
X164298381Y-109513523D01*
X164346000Y-109418285D01*
X164393619Y-109370666D01*
X164488857Y-109323047D01*
X164679333Y-109275428D01*
X164917429Y-109275428D01*
X165107905Y-109323047D01*
X165203143Y-109370666D01*
X165250762Y-109418285D01*
X165298381Y-109513523D01*
X165298381Y-109608762D01*
X165250762Y-109704000D01*
X165203143Y-109751619D01*
X165107905Y-109799238D01*
X164917429Y-109846857D01*
X164679333Y-109846857D01*
X164488857Y-109799238D01*
X164393619Y-109751619D01*
X164346000Y-109704000D01*
X164298381Y-109608762D01*
X164298381Y-108656381D02*
X164298381Y-108561142D01*
X164346000Y-108465904D01*
X164393619Y-108418285D01*
X164488857Y-108370666D01*
X164679333Y-108323047D01*
X164917429Y-108323047D01*
X165107905Y-108370666D01*
X165203143Y-108418285D01*
X165250762Y-108465904D01*
X165298381Y-108561142D01*
X165298381Y-108656381D01*
X165250762Y-108751619D01*
X165203143Y-108799238D01*
X165107905Y-108846857D01*
X164917429Y-108894476D01*
X164679333Y-108894476D01*
X164488857Y-108846857D01*
X164393619Y-108799238D01*
X164346000Y-108751619D01*
X164298381Y-108656381D01*
X165298381Y-107132571D02*
X164298381Y-107132571D01*
X164917429Y-107037333D02*
X165298381Y-106751618D01*
X164631714Y-106751618D02*
X165012667Y-107132571D01*
X165298381Y-106370666D02*
X165298381Y-106132571D01*
X165107905Y-106132571D01*
X165060286Y-106227809D01*
X164965048Y-106323047D01*
X164822190Y-106370666D01*
X164584095Y-106370666D01*
X164441238Y-106323047D01*
X164346000Y-106227809D01*
X164298381Y-106084952D01*
X164298381Y-105894475D01*
X164346000Y-105751618D01*
X164441238Y-105656380D01*
X164584095Y-105608761D01*
X164822190Y-105608761D01*
X164965048Y-105656380D01*
X165060286Y-105751618D01*
X165107905Y-105846856D01*
X165298381Y-105846856D01*
X165298381Y-105608761D01*
X145248381Y-110370667D02*
X145248381Y-109751619D01*
X145629333Y-110084953D01*
X145629333Y-109942095D01*
X145676952Y-109846857D01*
X145724571Y-109799238D01*
X145819810Y-109751619D01*
X146057905Y-109751619D01*
X146153143Y-109799238D01*
X146200762Y-109846857D01*
X146248381Y-109942095D01*
X146248381Y-110227810D01*
X146200762Y-110323048D01*
X146153143Y-110370667D01*
X145248381Y-109418286D02*
X145248381Y-108799238D01*
X145629333Y-109132572D01*
X145629333Y-108989714D01*
X145676952Y-108894476D01*
X145724571Y-108846857D01*
X145819810Y-108799238D01*
X146057905Y-108799238D01*
X146153143Y-108846857D01*
X146200762Y-108894476D01*
X146248381Y-108989714D01*
X146248381Y-109275429D01*
X146200762Y-109370667D01*
X146153143Y-109418286D01*
X146248381Y-107608762D02*
X145248381Y-107608762D01*
X145867429Y-107513524D02*
X146248381Y-107227809D01*
X145581714Y-107227809D02*
X145962667Y-107608762D01*
X146248381Y-106846857D02*
X146248381Y-106608762D01*
X146057905Y-106608762D01*
X146010286Y-106704000D01*
X145915048Y-106799238D01*
X145772190Y-106846857D01*
X145534095Y-106846857D01*
X145391238Y-106799238D01*
X145296000Y-106704000D01*
X145248381Y-106561143D01*
X145248381Y-106370666D01*
X145296000Y-106227809D01*
X145391238Y-106132571D01*
X145534095Y-106084952D01*
X145772190Y-106084952D01*
X145915048Y-106132571D01*
X146010286Y-106227809D01*
X146057905Y-106323047D01*
X146248381Y-106323047D01*
X146248381Y-106084952D01*
M02*
