G04 #@! TF.FileFunction,Copper,L1,Top,Signal*
%FSLAX46Y46*%
G04 Gerber Fmt 4.6, Leading zero omitted, Abs format (unit mm)*
G04 Created by KiCad (PCBNEW 4.0.7) date 06/03/18 15:05:31*
%MOMM*%
%LPD*%
G01*
G04 APERTURE LIST*
%ADD10C,0.100000*%
%ADD11R,1.600000X1.600000*%
%ADD12O,1.600000X1.600000*%
%ADD13C,2.000000*%
%ADD14R,5.000000X10.000000*%
%ADD15C,1.600000*%
%ADD16C,0.600000*%
%ADD17C,0.250000*%
%ADD18C,0.254000*%
G04 APERTURE END LIST*
D10*
D11*
X149860000Y-115570000D03*
D12*
X157480000Y-105410000D03*
X152400000Y-115570000D03*
X154940000Y-105410000D03*
X154940000Y-115570000D03*
X152400000Y-105410000D03*
X157480000Y-115570000D03*
X149860000Y-105410000D03*
D13*
X151130000Y-100584000D03*
X156130000Y-100584000D03*
X163068000Y-120396000D03*
X163068000Y-125396000D03*
D14*
X154686000Y-123190000D03*
X146812000Y-123190000D03*
X147066000Y-92202000D03*
X163830000Y-92202000D03*
X155448000Y-92456000D03*
D15*
X161544000Y-115824000D03*
D12*
X161544000Y-100584000D03*
D15*
X164846000Y-115824000D03*
D12*
X164846000Y-100584000D03*
D15*
X145796000Y-115824000D03*
D12*
X145796000Y-100584000D03*
D16*
X159004000Y-122428000D03*
X159512000Y-115316000D03*
X146304000Y-113030000D03*
X150876000Y-120650000D03*
X155448000Y-109728000D03*
D17*
X151130000Y-100584000D02*
X151130000Y-96266000D01*
X151130000Y-96266000D02*
X147066000Y-92202000D01*
X151130000Y-100584000D02*
X151130000Y-104140000D01*
X151130000Y-104140000D02*
X149860000Y-105410000D01*
X163830000Y-92202000D02*
X163830000Y-95504000D01*
X163830000Y-95504000D02*
X159512000Y-99822000D01*
X159512000Y-99822000D02*
X159512000Y-113538000D01*
X159512000Y-113538000D02*
X157480000Y-115570000D01*
X163068000Y-120396000D02*
X162306000Y-120396000D01*
X162306000Y-120396000D02*
X157480000Y-115570000D01*
X145796000Y-100584000D02*
X145796000Y-108966000D01*
X145796000Y-108966000D02*
X152400000Y-115570000D01*
X154686000Y-123190000D02*
X154686000Y-117856000D01*
X154686000Y-117856000D02*
X152400000Y-115570000D01*
X149860000Y-115570000D02*
X146050000Y-115570000D01*
X146050000Y-115570000D02*
X145796000Y-115824000D01*
X145796000Y-115824000D02*
X145796000Y-122174000D01*
X145796000Y-122174000D02*
X146812000Y-123190000D01*
D18*
G36*
X148412560Y-116370000D02*
X148456838Y-116605317D01*
X148595910Y-116821441D01*
X148808110Y-116966431D01*
X149060000Y-117017440D01*
X150660000Y-117017440D01*
X150895317Y-116973162D01*
X151111441Y-116834090D01*
X151256431Y-116621890D01*
X151287815Y-116466911D01*
X151385302Y-116612811D01*
X151850849Y-116923880D01*
X152400000Y-117033113D01*
X152723886Y-116968688D01*
X153297758Y-117542560D01*
X152186000Y-117542560D01*
X151950683Y-117586838D01*
X151734559Y-117725910D01*
X151589569Y-117938110D01*
X151538560Y-118190000D01*
X151538560Y-127814000D01*
X149959440Y-127814000D01*
X149959440Y-118190000D01*
X149915162Y-117954683D01*
X149776090Y-117738559D01*
X149563890Y-117593569D01*
X149312000Y-117542560D01*
X146556000Y-117542560D01*
X146556000Y-117062646D01*
X146607800Y-117041243D01*
X147011824Y-116637923D01*
X147139685Y-116330000D01*
X148412560Y-116330000D01*
X148412560Y-116370000D01*
X148412560Y-116370000D01*
G37*
X148412560Y-116370000D02*
X148456838Y-116605317D01*
X148595910Y-116821441D01*
X148808110Y-116966431D01*
X149060000Y-117017440D01*
X150660000Y-117017440D01*
X150895317Y-116973162D01*
X151111441Y-116834090D01*
X151256431Y-116621890D01*
X151287815Y-116466911D01*
X151385302Y-116612811D01*
X151850849Y-116923880D01*
X152400000Y-117033113D01*
X152723886Y-116968688D01*
X153297758Y-117542560D01*
X152186000Y-117542560D01*
X151950683Y-117586838D01*
X151734559Y-117725910D01*
X151589569Y-117938110D01*
X151538560Y-118190000D01*
X151538560Y-127814000D01*
X149959440Y-127814000D01*
X149959440Y-118190000D01*
X149915162Y-117954683D01*
X149776090Y-117738559D01*
X149563890Y-117593569D01*
X149312000Y-117542560D01*
X146556000Y-117542560D01*
X146556000Y-117062646D01*
X146607800Y-117041243D01*
X147011824Y-116637923D01*
X147139685Y-116330000D01*
X148412560Y-116330000D01*
X148412560Y-116370000D01*
G36*
X165914000Y-99652420D02*
X165583423Y-99352959D01*
X165195039Y-99192096D01*
X164973000Y-99314085D01*
X164973000Y-100457000D01*
X164993000Y-100457000D01*
X164993000Y-100711000D01*
X164973000Y-100711000D01*
X164973000Y-101853915D01*
X165195039Y-101975904D01*
X165583423Y-101815041D01*
X165914000Y-101515580D01*
X165914000Y-114862696D01*
X165659923Y-114608176D01*
X165132691Y-114389250D01*
X164561813Y-114388752D01*
X164034200Y-114606757D01*
X163630176Y-115010077D01*
X163411250Y-115537309D01*
X163410752Y-116108187D01*
X163628757Y-116635800D01*
X164032077Y-117039824D01*
X164559309Y-117258750D01*
X165130187Y-117259248D01*
X165657800Y-117041243D01*
X165914000Y-116785489D01*
X165914000Y-127814000D01*
X157833440Y-127814000D01*
X157833440Y-126548532D01*
X162095073Y-126548532D01*
X162193736Y-126815387D01*
X162803461Y-127041908D01*
X163453460Y-127017856D01*
X163942264Y-126815387D01*
X164040927Y-126548532D01*
X163068000Y-125575605D01*
X162095073Y-126548532D01*
X157833440Y-126548532D01*
X157833440Y-125131461D01*
X161422092Y-125131461D01*
X161446144Y-125781460D01*
X161648613Y-126270264D01*
X161915468Y-126368927D01*
X162888395Y-125396000D01*
X163247605Y-125396000D01*
X164220532Y-126368927D01*
X164487387Y-126270264D01*
X164713908Y-125660539D01*
X164689856Y-125010540D01*
X164487387Y-124521736D01*
X164220532Y-124423073D01*
X163247605Y-125396000D01*
X162888395Y-125396000D01*
X161915468Y-124423073D01*
X161648613Y-124521736D01*
X161422092Y-125131461D01*
X157833440Y-125131461D01*
X157833440Y-124243468D01*
X162095073Y-124243468D01*
X163068000Y-125216395D01*
X164040927Y-124243468D01*
X163942264Y-123976613D01*
X163332539Y-123750092D01*
X162682540Y-123774144D01*
X162193736Y-123976613D01*
X162095073Y-124243468D01*
X157833440Y-124243468D01*
X157833440Y-118190000D01*
X157789162Y-117954683D01*
X157650090Y-117738559D01*
X157437890Y-117593569D01*
X157186000Y-117542560D01*
X155373047Y-117542560D01*
X155223401Y-117318599D01*
X154937397Y-117032595D01*
X154940000Y-117033113D01*
X155489151Y-116923880D01*
X155954698Y-116612811D01*
X156210000Y-116230725D01*
X156465302Y-116612811D01*
X156930849Y-116923880D01*
X157480000Y-117033113D01*
X157803886Y-116968688D01*
X161432823Y-120597625D01*
X161432716Y-120719795D01*
X161681106Y-121320943D01*
X162140637Y-121781278D01*
X162741352Y-122030716D01*
X163391795Y-122031284D01*
X163992943Y-121782894D01*
X164453278Y-121323363D01*
X164702716Y-120722648D01*
X164703284Y-120072205D01*
X164454894Y-119471057D01*
X163995363Y-119010722D01*
X163394648Y-118761284D01*
X162744205Y-118760716D01*
X162143057Y-119009106D01*
X162068417Y-119083615D01*
X159092989Y-116108187D01*
X160108752Y-116108187D01*
X160326757Y-116635800D01*
X160730077Y-117039824D01*
X161257309Y-117258750D01*
X161828187Y-117259248D01*
X162355800Y-117041243D01*
X162759824Y-116637923D01*
X162978750Y-116110691D01*
X162979248Y-115539813D01*
X162761243Y-115012200D01*
X162357923Y-114608176D01*
X161830691Y-114389250D01*
X161259813Y-114388752D01*
X160732200Y-114606757D01*
X160328176Y-115010077D01*
X160109250Y-115537309D01*
X160108752Y-116108187D01*
X159092989Y-116108187D01*
X158859904Y-115875102D01*
X158915000Y-115598113D01*
X158915000Y-115541887D01*
X158859904Y-115264898D01*
X160049401Y-114075401D01*
X160214148Y-113828839D01*
X160272000Y-113538000D01*
X160272000Y-101186408D01*
X160391611Y-101439134D01*
X160806577Y-101815041D01*
X161194961Y-101975904D01*
X161417000Y-101853915D01*
X161417000Y-100711000D01*
X161671000Y-100711000D01*
X161671000Y-101853915D01*
X161893039Y-101975904D01*
X162281423Y-101815041D01*
X162696389Y-101439134D01*
X162935914Y-100933041D01*
X163454086Y-100933041D01*
X163693611Y-101439134D01*
X164108577Y-101815041D01*
X164496961Y-101975904D01*
X164719000Y-101853915D01*
X164719000Y-100711000D01*
X163575371Y-100711000D01*
X163454086Y-100933041D01*
X162935914Y-100933041D01*
X162814629Y-100711000D01*
X161671000Y-100711000D01*
X161417000Y-100711000D01*
X161397000Y-100711000D01*
X161397000Y-100457000D01*
X161417000Y-100457000D01*
X161417000Y-99314085D01*
X161671000Y-99314085D01*
X161671000Y-100457000D01*
X162814629Y-100457000D01*
X162935914Y-100234959D01*
X163454086Y-100234959D01*
X163575371Y-100457000D01*
X164719000Y-100457000D01*
X164719000Y-99314085D01*
X164496961Y-99192096D01*
X164108577Y-99352959D01*
X163693611Y-99728866D01*
X163454086Y-100234959D01*
X162935914Y-100234959D01*
X162696389Y-99728866D01*
X162281423Y-99352959D01*
X161893039Y-99192096D01*
X161671000Y-99314085D01*
X161417000Y-99314085D01*
X161208995Y-99199807D01*
X162559362Y-97849440D01*
X165914000Y-97849440D01*
X165914000Y-99652420D01*
X165914000Y-99652420D01*
G37*
X165914000Y-99652420D02*
X165583423Y-99352959D01*
X165195039Y-99192096D01*
X164973000Y-99314085D01*
X164973000Y-100457000D01*
X164993000Y-100457000D01*
X164993000Y-100711000D01*
X164973000Y-100711000D01*
X164973000Y-101853915D01*
X165195039Y-101975904D01*
X165583423Y-101815041D01*
X165914000Y-101515580D01*
X165914000Y-114862696D01*
X165659923Y-114608176D01*
X165132691Y-114389250D01*
X164561813Y-114388752D01*
X164034200Y-114606757D01*
X163630176Y-115010077D01*
X163411250Y-115537309D01*
X163410752Y-116108187D01*
X163628757Y-116635800D01*
X164032077Y-117039824D01*
X164559309Y-117258750D01*
X165130187Y-117259248D01*
X165657800Y-117041243D01*
X165914000Y-116785489D01*
X165914000Y-127814000D01*
X157833440Y-127814000D01*
X157833440Y-126548532D01*
X162095073Y-126548532D01*
X162193736Y-126815387D01*
X162803461Y-127041908D01*
X163453460Y-127017856D01*
X163942264Y-126815387D01*
X164040927Y-126548532D01*
X163068000Y-125575605D01*
X162095073Y-126548532D01*
X157833440Y-126548532D01*
X157833440Y-125131461D01*
X161422092Y-125131461D01*
X161446144Y-125781460D01*
X161648613Y-126270264D01*
X161915468Y-126368927D01*
X162888395Y-125396000D01*
X163247605Y-125396000D01*
X164220532Y-126368927D01*
X164487387Y-126270264D01*
X164713908Y-125660539D01*
X164689856Y-125010540D01*
X164487387Y-124521736D01*
X164220532Y-124423073D01*
X163247605Y-125396000D01*
X162888395Y-125396000D01*
X161915468Y-124423073D01*
X161648613Y-124521736D01*
X161422092Y-125131461D01*
X157833440Y-125131461D01*
X157833440Y-124243468D01*
X162095073Y-124243468D01*
X163068000Y-125216395D01*
X164040927Y-124243468D01*
X163942264Y-123976613D01*
X163332539Y-123750092D01*
X162682540Y-123774144D01*
X162193736Y-123976613D01*
X162095073Y-124243468D01*
X157833440Y-124243468D01*
X157833440Y-118190000D01*
X157789162Y-117954683D01*
X157650090Y-117738559D01*
X157437890Y-117593569D01*
X157186000Y-117542560D01*
X155373047Y-117542560D01*
X155223401Y-117318599D01*
X154937397Y-117032595D01*
X154940000Y-117033113D01*
X155489151Y-116923880D01*
X155954698Y-116612811D01*
X156210000Y-116230725D01*
X156465302Y-116612811D01*
X156930849Y-116923880D01*
X157480000Y-117033113D01*
X157803886Y-116968688D01*
X161432823Y-120597625D01*
X161432716Y-120719795D01*
X161681106Y-121320943D01*
X162140637Y-121781278D01*
X162741352Y-122030716D01*
X163391795Y-122031284D01*
X163992943Y-121782894D01*
X164453278Y-121323363D01*
X164702716Y-120722648D01*
X164703284Y-120072205D01*
X164454894Y-119471057D01*
X163995363Y-119010722D01*
X163394648Y-118761284D01*
X162744205Y-118760716D01*
X162143057Y-119009106D01*
X162068417Y-119083615D01*
X159092989Y-116108187D01*
X160108752Y-116108187D01*
X160326757Y-116635800D01*
X160730077Y-117039824D01*
X161257309Y-117258750D01*
X161828187Y-117259248D01*
X162355800Y-117041243D01*
X162759824Y-116637923D01*
X162978750Y-116110691D01*
X162979248Y-115539813D01*
X162761243Y-115012200D01*
X162357923Y-114608176D01*
X161830691Y-114389250D01*
X161259813Y-114388752D01*
X160732200Y-114606757D01*
X160328176Y-115010077D01*
X160109250Y-115537309D01*
X160108752Y-116108187D01*
X159092989Y-116108187D01*
X158859904Y-115875102D01*
X158915000Y-115598113D01*
X158915000Y-115541887D01*
X158859904Y-115264898D01*
X160049401Y-114075401D01*
X160214148Y-113828839D01*
X160272000Y-113538000D01*
X160272000Y-101186408D01*
X160391611Y-101439134D01*
X160806577Y-101815041D01*
X161194961Y-101975904D01*
X161417000Y-101853915D01*
X161417000Y-100711000D01*
X161671000Y-100711000D01*
X161671000Y-101853915D01*
X161893039Y-101975904D01*
X162281423Y-101815041D01*
X162696389Y-101439134D01*
X162935914Y-100933041D01*
X163454086Y-100933041D01*
X163693611Y-101439134D01*
X164108577Y-101815041D01*
X164496961Y-101975904D01*
X164719000Y-101853915D01*
X164719000Y-100711000D01*
X163575371Y-100711000D01*
X163454086Y-100933041D01*
X162935914Y-100933041D01*
X162814629Y-100711000D01*
X161671000Y-100711000D01*
X161417000Y-100711000D01*
X161397000Y-100711000D01*
X161397000Y-100457000D01*
X161417000Y-100457000D01*
X161417000Y-99314085D01*
X161671000Y-99314085D01*
X161671000Y-100457000D01*
X162814629Y-100457000D01*
X162935914Y-100234959D01*
X163454086Y-100234959D01*
X163575371Y-100457000D01*
X164719000Y-100457000D01*
X164719000Y-99314085D01*
X164496961Y-99192096D01*
X164108577Y-99352959D01*
X163693611Y-99728866D01*
X163454086Y-100234959D01*
X162935914Y-100234959D01*
X162696389Y-99728866D01*
X162281423Y-99352959D01*
X161893039Y-99192096D01*
X161671000Y-99314085D01*
X161417000Y-99314085D01*
X161208995Y-99199807D01*
X162559362Y-97849440D01*
X165914000Y-97849440D01*
X165914000Y-99652420D01*
G36*
X144781302Y-101626811D02*
X145036000Y-101796995D01*
X145036000Y-108966000D01*
X145093852Y-109256839D01*
X145258599Y-109503401D01*
X149877758Y-114122560D01*
X149060000Y-114122560D01*
X148824683Y-114166838D01*
X148608559Y-114305910D01*
X148463569Y-114518110D01*
X148412560Y-114770000D01*
X148412560Y-114810000D01*
X146811395Y-114810000D01*
X146609923Y-114608176D01*
X146082691Y-114389250D01*
X145511813Y-114388752D01*
X144984200Y-114606757D01*
X144580176Y-115010077D01*
X144474000Y-115265777D01*
X144474000Y-101166902D01*
X144781302Y-101626811D01*
X144781302Y-101626811D01*
G37*
X144781302Y-101626811D02*
X145036000Y-101796995D01*
X145036000Y-108966000D01*
X145093852Y-109256839D01*
X145258599Y-109503401D01*
X149877758Y-114122560D01*
X149060000Y-114122560D01*
X148824683Y-114166838D01*
X148608559Y-114305910D01*
X148463569Y-114518110D01*
X148412560Y-114770000D01*
X148412560Y-114810000D01*
X146811395Y-114810000D01*
X146609923Y-114608176D01*
X146082691Y-114389250D01*
X145511813Y-114388752D01*
X144984200Y-114606757D01*
X144580176Y-115010077D01*
X144474000Y-115265777D01*
X144474000Y-101166902D01*
X144781302Y-101626811D01*
G36*
X150370000Y-96580802D02*
X150370000Y-99128953D01*
X150205057Y-99197106D01*
X149744722Y-99656637D01*
X149495284Y-100257352D01*
X149494716Y-100907795D01*
X149743106Y-101508943D01*
X150202637Y-101969278D01*
X150370000Y-102038773D01*
X150370000Y-103825198D01*
X150183886Y-104011312D01*
X149860000Y-103946887D01*
X149310849Y-104056120D01*
X148845302Y-104367189D01*
X148534233Y-104832736D01*
X148425000Y-105381887D01*
X148425000Y-105438113D01*
X148534233Y-105987264D01*
X148845302Y-106452811D01*
X149310849Y-106763880D01*
X149860000Y-106873113D01*
X150409151Y-106763880D01*
X150874698Y-106452811D01*
X151130000Y-106070725D01*
X151385302Y-106452811D01*
X151850849Y-106763880D01*
X152400000Y-106873113D01*
X152949151Y-106763880D01*
X153414698Y-106452811D01*
X153670000Y-106070725D01*
X153925302Y-106452811D01*
X154390849Y-106763880D01*
X154940000Y-106873113D01*
X155489151Y-106763880D01*
X155954698Y-106452811D01*
X156210000Y-106070725D01*
X156465302Y-106452811D01*
X156930849Y-106763880D01*
X157480000Y-106873113D01*
X158029151Y-106763880D01*
X158494698Y-106452811D01*
X158752000Y-106067732D01*
X158752000Y-113223198D01*
X157803886Y-114171312D01*
X157480000Y-114106887D01*
X156930849Y-114216120D01*
X156465302Y-114527189D01*
X156210000Y-114909275D01*
X155954698Y-114527189D01*
X155489151Y-114216120D01*
X154940000Y-114106887D01*
X154390849Y-114216120D01*
X153925302Y-114527189D01*
X153670000Y-114909275D01*
X153414698Y-114527189D01*
X152949151Y-114216120D01*
X152400000Y-114106887D01*
X152076114Y-114171312D01*
X146556000Y-108651198D01*
X146556000Y-101796995D01*
X146810698Y-101626811D01*
X147121767Y-101161264D01*
X147231000Y-100612113D01*
X147231000Y-100555887D01*
X147121767Y-100006736D01*
X146810698Y-99541189D01*
X146345151Y-99230120D01*
X145796000Y-99120887D01*
X145246849Y-99230120D01*
X144781302Y-99541189D01*
X144474000Y-100001098D01*
X144474000Y-97830810D01*
X144566000Y-97849440D01*
X149566000Y-97849440D01*
X149801317Y-97805162D01*
X150017441Y-97666090D01*
X150162431Y-97453890D01*
X150213440Y-97202000D01*
X150213440Y-96424242D01*
X150370000Y-96580802D01*
X150370000Y-96580802D01*
G37*
X150370000Y-96580802D02*
X150370000Y-99128953D01*
X150205057Y-99197106D01*
X149744722Y-99656637D01*
X149495284Y-100257352D01*
X149494716Y-100907795D01*
X149743106Y-101508943D01*
X150202637Y-101969278D01*
X150370000Y-102038773D01*
X150370000Y-103825198D01*
X150183886Y-104011312D01*
X149860000Y-103946887D01*
X149310849Y-104056120D01*
X148845302Y-104367189D01*
X148534233Y-104832736D01*
X148425000Y-105381887D01*
X148425000Y-105438113D01*
X148534233Y-105987264D01*
X148845302Y-106452811D01*
X149310849Y-106763880D01*
X149860000Y-106873113D01*
X150409151Y-106763880D01*
X150874698Y-106452811D01*
X151130000Y-106070725D01*
X151385302Y-106452811D01*
X151850849Y-106763880D01*
X152400000Y-106873113D01*
X152949151Y-106763880D01*
X153414698Y-106452811D01*
X153670000Y-106070725D01*
X153925302Y-106452811D01*
X154390849Y-106763880D01*
X154940000Y-106873113D01*
X155489151Y-106763880D01*
X155954698Y-106452811D01*
X156210000Y-106070725D01*
X156465302Y-106452811D01*
X156930849Y-106763880D01*
X157480000Y-106873113D01*
X158029151Y-106763880D01*
X158494698Y-106452811D01*
X158752000Y-106067732D01*
X158752000Y-113223198D01*
X157803886Y-114171312D01*
X157480000Y-114106887D01*
X156930849Y-114216120D01*
X156465302Y-114527189D01*
X156210000Y-114909275D01*
X155954698Y-114527189D01*
X155489151Y-114216120D01*
X154940000Y-114106887D01*
X154390849Y-114216120D01*
X153925302Y-114527189D01*
X153670000Y-114909275D01*
X153414698Y-114527189D01*
X152949151Y-114216120D01*
X152400000Y-114106887D01*
X152076114Y-114171312D01*
X146556000Y-108651198D01*
X146556000Y-101796995D01*
X146810698Y-101626811D01*
X147121767Y-101161264D01*
X147231000Y-100612113D01*
X147231000Y-100555887D01*
X147121767Y-100006736D01*
X146810698Y-99541189D01*
X146345151Y-99230120D01*
X145796000Y-99120887D01*
X145246849Y-99230120D01*
X144781302Y-99541189D01*
X144474000Y-100001098D01*
X144474000Y-97830810D01*
X144566000Y-97849440D01*
X149566000Y-97849440D01*
X149801317Y-97805162D01*
X150017441Y-97666090D01*
X150162431Y-97453890D01*
X150213440Y-97202000D01*
X150213440Y-96424242D01*
X150370000Y-96580802D01*
G36*
X152313000Y-92170250D02*
X152471750Y-92329000D01*
X155321000Y-92329000D01*
X155321000Y-92309000D01*
X155575000Y-92309000D01*
X155575000Y-92329000D01*
X158424250Y-92329000D01*
X158583000Y-92170250D01*
X158583000Y-87578000D01*
X160682560Y-87578000D01*
X160682560Y-97202000D01*
X160726838Y-97437317D01*
X160764051Y-97495147D01*
X158974599Y-99284599D01*
X158809852Y-99531161D01*
X158752000Y-99822000D01*
X158752000Y-104752268D01*
X158494698Y-104367189D01*
X158029151Y-104056120D01*
X157480000Y-103946887D01*
X156930849Y-104056120D01*
X156465302Y-104367189D01*
X156210000Y-104749275D01*
X155954698Y-104367189D01*
X155489151Y-104056120D01*
X154940000Y-103946887D01*
X154390849Y-104056120D01*
X153925302Y-104367189D01*
X153670000Y-104749275D01*
X153414698Y-104367189D01*
X152949151Y-104056120D01*
X152400000Y-103946887D01*
X151890000Y-104048332D01*
X151890000Y-102039047D01*
X152054943Y-101970894D01*
X152289715Y-101736532D01*
X155157073Y-101736532D01*
X155255736Y-102003387D01*
X155865461Y-102229908D01*
X156515460Y-102205856D01*
X157004264Y-102003387D01*
X157102927Y-101736532D01*
X156130000Y-100763605D01*
X155157073Y-101736532D01*
X152289715Y-101736532D01*
X152515278Y-101511363D01*
X152764716Y-100910648D01*
X152765232Y-100319461D01*
X154484092Y-100319461D01*
X154508144Y-100969460D01*
X154710613Y-101458264D01*
X154977468Y-101556927D01*
X155950395Y-100584000D01*
X156309605Y-100584000D01*
X157282532Y-101556927D01*
X157549387Y-101458264D01*
X157775908Y-100848539D01*
X157751856Y-100198540D01*
X157549387Y-99709736D01*
X157282532Y-99611073D01*
X156309605Y-100584000D01*
X155950395Y-100584000D01*
X154977468Y-99611073D01*
X154710613Y-99709736D01*
X154484092Y-100319461D01*
X152765232Y-100319461D01*
X152765284Y-100260205D01*
X152516894Y-99659057D01*
X152289703Y-99431468D01*
X155157073Y-99431468D01*
X156130000Y-100404395D01*
X157102927Y-99431468D01*
X157004264Y-99164613D01*
X156394539Y-98938092D01*
X155744540Y-98962144D01*
X155255736Y-99164613D01*
X155157073Y-99431468D01*
X152289703Y-99431468D01*
X152057363Y-99198722D01*
X151890000Y-99129227D01*
X151890000Y-96266000D01*
X151832148Y-95975161D01*
X151667401Y-95728599D01*
X150213440Y-94274638D01*
X150213440Y-92741750D01*
X152313000Y-92741750D01*
X152313000Y-97582310D01*
X152409673Y-97815699D01*
X152588302Y-97994327D01*
X152821691Y-98091000D01*
X155162250Y-98091000D01*
X155321000Y-97932250D01*
X155321000Y-92583000D01*
X155575000Y-92583000D01*
X155575000Y-97932250D01*
X155733750Y-98091000D01*
X158074309Y-98091000D01*
X158307698Y-97994327D01*
X158486327Y-97815699D01*
X158583000Y-97582310D01*
X158583000Y-92741750D01*
X158424250Y-92583000D01*
X155575000Y-92583000D01*
X155321000Y-92583000D01*
X152471750Y-92583000D01*
X152313000Y-92741750D01*
X150213440Y-92741750D01*
X150213440Y-87578000D01*
X152313000Y-87578000D01*
X152313000Y-92170250D01*
X152313000Y-92170250D01*
G37*
X152313000Y-92170250D02*
X152471750Y-92329000D01*
X155321000Y-92329000D01*
X155321000Y-92309000D01*
X155575000Y-92309000D01*
X155575000Y-92329000D01*
X158424250Y-92329000D01*
X158583000Y-92170250D01*
X158583000Y-87578000D01*
X160682560Y-87578000D01*
X160682560Y-97202000D01*
X160726838Y-97437317D01*
X160764051Y-97495147D01*
X158974599Y-99284599D01*
X158809852Y-99531161D01*
X158752000Y-99822000D01*
X158752000Y-104752268D01*
X158494698Y-104367189D01*
X158029151Y-104056120D01*
X157480000Y-103946887D01*
X156930849Y-104056120D01*
X156465302Y-104367189D01*
X156210000Y-104749275D01*
X155954698Y-104367189D01*
X155489151Y-104056120D01*
X154940000Y-103946887D01*
X154390849Y-104056120D01*
X153925302Y-104367189D01*
X153670000Y-104749275D01*
X153414698Y-104367189D01*
X152949151Y-104056120D01*
X152400000Y-103946887D01*
X151890000Y-104048332D01*
X151890000Y-102039047D01*
X152054943Y-101970894D01*
X152289715Y-101736532D01*
X155157073Y-101736532D01*
X155255736Y-102003387D01*
X155865461Y-102229908D01*
X156515460Y-102205856D01*
X157004264Y-102003387D01*
X157102927Y-101736532D01*
X156130000Y-100763605D01*
X155157073Y-101736532D01*
X152289715Y-101736532D01*
X152515278Y-101511363D01*
X152764716Y-100910648D01*
X152765232Y-100319461D01*
X154484092Y-100319461D01*
X154508144Y-100969460D01*
X154710613Y-101458264D01*
X154977468Y-101556927D01*
X155950395Y-100584000D01*
X156309605Y-100584000D01*
X157282532Y-101556927D01*
X157549387Y-101458264D01*
X157775908Y-100848539D01*
X157751856Y-100198540D01*
X157549387Y-99709736D01*
X157282532Y-99611073D01*
X156309605Y-100584000D01*
X155950395Y-100584000D01*
X154977468Y-99611073D01*
X154710613Y-99709736D01*
X154484092Y-100319461D01*
X152765232Y-100319461D01*
X152765284Y-100260205D01*
X152516894Y-99659057D01*
X152289703Y-99431468D01*
X155157073Y-99431468D01*
X156130000Y-100404395D01*
X157102927Y-99431468D01*
X157004264Y-99164613D01*
X156394539Y-98938092D01*
X155744540Y-98962144D01*
X155255736Y-99164613D01*
X155157073Y-99431468D01*
X152289703Y-99431468D01*
X152057363Y-99198722D01*
X151890000Y-99129227D01*
X151890000Y-96266000D01*
X151832148Y-95975161D01*
X151667401Y-95728599D01*
X150213440Y-94274638D01*
X150213440Y-92741750D01*
X152313000Y-92741750D01*
X152313000Y-97582310D01*
X152409673Y-97815699D01*
X152588302Y-97994327D01*
X152821691Y-98091000D01*
X155162250Y-98091000D01*
X155321000Y-97932250D01*
X155321000Y-92583000D01*
X155575000Y-92583000D01*
X155575000Y-97932250D01*
X155733750Y-98091000D01*
X158074309Y-98091000D01*
X158307698Y-97994327D01*
X158486327Y-97815699D01*
X158583000Y-97582310D01*
X158583000Y-92741750D01*
X158424250Y-92583000D01*
X155575000Y-92583000D01*
X155321000Y-92583000D01*
X152471750Y-92583000D01*
X152313000Y-92741750D01*
X150213440Y-92741750D01*
X150213440Y-87578000D01*
X152313000Y-87578000D01*
X152313000Y-92170250D01*
M02*
