G04 #@! TF.FileFunction,Copper,L2,Bot,Signal*
%FSLAX46Y46*%
G04 Gerber Fmt 4.6, Leading zero omitted, Abs format (unit mm)*
G04 Created by KiCad (PCBNEW 4.0.7) date 06/03/18 15:05:31*
%MOMM*%
%LPD*%
G01*
G04 APERTURE LIST*
%ADD10C,0.100000*%
%ADD11C,0.300000*%
%ADD12R,1.600000X1.600000*%
%ADD13O,1.600000X1.600000*%
%ADD14C,2.000000*%
%ADD15C,1.600000*%
%ADD16C,0.600000*%
%ADD17C,0.250000*%
%ADD18C,0.254000*%
G04 APERTURE END LIST*
D10*
D11*
X148771999Y-126932571D02*
X148414856Y-127932571D01*
X148057714Y-126932571D01*
X146700571Y-127932571D02*
X147557714Y-127932571D01*
X147129142Y-127932571D02*
X147129142Y-126432571D01*
X147271999Y-126646857D01*
X147414857Y-126789714D01*
X147557714Y-126861143D01*
X146057714Y-127789714D02*
X145986286Y-127861143D01*
X146057714Y-127932571D01*
X146129143Y-127861143D01*
X146057714Y-127789714D01*
X146057714Y-127932571D01*
X145057714Y-126432571D02*
X144914857Y-126432571D01*
X144772000Y-126504000D01*
X144700571Y-126575429D01*
X144629142Y-126718286D01*
X144557714Y-127004000D01*
X144557714Y-127361143D01*
X144629142Y-127646857D01*
X144700571Y-127789714D01*
X144772000Y-127861143D01*
X144914857Y-127932571D01*
X145057714Y-127932571D01*
X145200571Y-127861143D01*
X145272000Y-127789714D01*
X145343428Y-127646857D01*
X145414857Y-127361143D01*
X145414857Y-127004000D01*
X145343428Y-126718286D01*
X145272000Y-126575429D01*
X145200571Y-126504000D01*
X145057714Y-126432571D01*
D12*
X149860000Y-115570000D03*
D13*
X157480000Y-105410000D03*
X152400000Y-115570000D03*
X154940000Y-105410000D03*
X154940000Y-115570000D03*
X152400000Y-105410000D03*
X157480000Y-115570000D03*
X149860000Y-105410000D03*
D14*
X151130000Y-100584000D03*
X156130000Y-100584000D03*
X163068000Y-120396000D03*
X163068000Y-125396000D03*
D15*
X161544000Y-115824000D03*
D13*
X161544000Y-100584000D03*
D15*
X164846000Y-115824000D03*
D13*
X164846000Y-100584000D03*
D15*
X145796000Y-115824000D03*
D13*
X145796000Y-100584000D03*
D16*
X159004000Y-122428000D03*
X159512000Y-115316000D03*
X146304000Y-113030000D03*
X150876000Y-120650000D03*
X155448000Y-109728000D03*
D17*
X161544000Y-115824000D02*
X160782000Y-115824000D01*
X160782000Y-115824000D02*
X159512000Y-117094000D01*
X159512000Y-117094000D02*
X153924000Y-117094000D01*
X153924000Y-117094000D02*
X152400000Y-115570000D01*
X164846000Y-115824000D02*
X162814000Y-113792000D01*
X156210000Y-113792000D02*
X154940000Y-115062000D01*
X162814000Y-113792000D02*
X156210000Y-113792000D01*
X154940000Y-115062000D02*
X154940000Y-115570000D01*
D18*
G36*
X165914000Y-99652420D02*
X165583423Y-99352959D01*
X165195039Y-99192096D01*
X164973000Y-99314085D01*
X164973000Y-100457000D01*
X164993000Y-100457000D01*
X164993000Y-100711000D01*
X164973000Y-100711000D01*
X164973000Y-101853915D01*
X165195039Y-101975904D01*
X165583423Y-101815041D01*
X165914000Y-101515580D01*
X165914000Y-114862696D01*
X165659923Y-114608176D01*
X165132691Y-114389250D01*
X164561813Y-114388752D01*
X164507851Y-114411049D01*
X163351401Y-113254599D01*
X163104839Y-113089852D01*
X162814000Y-113032000D01*
X156210000Y-113032000D01*
X155919160Y-113089852D01*
X155672599Y-113254599D01*
X154790592Y-114136606D01*
X154390849Y-114216120D01*
X153925302Y-114527189D01*
X153670000Y-114909275D01*
X153414698Y-114527189D01*
X152949151Y-114216120D01*
X152400000Y-114106887D01*
X151850849Y-114216120D01*
X151385302Y-114527189D01*
X151288899Y-114671465D01*
X151263162Y-114534683D01*
X151124090Y-114318559D01*
X150911890Y-114173569D01*
X150660000Y-114122560D01*
X149060000Y-114122560D01*
X148824683Y-114166838D01*
X148608559Y-114305910D01*
X148463569Y-114518110D01*
X148412560Y-114770000D01*
X148412560Y-116370000D01*
X148456838Y-116605317D01*
X148595910Y-116821441D01*
X148808110Y-116966431D01*
X149060000Y-117017440D01*
X150660000Y-117017440D01*
X150895317Y-116973162D01*
X151111441Y-116834090D01*
X151256431Y-116621890D01*
X151287815Y-116466911D01*
X151385302Y-116612811D01*
X151850849Y-116923880D01*
X152400000Y-117033113D01*
X152723886Y-116968688D01*
X153386599Y-117631401D01*
X153633160Y-117796148D01*
X153681414Y-117805746D01*
X153924000Y-117854000D01*
X159512000Y-117854000D01*
X159802839Y-117796148D01*
X160049401Y-117631401D01*
X160685566Y-116995236D01*
X160730077Y-117039824D01*
X161257309Y-117258750D01*
X161828187Y-117259248D01*
X162355800Y-117041243D01*
X162759824Y-116637923D01*
X162978750Y-116110691D01*
X162979248Y-115539813D01*
X162761243Y-115012200D01*
X162357923Y-114608176D01*
X162222636Y-114552000D01*
X162499198Y-114552000D01*
X163432744Y-115485546D01*
X163411250Y-115537309D01*
X163410752Y-116108187D01*
X163628757Y-116635800D01*
X164032077Y-117039824D01*
X164559309Y-117258750D01*
X165130187Y-117259248D01*
X165657800Y-117041243D01*
X165914000Y-116785489D01*
X165914000Y-127814000D01*
X149621285Y-127814000D01*
X149621285Y-126548532D01*
X162095073Y-126548532D01*
X162193736Y-126815387D01*
X162803461Y-127041908D01*
X163453460Y-127017856D01*
X163942264Y-126815387D01*
X164040927Y-126548532D01*
X163068000Y-125575605D01*
X162095073Y-126548532D01*
X149621285Y-126548532D01*
X149621285Y-125419000D01*
X144474000Y-125419000D01*
X144474000Y-125131461D01*
X161422092Y-125131461D01*
X161446144Y-125781460D01*
X161648613Y-126270264D01*
X161915468Y-126368927D01*
X162888395Y-125396000D01*
X163247605Y-125396000D01*
X164220532Y-126368927D01*
X164487387Y-126270264D01*
X164713908Y-125660539D01*
X164689856Y-125010540D01*
X164487387Y-124521736D01*
X164220532Y-124423073D01*
X163247605Y-125396000D01*
X162888395Y-125396000D01*
X161915468Y-124423073D01*
X161648613Y-124521736D01*
X161422092Y-125131461D01*
X144474000Y-125131461D01*
X144474000Y-124243468D01*
X162095073Y-124243468D01*
X163068000Y-125216395D01*
X164040927Y-124243468D01*
X163942264Y-123976613D01*
X163332539Y-123750092D01*
X162682540Y-123774144D01*
X162193736Y-123976613D01*
X162095073Y-124243468D01*
X144474000Y-124243468D01*
X144474000Y-120719795D01*
X161432716Y-120719795D01*
X161681106Y-121320943D01*
X162140637Y-121781278D01*
X162741352Y-122030716D01*
X163391795Y-122031284D01*
X163992943Y-121782894D01*
X164453278Y-121323363D01*
X164702716Y-120722648D01*
X164703284Y-120072205D01*
X164454894Y-119471057D01*
X163995363Y-119010722D01*
X163394648Y-118761284D01*
X162744205Y-118760716D01*
X162143057Y-119009106D01*
X161682722Y-119468637D01*
X161433284Y-120069352D01*
X161432716Y-120719795D01*
X144474000Y-120719795D01*
X144474000Y-116382268D01*
X144578757Y-116635800D01*
X144982077Y-117039824D01*
X145509309Y-117258750D01*
X146080187Y-117259248D01*
X146607800Y-117041243D01*
X147011824Y-116637923D01*
X147230750Y-116110691D01*
X147231248Y-115539813D01*
X147013243Y-115012200D01*
X146609923Y-114608176D01*
X146082691Y-114389250D01*
X145511813Y-114388752D01*
X144984200Y-114606757D01*
X144580176Y-115010077D01*
X144474000Y-115265777D01*
X144474000Y-105381887D01*
X148425000Y-105381887D01*
X148425000Y-105438113D01*
X148534233Y-105987264D01*
X148845302Y-106452811D01*
X149310849Y-106763880D01*
X149860000Y-106873113D01*
X150409151Y-106763880D01*
X150874698Y-106452811D01*
X151130000Y-106070725D01*
X151385302Y-106452811D01*
X151850849Y-106763880D01*
X152400000Y-106873113D01*
X152949151Y-106763880D01*
X153414698Y-106452811D01*
X153670000Y-106070725D01*
X153925302Y-106452811D01*
X154390849Y-106763880D01*
X154940000Y-106873113D01*
X155489151Y-106763880D01*
X155954698Y-106452811D01*
X156210000Y-106070725D01*
X156465302Y-106452811D01*
X156930849Y-106763880D01*
X157480000Y-106873113D01*
X158029151Y-106763880D01*
X158494698Y-106452811D01*
X158805767Y-105987264D01*
X158915000Y-105438113D01*
X158915000Y-105381887D01*
X158805767Y-104832736D01*
X158494698Y-104367189D01*
X158029151Y-104056120D01*
X157480000Y-103946887D01*
X156930849Y-104056120D01*
X156465302Y-104367189D01*
X156210000Y-104749275D01*
X155954698Y-104367189D01*
X155489151Y-104056120D01*
X154940000Y-103946887D01*
X154390849Y-104056120D01*
X153925302Y-104367189D01*
X153670000Y-104749275D01*
X153414698Y-104367189D01*
X152949151Y-104056120D01*
X152400000Y-103946887D01*
X151850849Y-104056120D01*
X151385302Y-104367189D01*
X151130000Y-104749275D01*
X150874698Y-104367189D01*
X150409151Y-104056120D01*
X149860000Y-103946887D01*
X149310849Y-104056120D01*
X148845302Y-104367189D01*
X148534233Y-104832736D01*
X148425000Y-105381887D01*
X144474000Y-105381887D01*
X144474000Y-101166902D01*
X144781302Y-101626811D01*
X145246849Y-101937880D01*
X145796000Y-102047113D01*
X146345151Y-101937880D01*
X146810698Y-101626811D01*
X147121767Y-101161264D01*
X147172185Y-100907795D01*
X149494716Y-100907795D01*
X149743106Y-101508943D01*
X150202637Y-101969278D01*
X150803352Y-102218716D01*
X151453795Y-102219284D01*
X152054943Y-101970894D01*
X152289715Y-101736532D01*
X155157073Y-101736532D01*
X155255736Y-102003387D01*
X155865461Y-102229908D01*
X156515460Y-102205856D01*
X157004264Y-102003387D01*
X157102927Y-101736532D01*
X156130000Y-100763605D01*
X155157073Y-101736532D01*
X152289715Y-101736532D01*
X152515278Y-101511363D01*
X152764716Y-100910648D01*
X152765232Y-100319461D01*
X154484092Y-100319461D01*
X154508144Y-100969460D01*
X154710613Y-101458264D01*
X154977468Y-101556927D01*
X155950395Y-100584000D01*
X156309605Y-100584000D01*
X157282532Y-101556927D01*
X157549387Y-101458264D01*
X157744514Y-100933041D01*
X160152086Y-100933041D01*
X160391611Y-101439134D01*
X160806577Y-101815041D01*
X161194961Y-101975904D01*
X161417000Y-101853915D01*
X161417000Y-100711000D01*
X161671000Y-100711000D01*
X161671000Y-101853915D01*
X161893039Y-101975904D01*
X162281423Y-101815041D01*
X162696389Y-101439134D01*
X162935914Y-100933041D01*
X163454086Y-100933041D01*
X163693611Y-101439134D01*
X164108577Y-101815041D01*
X164496961Y-101975904D01*
X164719000Y-101853915D01*
X164719000Y-100711000D01*
X163575371Y-100711000D01*
X163454086Y-100933041D01*
X162935914Y-100933041D01*
X162814629Y-100711000D01*
X161671000Y-100711000D01*
X161417000Y-100711000D01*
X160273371Y-100711000D01*
X160152086Y-100933041D01*
X157744514Y-100933041D01*
X157775908Y-100848539D01*
X157753204Y-100234959D01*
X160152086Y-100234959D01*
X160273371Y-100457000D01*
X161417000Y-100457000D01*
X161417000Y-99314085D01*
X161671000Y-99314085D01*
X161671000Y-100457000D01*
X162814629Y-100457000D01*
X162935914Y-100234959D01*
X163454086Y-100234959D01*
X163575371Y-100457000D01*
X164719000Y-100457000D01*
X164719000Y-99314085D01*
X164496961Y-99192096D01*
X164108577Y-99352959D01*
X163693611Y-99728866D01*
X163454086Y-100234959D01*
X162935914Y-100234959D01*
X162696389Y-99728866D01*
X162281423Y-99352959D01*
X161893039Y-99192096D01*
X161671000Y-99314085D01*
X161417000Y-99314085D01*
X161194961Y-99192096D01*
X160806577Y-99352959D01*
X160391611Y-99728866D01*
X160152086Y-100234959D01*
X157753204Y-100234959D01*
X157751856Y-100198540D01*
X157549387Y-99709736D01*
X157282532Y-99611073D01*
X156309605Y-100584000D01*
X155950395Y-100584000D01*
X154977468Y-99611073D01*
X154710613Y-99709736D01*
X154484092Y-100319461D01*
X152765232Y-100319461D01*
X152765284Y-100260205D01*
X152516894Y-99659057D01*
X152289703Y-99431468D01*
X155157073Y-99431468D01*
X156130000Y-100404395D01*
X157102927Y-99431468D01*
X157004264Y-99164613D01*
X156394539Y-98938092D01*
X155744540Y-98962144D01*
X155255736Y-99164613D01*
X155157073Y-99431468D01*
X152289703Y-99431468D01*
X152057363Y-99198722D01*
X151456648Y-98949284D01*
X150806205Y-98948716D01*
X150205057Y-99197106D01*
X149744722Y-99656637D01*
X149495284Y-100257352D01*
X149494716Y-100907795D01*
X147172185Y-100907795D01*
X147231000Y-100612113D01*
X147231000Y-100555887D01*
X147121767Y-100006736D01*
X146810698Y-99541189D01*
X146345151Y-99230120D01*
X145796000Y-99120887D01*
X145246849Y-99230120D01*
X144781302Y-99541189D01*
X144474000Y-100001098D01*
X144474000Y-87578000D01*
X165914000Y-87578000D01*
X165914000Y-99652420D01*
X165914000Y-99652420D01*
G37*
X165914000Y-99652420D02*
X165583423Y-99352959D01*
X165195039Y-99192096D01*
X164973000Y-99314085D01*
X164973000Y-100457000D01*
X164993000Y-100457000D01*
X164993000Y-100711000D01*
X164973000Y-100711000D01*
X164973000Y-101853915D01*
X165195039Y-101975904D01*
X165583423Y-101815041D01*
X165914000Y-101515580D01*
X165914000Y-114862696D01*
X165659923Y-114608176D01*
X165132691Y-114389250D01*
X164561813Y-114388752D01*
X164507851Y-114411049D01*
X163351401Y-113254599D01*
X163104839Y-113089852D01*
X162814000Y-113032000D01*
X156210000Y-113032000D01*
X155919160Y-113089852D01*
X155672599Y-113254599D01*
X154790592Y-114136606D01*
X154390849Y-114216120D01*
X153925302Y-114527189D01*
X153670000Y-114909275D01*
X153414698Y-114527189D01*
X152949151Y-114216120D01*
X152400000Y-114106887D01*
X151850849Y-114216120D01*
X151385302Y-114527189D01*
X151288899Y-114671465D01*
X151263162Y-114534683D01*
X151124090Y-114318559D01*
X150911890Y-114173569D01*
X150660000Y-114122560D01*
X149060000Y-114122560D01*
X148824683Y-114166838D01*
X148608559Y-114305910D01*
X148463569Y-114518110D01*
X148412560Y-114770000D01*
X148412560Y-116370000D01*
X148456838Y-116605317D01*
X148595910Y-116821441D01*
X148808110Y-116966431D01*
X149060000Y-117017440D01*
X150660000Y-117017440D01*
X150895317Y-116973162D01*
X151111441Y-116834090D01*
X151256431Y-116621890D01*
X151287815Y-116466911D01*
X151385302Y-116612811D01*
X151850849Y-116923880D01*
X152400000Y-117033113D01*
X152723886Y-116968688D01*
X153386599Y-117631401D01*
X153633160Y-117796148D01*
X153681414Y-117805746D01*
X153924000Y-117854000D01*
X159512000Y-117854000D01*
X159802839Y-117796148D01*
X160049401Y-117631401D01*
X160685566Y-116995236D01*
X160730077Y-117039824D01*
X161257309Y-117258750D01*
X161828187Y-117259248D01*
X162355800Y-117041243D01*
X162759824Y-116637923D01*
X162978750Y-116110691D01*
X162979248Y-115539813D01*
X162761243Y-115012200D01*
X162357923Y-114608176D01*
X162222636Y-114552000D01*
X162499198Y-114552000D01*
X163432744Y-115485546D01*
X163411250Y-115537309D01*
X163410752Y-116108187D01*
X163628757Y-116635800D01*
X164032077Y-117039824D01*
X164559309Y-117258750D01*
X165130187Y-117259248D01*
X165657800Y-117041243D01*
X165914000Y-116785489D01*
X165914000Y-127814000D01*
X149621285Y-127814000D01*
X149621285Y-126548532D01*
X162095073Y-126548532D01*
X162193736Y-126815387D01*
X162803461Y-127041908D01*
X163453460Y-127017856D01*
X163942264Y-126815387D01*
X164040927Y-126548532D01*
X163068000Y-125575605D01*
X162095073Y-126548532D01*
X149621285Y-126548532D01*
X149621285Y-125419000D01*
X144474000Y-125419000D01*
X144474000Y-125131461D01*
X161422092Y-125131461D01*
X161446144Y-125781460D01*
X161648613Y-126270264D01*
X161915468Y-126368927D01*
X162888395Y-125396000D01*
X163247605Y-125396000D01*
X164220532Y-126368927D01*
X164487387Y-126270264D01*
X164713908Y-125660539D01*
X164689856Y-125010540D01*
X164487387Y-124521736D01*
X164220532Y-124423073D01*
X163247605Y-125396000D01*
X162888395Y-125396000D01*
X161915468Y-124423073D01*
X161648613Y-124521736D01*
X161422092Y-125131461D01*
X144474000Y-125131461D01*
X144474000Y-124243468D01*
X162095073Y-124243468D01*
X163068000Y-125216395D01*
X164040927Y-124243468D01*
X163942264Y-123976613D01*
X163332539Y-123750092D01*
X162682540Y-123774144D01*
X162193736Y-123976613D01*
X162095073Y-124243468D01*
X144474000Y-124243468D01*
X144474000Y-120719795D01*
X161432716Y-120719795D01*
X161681106Y-121320943D01*
X162140637Y-121781278D01*
X162741352Y-122030716D01*
X163391795Y-122031284D01*
X163992943Y-121782894D01*
X164453278Y-121323363D01*
X164702716Y-120722648D01*
X164703284Y-120072205D01*
X164454894Y-119471057D01*
X163995363Y-119010722D01*
X163394648Y-118761284D01*
X162744205Y-118760716D01*
X162143057Y-119009106D01*
X161682722Y-119468637D01*
X161433284Y-120069352D01*
X161432716Y-120719795D01*
X144474000Y-120719795D01*
X144474000Y-116382268D01*
X144578757Y-116635800D01*
X144982077Y-117039824D01*
X145509309Y-117258750D01*
X146080187Y-117259248D01*
X146607800Y-117041243D01*
X147011824Y-116637923D01*
X147230750Y-116110691D01*
X147231248Y-115539813D01*
X147013243Y-115012200D01*
X146609923Y-114608176D01*
X146082691Y-114389250D01*
X145511813Y-114388752D01*
X144984200Y-114606757D01*
X144580176Y-115010077D01*
X144474000Y-115265777D01*
X144474000Y-105381887D01*
X148425000Y-105381887D01*
X148425000Y-105438113D01*
X148534233Y-105987264D01*
X148845302Y-106452811D01*
X149310849Y-106763880D01*
X149860000Y-106873113D01*
X150409151Y-106763880D01*
X150874698Y-106452811D01*
X151130000Y-106070725D01*
X151385302Y-106452811D01*
X151850849Y-106763880D01*
X152400000Y-106873113D01*
X152949151Y-106763880D01*
X153414698Y-106452811D01*
X153670000Y-106070725D01*
X153925302Y-106452811D01*
X154390849Y-106763880D01*
X154940000Y-106873113D01*
X155489151Y-106763880D01*
X155954698Y-106452811D01*
X156210000Y-106070725D01*
X156465302Y-106452811D01*
X156930849Y-106763880D01*
X157480000Y-106873113D01*
X158029151Y-106763880D01*
X158494698Y-106452811D01*
X158805767Y-105987264D01*
X158915000Y-105438113D01*
X158915000Y-105381887D01*
X158805767Y-104832736D01*
X158494698Y-104367189D01*
X158029151Y-104056120D01*
X157480000Y-103946887D01*
X156930849Y-104056120D01*
X156465302Y-104367189D01*
X156210000Y-104749275D01*
X155954698Y-104367189D01*
X155489151Y-104056120D01*
X154940000Y-103946887D01*
X154390849Y-104056120D01*
X153925302Y-104367189D01*
X153670000Y-104749275D01*
X153414698Y-104367189D01*
X152949151Y-104056120D01*
X152400000Y-103946887D01*
X151850849Y-104056120D01*
X151385302Y-104367189D01*
X151130000Y-104749275D01*
X150874698Y-104367189D01*
X150409151Y-104056120D01*
X149860000Y-103946887D01*
X149310849Y-104056120D01*
X148845302Y-104367189D01*
X148534233Y-104832736D01*
X148425000Y-105381887D01*
X144474000Y-105381887D01*
X144474000Y-101166902D01*
X144781302Y-101626811D01*
X145246849Y-101937880D01*
X145796000Y-102047113D01*
X146345151Y-101937880D01*
X146810698Y-101626811D01*
X147121767Y-101161264D01*
X147172185Y-100907795D01*
X149494716Y-100907795D01*
X149743106Y-101508943D01*
X150202637Y-101969278D01*
X150803352Y-102218716D01*
X151453795Y-102219284D01*
X152054943Y-101970894D01*
X152289715Y-101736532D01*
X155157073Y-101736532D01*
X155255736Y-102003387D01*
X155865461Y-102229908D01*
X156515460Y-102205856D01*
X157004264Y-102003387D01*
X157102927Y-101736532D01*
X156130000Y-100763605D01*
X155157073Y-101736532D01*
X152289715Y-101736532D01*
X152515278Y-101511363D01*
X152764716Y-100910648D01*
X152765232Y-100319461D01*
X154484092Y-100319461D01*
X154508144Y-100969460D01*
X154710613Y-101458264D01*
X154977468Y-101556927D01*
X155950395Y-100584000D01*
X156309605Y-100584000D01*
X157282532Y-101556927D01*
X157549387Y-101458264D01*
X157744514Y-100933041D01*
X160152086Y-100933041D01*
X160391611Y-101439134D01*
X160806577Y-101815041D01*
X161194961Y-101975904D01*
X161417000Y-101853915D01*
X161417000Y-100711000D01*
X161671000Y-100711000D01*
X161671000Y-101853915D01*
X161893039Y-101975904D01*
X162281423Y-101815041D01*
X162696389Y-101439134D01*
X162935914Y-100933041D01*
X163454086Y-100933041D01*
X163693611Y-101439134D01*
X164108577Y-101815041D01*
X164496961Y-101975904D01*
X164719000Y-101853915D01*
X164719000Y-100711000D01*
X163575371Y-100711000D01*
X163454086Y-100933041D01*
X162935914Y-100933041D01*
X162814629Y-100711000D01*
X161671000Y-100711000D01*
X161417000Y-100711000D01*
X160273371Y-100711000D01*
X160152086Y-100933041D01*
X157744514Y-100933041D01*
X157775908Y-100848539D01*
X157753204Y-100234959D01*
X160152086Y-100234959D01*
X160273371Y-100457000D01*
X161417000Y-100457000D01*
X161417000Y-99314085D01*
X161671000Y-99314085D01*
X161671000Y-100457000D01*
X162814629Y-100457000D01*
X162935914Y-100234959D01*
X163454086Y-100234959D01*
X163575371Y-100457000D01*
X164719000Y-100457000D01*
X164719000Y-99314085D01*
X164496961Y-99192096D01*
X164108577Y-99352959D01*
X163693611Y-99728866D01*
X163454086Y-100234959D01*
X162935914Y-100234959D01*
X162696389Y-99728866D01*
X162281423Y-99352959D01*
X161893039Y-99192096D01*
X161671000Y-99314085D01*
X161417000Y-99314085D01*
X161194961Y-99192096D01*
X160806577Y-99352959D01*
X160391611Y-99728866D01*
X160152086Y-100234959D01*
X157753204Y-100234959D01*
X157751856Y-100198540D01*
X157549387Y-99709736D01*
X157282532Y-99611073D01*
X156309605Y-100584000D01*
X155950395Y-100584000D01*
X154977468Y-99611073D01*
X154710613Y-99709736D01*
X154484092Y-100319461D01*
X152765232Y-100319461D01*
X152765284Y-100260205D01*
X152516894Y-99659057D01*
X152289703Y-99431468D01*
X155157073Y-99431468D01*
X156130000Y-100404395D01*
X157102927Y-99431468D01*
X157004264Y-99164613D01*
X156394539Y-98938092D01*
X155744540Y-98962144D01*
X155255736Y-99164613D01*
X155157073Y-99431468D01*
X152289703Y-99431468D01*
X152057363Y-99198722D01*
X151456648Y-98949284D01*
X150806205Y-98948716D01*
X150205057Y-99197106D01*
X149744722Y-99656637D01*
X149495284Y-100257352D01*
X149494716Y-100907795D01*
X147172185Y-100907795D01*
X147231000Y-100612113D01*
X147231000Y-100555887D01*
X147121767Y-100006736D01*
X146810698Y-99541189D01*
X146345151Y-99230120D01*
X145796000Y-99120887D01*
X145246849Y-99230120D01*
X144781302Y-99541189D01*
X144474000Y-100001098D01*
X144474000Y-87578000D01*
X165914000Y-87578000D01*
X165914000Y-99652420D01*
G36*
X160732200Y-114606757D02*
X160328176Y-115010077D01*
X160191167Y-115340031D01*
X159197198Y-116334000D01*
X158680994Y-116334000D01*
X158805767Y-116147264D01*
X158915000Y-115598113D01*
X158915000Y-115541887D01*
X158805767Y-114992736D01*
X158511276Y-114552000D01*
X160864722Y-114552000D01*
X160732200Y-114606757D01*
X160732200Y-114606757D01*
G37*
X160732200Y-114606757D02*
X160328176Y-115010077D01*
X160191167Y-115340031D01*
X159197198Y-116334000D01*
X158680994Y-116334000D01*
X158805767Y-116147264D01*
X158915000Y-115598113D01*
X158915000Y-115541887D01*
X158805767Y-114992736D01*
X158511276Y-114552000D01*
X160864722Y-114552000D01*
X160732200Y-114606757D01*
M02*
