G04 #@! TF.GenerationSoftware,KiCad,Pcbnew,(5.1.5)-3*
G04 #@! TF.CreationDate,2020-06-08T15:17:39-04:00*
G04 #@! TF.ProjectId,Vextrex Buzz Fix,56657874-7265-4782-9042-757a7a204669,rev?*
G04 #@! TF.SameCoordinates,Original*
G04 #@! TF.FileFunction,Legend,Top*
G04 #@! TF.FilePolarity,Positive*
%FSLAX46Y46*%
G04 Gerber Fmt 4.6, Leading zero omitted, Abs format (unit mm)*
G04 Created by KiCad (PCBNEW (5.1.5)-3) date 2020-06-08 15:17:39*
%MOMM*%
%LPD*%
G04 APERTURE LIST*
%ADD10C,0.200000*%
%ADD11C,0.120000*%
%ADD12C,0.150000*%
G04 APERTURE END LIST*
D10*
X152400000Y-94234000D02*
X151892000Y-94742000D01*
X152400000Y-94234000D02*
X151892000Y-93726000D01*
X151384000Y-94234000D02*
X152400000Y-94234000D01*
X151384000Y-96266000D02*
X151384000Y-94234000D01*
D11*
X148530000Y-109490000D02*
G75*
G02X148530000Y-111490000I0J-1000000D01*
G01*
X148530000Y-111490000D02*
X148530000Y-113725000D01*
X148530000Y-113725000D02*
X158810000Y-113725000D01*
X158810000Y-113725000D02*
X158810000Y-107255000D01*
X158810000Y-107255000D02*
X148530000Y-107255000D01*
X148530000Y-107255000D02*
X148530000Y-109490000D01*
X148320000Y-98024000D02*
X158940000Y-98024000D01*
X148320000Y-103144000D02*
X158940000Y-103144000D01*
X148320000Y-98024000D02*
X148320000Y-103144000D01*
X158940000Y-98024000D02*
X158940000Y-103144000D01*
X165628000Y-117586000D02*
X165628000Y-128206000D01*
X160508000Y-117586000D02*
X160508000Y-128206000D01*
X165628000Y-117586000D02*
X160508000Y-117586000D01*
X165628000Y-128206000D02*
X160508000Y-128206000D01*
X160234000Y-111414000D02*
X162854000Y-111414000D01*
X162854000Y-111414000D02*
X162854000Y-104994000D01*
X162854000Y-104994000D02*
X160234000Y-104994000D01*
X160234000Y-104994000D02*
X160234000Y-111414000D01*
X161544000Y-114844000D02*
X161544000Y-111414000D01*
X161544000Y-101564000D02*
X161544000Y-104994000D01*
X163536000Y-111414000D02*
X166156000Y-111414000D01*
X166156000Y-111414000D02*
X166156000Y-104994000D01*
X166156000Y-104994000D02*
X163536000Y-104994000D01*
X163536000Y-104994000D02*
X163536000Y-111414000D01*
X164846000Y-114844000D02*
X164846000Y-111414000D01*
X164846000Y-101564000D02*
X164846000Y-104994000D01*
X144486000Y-111414000D02*
X147106000Y-111414000D01*
X147106000Y-111414000D02*
X147106000Y-104994000D01*
X147106000Y-104994000D02*
X144486000Y-104994000D01*
X144486000Y-104994000D02*
X144486000Y-111414000D01*
X145796000Y-114844000D02*
X145796000Y-111414000D01*
X145796000Y-101564000D02*
X145796000Y-104994000D01*
D12*
X153122380Y-112609047D02*
X153122380Y-112037619D01*
X154122380Y-112323333D02*
X153122380Y-112323333D01*
X154122380Y-111228095D02*
X154122380Y-111704285D01*
X153122380Y-111704285D01*
X153122380Y-110704285D02*
X153122380Y-110609047D01*
X153170000Y-110513809D01*
X153217619Y-110466190D01*
X153312857Y-110418571D01*
X153503333Y-110370952D01*
X153741428Y-110370952D01*
X153931904Y-110418571D01*
X154027142Y-110466190D01*
X154074761Y-110513809D01*
X154122380Y-110609047D01*
X154122380Y-110704285D01*
X154074761Y-110799523D01*
X154027142Y-110847142D01*
X153931904Y-110894761D01*
X153741428Y-110942380D01*
X153503333Y-110942380D01*
X153312857Y-110894761D01*
X153217619Y-110847142D01*
X153170000Y-110799523D01*
X153122380Y-110704285D01*
X153550952Y-109799523D02*
X153503333Y-109894761D01*
X153455714Y-109942380D01*
X153360476Y-109990000D01*
X153312857Y-109990000D01*
X153217619Y-109942380D01*
X153170000Y-109894761D01*
X153122380Y-109799523D01*
X153122380Y-109609047D01*
X153170000Y-109513809D01*
X153217619Y-109466190D01*
X153312857Y-109418571D01*
X153360476Y-109418571D01*
X153455714Y-109466190D01*
X153503333Y-109513809D01*
X153550952Y-109609047D01*
X153550952Y-109799523D01*
X153598571Y-109894761D01*
X153646190Y-109942380D01*
X153741428Y-109990000D01*
X153931904Y-109990000D01*
X154027142Y-109942380D01*
X154074761Y-109894761D01*
X154122380Y-109799523D01*
X154122380Y-109609047D01*
X154074761Y-109513809D01*
X154027142Y-109466190D01*
X153931904Y-109418571D01*
X153741428Y-109418571D01*
X153646190Y-109466190D01*
X153598571Y-109513809D01*
X153550952Y-109609047D01*
X153217619Y-109037619D02*
X153170000Y-108990000D01*
X153122380Y-108894761D01*
X153122380Y-108656666D01*
X153170000Y-108561428D01*
X153217619Y-108513809D01*
X153312857Y-108466190D01*
X153408095Y-108466190D01*
X153550952Y-108513809D01*
X154122380Y-109085238D01*
X154122380Y-108466190D01*
X153122380Y-102679238D02*
X153122380Y-102584000D01*
X153170000Y-102488761D01*
X153217619Y-102441142D01*
X153312857Y-102393523D01*
X153503333Y-102345904D01*
X153741428Y-102345904D01*
X153931904Y-102393523D01*
X154027142Y-102441142D01*
X154074761Y-102488761D01*
X154122380Y-102584000D01*
X154122380Y-102679238D01*
X154074761Y-102774476D01*
X154027142Y-102822095D01*
X153931904Y-102869714D01*
X153741428Y-102917333D01*
X153503333Y-102917333D01*
X153312857Y-102869714D01*
X153217619Y-102822095D01*
X153170000Y-102774476D01*
X153122380Y-102679238D01*
X154027142Y-101917333D02*
X154074761Y-101869714D01*
X154122380Y-101917333D01*
X154074761Y-101964952D01*
X154027142Y-101917333D01*
X154122380Y-101917333D01*
X154122380Y-100917333D02*
X154122380Y-101488761D01*
X154122380Y-101203047D02*
X153122380Y-101203047D01*
X153265238Y-101298285D01*
X153360476Y-101393523D01*
X153408095Y-101488761D01*
X153455714Y-99726857D02*
X154455714Y-99726857D01*
X153979523Y-99250666D02*
X154074761Y-99203047D01*
X154122380Y-99107809D01*
X153979523Y-99726857D02*
X154074761Y-99679238D01*
X154122380Y-99584000D01*
X154122380Y-99393523D01*
X154074761Y-99298285D01*
X153979523Y-99250666D01*
X153455714Y-99250666D01*
X153598571Y-98345904D02*
X153598571Y-98679238D01*
X154122380Y-98679238D02*
X153122380Y-98679238D01*
X153122380Y-98203047D01*
X161353714Y-122134380D02*
X161448952Y-122134380D01*
X161544190Y-122182000D01*
X161591809Y-122229619D01*
X161639428Y-122324857D01*
X161687047Y-122515333D01*
X161687047Y-122753428D01*
X161639428Y-122943904D01*
X161591809Y-123039142D01*
X161544190Y-123086761D01*
X161448952Y-123134380D01*
X161353714Y-123134380D01*
X161258476Y-123086761D01*
X161210857Y-123039142D01*
X161163238Y-122943904D01*
X161115619Y-122753428D01*
X161115619Y-122515333D01*
X161163238Y-122324857D01*
X161210857Y-122229619D01*
X161258476Y-122182000D01*
X161353714Y-122134380D01*
X162115619Y-123039142D02*
X162163238Y-123086761D01*
X162115619Y-123134380D01*
X162068000Y-123086761D01*
X162115619Y-123039142D01*
X162115619Y-123134380D01*
X163115619Y-123134380D02*
X162544190Y-123134380D01*
X162829904Y-123134380D02*
X162829904Y-122134380D01*
X162734666Y-122277238D01*
X162639428Y-122372476D01*
X162544190Y-122420095D01*
X163544190Y-122467714D02*
X163544190Y-123467714D01*
X164020380Y-122991523D02*
X164068000Y-123086761D01*
X164163238Y-123134380D01*
X163544190Y-122991523D02*
X163591809Y-123086761D01*
X163687047Y-123134380D01*
X163877523Y-123134380D01*
X163972761Y-123086761D01*
X164020380Y-122991523D01*
X164020380Y-122467714D01*
X164925142Y-122610571D02*
X164591809Y-122610571D01*
X164591809Y-123134380D02*
X164591809Y-122134380D01*
X165068000Y-122134380D01*
X158694380Y-124729809D02*
X157694380Y-124729809D01*
X158694380Y-124253619D02*
X157694380Y-124253619D01*
X158694380Y-123682190D01*
X157694380Y-123682190D01*
X149820380Y-124698000D02*
X149820380Y-124507523D01*
X149868000Y-124412285D01*
X149963238Y-124317047D01*
X150153714Y-124269428D01*
X150487047Y-124269428D01*
X150677523Y-124317047D01*
X150772761Y-124412285D01*
X150820380Y-124507523D01*
X150820380Y-124698000D01*
X150772761Y-124793238D01*
X150677523Y-124888476D01*
X150487047Y-124936095D01*
X150153714Y-124936095D01*
X149963238Y-124888476D01*
X149868000Y-124793238D01*
X149820380Y-124698000D01*
X149820380Y-123840857D02*
X150629904Y-123840857D01*
X150725142Y-123793238D01*
X150772761Y-123745619D01*
X150820380Y-123650380D01*
X150820380Y-123459904D01*
X150772761Y-123364666D01*
X150725142Y-123317047D01*
X150629904Y-123269428D01*
X149820380Y-123269428D01*
X149820380Y-122936095D02*
X149820380Y-122364666D01*
X150820380Y-122650380D02*
X149820380Y-122650380D01*
X145954857Y-98369428D02*
X146716761Y-98369428D01*
X146335809Y-98750380D02*
X146335809Y-97988476D01*
X147669142Y-97750380D02*
X147192952Y-97750380D01*
X147145333Y-98226571D01*
X147192952Y-98178952D01*
X147288190Y-98131333D01*
X147526285Y-98131333D01*
X147621523Y-98178952D01*
X147669142Y-98226571D01*
X147716761Y-98321809D01*
X147716761Y-98559904D01*
X147669142Y-98655142D01*
X147621523Y-98702761D01*
X147526285Y-98750380D01*
X147288190Y-98750380D01*
X147192952Y-98702761D01*
X147145333Y-98655142D01*
X162464857Y-98369428D02*
X163226761Y-98369428D01*
X164179142Y-97750380D02*
X163702952Y-97750380D01*
X163655333Y-98226571D01*
X163702952Y-98178952D01*
X163798190Y-98131333D01*
X164036285Y-98131333D01*
X164131523Y-98178952D01*
X164179142Y-98226571D01*
X164226761Y-98321809D01*
X164226761Y-98559904D01*
X164179142Y-98655142D01*
X164131523Y-98702761D01*
X164036285Y-98750380D01*
X163798190Y-98750380D01*
X163702952Y-98702761D01*
X163655333Y-98655142D01*
X150622095Y-96528000D02*
X150526857Y-96480380D01*
X150384000Y-96480380D01*
X150241142Y-96528000D01*
X150145904Y-96623238D01*
X150098285Y-96718476D01*
X150050666Y-96908952D01*
X150050666Y-97051809D01*
X150098285Y-97242285D01*
X150145904Y-97337523D01*
X150241142Y-97432761D01*
X150384000Y-97480380D01*
X150479238Y-97480380D01*
X150622095Y-97432761D01*
X150669714Y-97385142D01*
X150669714Y-97051809D01*
X150479238Y-97051809D01*
X151098285Y-97480380D02*
X151098285Y-96480380D01*
X151669714Y-97480380D01*
X151669714Y-96480380D01*
X152145904Y-97480380D02*
X152145904Y-96480380D01*
X152384000Y-96480380D01*
X152526857Y-96528000D01*
X152622095Y-96623238D01*
X152669714Y-96718476D01*
X152717333Y-96908952D01*
X152717333Y-97051809D01*
X152669714Y-97242285D01*
X152622095Y-97337523D01*
X152526857Y-97432761D01*
X152384000Y-97480380D01*
X152145904Y-97480380D01*
X161996380Y-110227809D02*
X161996380Y-110799238D01*
X161996380Y-110513523D02*
X160996380Y-110513523D01*
X161139238Y-110608761D01*
X161234476Y-110704000D01*
X161282095Y-110799238D01*
X160996380Y-109608761D02*
X160996380Y-109513523D01*
X161044000Y-109418285D01*
X161091619Y-109370666D01*
X161186857Y-109323047D01*
X161377333Y-109275428D01*
X161615428Y-109275428D01*
X161805904Y-109323047D01*
X161901142Y-109370666D01*
X161948761Y-109418285D01*
X161996380Y-109513523D01*
X161996380Y-109608761D01*
X161948761Y-109704000D01*
X161901142Y-109751619D01*
X161805904Y-109799238D01*
X161615428Y-109846857D01*
X161377333Y-109846857D01*
X161186857Y-109799238D01*
X161091619Y-109751619D01*
X161044000Y-109704000D01*
X160996380Y-109608761D01*
X160996380Y-108656380D02*
X160996380Y-108561142D01*
X161044000Y-108465904D01*
X161091619Y-108418285D01*
X161186857Y-108370666D01*
X161377333Y-108323047D01*
X161615428Y-108323047D01*
X161805904Y-108370666D01*
X161901142Y-108418285D01*
X161948761Y-108465904D01*
X161996380Y-108561142D01*
X161996380Y-108656380D01*
X161948761Y-108751619D01*
X161901142Y-108799238D01*
X161805904Y-108846857D01*
X161615428Y-108894476D01*
X161377333Y-108894476D01*
X161186857Y-108846857D01*
X161091619Y-108799238D01*
X161044000Y-108751619D01*
X160996380Y-108656380D01*
X161996380Y-107132571D02*
X160996380Y-107132571D01*
X161615428Y-107037333D02*
X161996380Y-106751619D01*
X161329714Y-106751619D02*
X161710666Y-107132571D01*
X161996380Y-106370666D02*
X161996380Y-106132571D01*
X161805904Y-106132571D01*
X161758285Y-106227809D01*
X161663047Y-106323047D01*
X161520190Y-106370666D01*
X161282095Y-106370666D01*
X161139238Y-106323047D01*
X161044000Y-106227809D01*
X160996380Y-106084952D01*
X160996380Y-105894476D01*
X161044000Y-105751619D01*
X161139238Y-105656380D01*
X161282095Y-105608761D01*
X161520190Y-105608761D01*
X161663047Y-105656380D01*
X161758285Y-105751619D01*
X161805904Y-105846857D01*
X161996380Y-105846857D01*
X161996380Y-105608761D01*
X164393619Y-110799238D02*
X164346000Y-110751619D01*
X164298380Y-110656380D01*
X164298380Y-110418285D01*
X164346000Y-110323047D01*
X164393619Y-110275428D01*
X164488857Y-110227809D01*
X164584095Y-110227809D01*
X164726952Y-110275428D01*
X165298380Y-110846857D01*
X165298380Y-110227809D01*
X164298380Y-109608761D02*
X164298380Y-109513523D01*
X164346000Y-109418285D01*
X164393619Y-109370666D01*
X164488857Y-109323047D01*
X164679333Y-109275428D01*
X164917428Y-109275428D01*
X165107904Y-109323047D01*
X165203142Y-109370666D01*
X165250761Y-109418285D01*
X165298380Y-109513523D01*
X165298380Y-109608761D01*
X165250761Y-109704000D01*
X165203142Y-109751619D01*
X165107904Y-109799238D01*
X164917428Y-109846857D01*
X164679333Y-109846857D01*
X164488857Y-109799238D01*
X164393619Y-109751619D01*
X164346000Y-109704000D01*
X164298380Y-109608761D01*
X164298380Y-108656380D02*
X164298380Y-108561142D01*
X164346000Y-108465904D01*
X164393619Y-108418285D01*
X164488857Y-108370666D01*
X164679333Y-108323047D01*
X164917428Y-108323047D01*
X165107904Y-108370666D01*
X165203142Y-108418285D01*
X165250761Y-108465904D01*
X165298380Y-108561142D01*
X165298380Y-108656380D01*
X165250761Y-108751619D01*
X165203142Y-108799238D01*
X165107904Y-108846857D01*
X164917428Y-108894476D01*
X164679333Y-108894476D01*
X164488857Y-108846857D01*
X164393619Y-108799238D01*
X164346000Y-108751619D01*
X164298380Y-108656380D01*
X165298380Y-107132571D02*
X164298380Y-107132571D01*
X164917428Y-107037333D02*
X165298380Y-106751619D01*
X164631714Y-106751619D02*
X165012666Y-107132571D01*
X165298380Y-106370666D02*
X165298380Y-106132571D01*
X165107904Y-106132571D01*
X165060285Y-106227809D01*
X164965047Y-106323047D01*
X164822190Y-106370666D01*
X164584095Y-106370666D01*
X164441238Y-106323047D01*
X164346000Y-106227809D01*
X164298380Y-106084952D01*
X164298380Y-105894476D01*
X164346000Y-105751619D01*
X164441238Y-105656380D01*
X164584095Y-105608761D01*
X164822190Y-105608761D01*
X164965047Y-105656380D01*
X165060285Y-105751619D01*
X165107904Y-105846857D01*
X165298380Y-105846857D01*
X165298380Y-105608761D01*
X145248380Y-110370666D02*
X145248380Y-109751619D01*
X145629333Y-110084952D01*
X145629333Y-109942095D01*
X145676952Y-109846857D01*
X145724571Y-109799238D01*
X145819809Y-109751619D01*
X146057904Y-109751619D01*
X146153142Y-109799238D01*
X146200761Y-109846857D01*
X146248380Y-109942095D01*
X146248380Y-110227809D01*
X146200761Y-110323047D01*
X146153142Y-110370666D01*
X145248380Y-109418285D02*
X145248380Y-108799238D01*
X145629333Y-109132571D01*
X145629333Y-108989714D01*
X145676952Y-108894476D01*
X145724571Y-108846857D01*
X145819809Y-108799238D01*
X146057904Y-108799238D01*
X146153142Y-108846857D01*
X146200761Y-108894476D01*
X146248380Y-108989714D01*
X146248380Y-109275428D01*
X146200761Y-109370666D01*
X146153142Y-109418285D01*
X146248380Y-107608761D02*
X145248380Y-107608761D01*
X145867428Y-107513523D02*
X146248380Y-107227809D01*
X145581714Y-107227809D02*
X145962666Y-107608761D01*
X146248380Y-106846857D02*
X146248380Y-106608761D01*
X146057904Y-106608761D01*
X146010285Y-106704000D01*
X145915047Y-106799238D01*
X145772190Y-106846857D01*
X145534095Y-106846857D01*
X145391238Y-106799238D01*
X145296000Y-106704000D01*
X145248380Y-106561142D01*
X145248380Y-106370666D01*
X145296000Y-106227809D01*
X145391238Y-106132571D01*
X145534095Y-106084952D01*
X145772190Y-106084952D01*
X145915047Y-106132571D01*
X146010285Y-106227809D01*
X146057904Y-106323047D01*
X146248380Y-106323047D01*
X146248380Y-106084952D01*
M02*
