M48
; DRILL file {KiCad (5.1.5)-3} date 6/8/2020 3:17:41 PM
; FORMAT={-:-/ absolute / inch / decimal}
; #@! TF.CreationDate,2020-06-08T15:17:41-04:00
; #@! TF.GenerationSoftware,Kicad,Pcbnew,(5.1.5)-3
FMAT,2
INCH
T1C0.0157
T2C0.0315
T3C0.0394
%
G90
G05
T1
X5.76Y-4.45
X5.94Y-4.75
X6.12Y-4.32
X6.26Y-4.82
X6.28Y-4.54
T2
X5.74Y-3.96
X5.74Y-4.56
X6.49Y-3.96
X6.49Y-4.56
X5.9Y-4.15
X5.9Y-4.55
X6.0Y-4.15
X6.0Y-4.55
X6.1Y-4.15
X6.1Y-4.55
X6.2Y-4.15
X6.2Y-4.55
X6.36Y-3.96
X6.36Y-4.56
T3
X6.42Y-4.74
X6.42Y-4.9369
X5.95Y-3.96
X6.1469Y-3.96
T0
M30
