G04 #@! TF.GenerationSoftware,KiCad,Pcbnew,(5.1.5)-3*
G04 #@! TF.CreationDate,2020-06-08T15:17:39-04:00*
G04 #@! TF.ProjectId,Vextrex Buzz Fix,56657874-7265-4782-9042-757a7a204669,rev?*
G04 #@! TF.SameCoordinates,Original*
G04 #@! TF.FileFunction,Copper,L2,Bot*
G04 #@! TF.FilePolarity,Positive*
%FSLAX46Y46*%
G04 Gerber Fmt 4.6, Leading zero omitted, Abs format (unit mm)*
G04 Created by KiCad (PCBNEW (5.1.5)-3) date 2020-06-08 15:17:39*
%MOMM*%
%LPD*%
G04 APERTURE LIST*
%ADD10C,0.300000*%
%ADD11R,1.600000X1.600000*%
%ADD12O,1.600000X1.600000*%
%ADD13C,2.000000*%
%ADD14C,1.600000*%
%ADD15C,0.600000*%
%ADD16C,0.250000*%
%ADD17C,0.254000*%
G04 APERTURE END LIST*
D10*
X148967000Y-126932571D02*
X148609857Y-127932571D01*
X148252714Y-126932571D01*
X146895571Y-127932571D02*
X147752714Y-127932571D01*
X147324142Y-127932571D02*
X147324142Y-126432571D01*
X147467000Y-126646857D01*
X147609857Y-126789714D01*
X147752714Y-126861142D01*
X146252714Y-127789714D02*
X146181285Y-127861142D01*
X146252714Y-127932571D01*
X146324142Y-127861142D01*
X146252714Y-127789714D01*
X146252714Y-127932571D01*
X145252714Y-126432571D02*
X145109857Y-126432571D01*
X144967000Y-126504000D01*
X144895571Y-126575428D01*
X144824142Y-126718285D01*
X144752714Y-127004000D01*
X144752714Y-127361142D01*
X144824142Y-127646857D01*
X144895571Y-127789714D01*
X144967000Y-127861142D01*
X145109857Y-127932571D01*
X145252714Y-127932571D01*
X145395571Y-127861142D01*
X145467000Y-127789714D01*
X145538428Y-127646857D01*
X145609857Y-127361142D01*
X145609857Y-127004000D01*
X145538428Y-126718285D01*
X145467000Y-126575428D01*
X145395571Y-126504000D01*
X145252714Y-126432571D01*
D11*
X149860000Y-115570000D03*
D12*
X157480000Y-105410000D03*
X152400000Y-115570000D03*
X154940000Y-105410000D03*
X154940000Y-115570000D03*
X152400000Y-105410000D03*
X157480000Y-115570000D03*
X149860000Y-105410000D03*
D13*
X151130000Y-100584000D03*
X156130000Y-100584000D03*
X163068000Y-120396000D03*
X163068000Y-125396000D03*
D14*
X161544000Y-115824000D03*
D12*
X161544000Y-100584000D03*
D14*
X164846000Y-115824000D03*
D12*
X164846000Y-100584000D03*
D14*
X145796000Y-115824000D03*
D12*
X145796000Y-100584000D03*
D15*
X159004000Y-122428000D03*
X159512000Y-115316000D03*
X146304000Y-113030000D03*
X150876000Y-120650000D03*
X155448000Y-109728000D03*
D16*
X152400000Y-105410000D02*
X154940000Y-105410000D01*
X161544000Y-115824000D02*
X160782000Y-115824000D01*
X160782000Y-115824000D02*
X159512000Y-117094000D01*
X159512000Y-117094000D02*
X153924000Y-117094000D01*
X153924000Y-117094000D02*
X152400000Y-115570000D01*
X164846000Y-115824000D02*
X162814000Y-113792000D01*
X156210000Y-113792000D02*
X154940000Y-115062000D01*
X162814000Y-113792000D02*
X156210000Y-113792000D01*
X154940000Y-115062000D02*
X154940000Y-115570000D01*
D17*
G36*
X165914000Y-99635814D02*
G01*
X165809414Y-99520481D01*
X165583420Y-99352963D01*
X165329087Y-99232754D01*
X165195039Y-99192096D01*
X164973000Y-99314085D01*
X164973000Y-100457000D01*
X164993000Y-100457000D01*
X164993000Y-100711000D01*
X164973000Y-100711000D01*
X164973000Y-101853915D01*
X165195039Y-101975904D01*
X165329087Y-101935246D01*
X165583420Y-101815037D01*
X165809414Y-101647519D01*
X165914000Y-101532186D01*
X165914001Y-114862605D01*
X165760759Y-114709363D01*
X165525727Y-114552320D01*
X165264574Y-114444147D01*
X164987335Y-114389000D01*
X164704665Y-114389000D01*
X164522114Y-114425312D01*
X163377804Y-113281003D01*
X163354001Y-113251999D01*
X163238276Y-113157026D01*
X163106247Y-113086454D01*
X162962986Y-113042997D01*
X162851333Y-113032000D01*
X162851322Y-113032000D01*
X162814000Y-113028324D01*
X162776678Y-113032000D01*
X156247322Y-113032000D01*
X156209999Y-113028324D01*
X156172676Y-113032000D01*
X156172667Y-113032000D01*
X156061014Y-113042997D01*
X155917753Y-113086454D01*
X155785724Y-113157026D01*
X155669999Y-113251999D01*
X155646201Y-113280997D01*
X154790593Y-114136606D01*
X154521426Y-114190147D01*
X154260273Y-114298320D01*
X154025241Y-114455363D01*
X153825363Y-114655241D01*
X153670000Y-114887759D01*
X153514637Y-114655241D01*
X153314759Y-114455363D01*
X153079727Y-114298320D01*
X152818574Y-114190147D01*
X152541335Y-114135000D01*
X152258665Y-114135000D01*
X151981426Y-114190147D01*
X151720273Y-114298320D01*
X151485241Y-114455363D01*
X151286643Y-114653961D01*
X151285812Y-114645518D01*
X151249502Y-114525820D01*
X151190537Y-114415506D01*
X151111185Y-114318815D01*
X151014494Y-114239463D01*
X150904180Y-114180498D01*
X150784482Y-114144188D01*
X150660000Y-114131928D01*
X149060000Y-114131928D01*
X148935518Y-114144188D01*
X148815820Y-114180498D01*
X148705506Y-114239463D01*
X148608815Y-114318815D01*
X148529463Y-114415506D01*
X148470498Y-114525820D01*
X148434188Y-114645518D01*
X148421928Y-114770000D01*
X148421928Y-116370000D01*
X148434188Y-116494482D01*
X148470498Y-116614180D01*
X148529463Y-116724494D01*
X148608815Y-116821185D01*
X148705506Y-116900537D01*
X148815820Y-116959502D01*
X148935518Y-116995812D01*
X149060000Y-117008072D01*
X150660000Y-117008072D01*
X150784482Y-116995812D01*
X150904180Y-116959502D01*
X151014494Y-116900537D01*
X151111185Y-116821185D01*
X151190537Y-116724494D01*
X151249502Y-116614180D01*
X151285812Y-116494482D01*
X151286643Y-116486039D01*
X151485241Y-116684637D01*
X151720273Y-116841680D01*
X151981426Y-116949853D01*
X152258665Y-117005000D01*
X152541335Y-117005000D01*
X152723886Y-116968688D01*
X153360205Y-117605008D01*
X153383999Y-117634001D01*
X153412992Y-117657795D01*
X153412996Y-117657799D01*
X153483685Y-117715811D01*
X153499724Y-117728974D01*
X153631753Y-117799546D01*
X153775014Y-117843003D01*
X153886667Y-117854000D01*
X153886676Y-117854000D01*
X153923999Y-117857676D01*
X153961322Y-117854000D01*
X159474678Y-117854000D01*
X159512000Y-117857676D01*
X159549322Y-117854000D01*
X159549333Y-117854000D01*
X159660986Y-117843003D01*
X159804247Y-117799546D01*
X159936276Y-117728974D01*
X160052001Y-117634001D01*
X160075804Y-117604997D01*
X160696934Y-116983868D01*
X160864273Y-117095680D01*
X161125426Y-117203853D01*
X161402665Y-117259000D01*
X161685335Y-117259000D01*
X161962574Y-117203853D01*
X162223727Y-117095680D01*
X162458759Y-116938637D01*
X162658637Y-116738759D01*
X162815680Y-116503727D01*
X162923853Y-116242574D01*
X162979000Y-115965335D01*
X162979000Y-115682665D01*
X162923853Y-115405426D01*
X162815680Y-115144273D01*
X162658637Y-114909241D01*
X162458759Y-114709363D01*
X162223727Y-114552320D01*
X162222954Y-114552000D01*
X162499199Y-114552000D01*
X163447312Y-115500114D01*
X163411000Y-115682665D01*
X163411000Y-115965335D01*
X163466147Y-116242574D01*
X163574320Y-116503727D01*
X163731363Y-116738759D01*
X163931241Y-116938637D01*
X164166273Y-117095680D01*
X164427426Y-117203853D01*
X164704665Y-117259000D01*
X164987335Y-117259000D01*
X165264574Y-117203853D01*
X165525727Y-117095680D01*
X165760759Y-116938637D01*
X165914001Y-116785395D01*
X165914001Y-127814000D01*
X149921286Y-127814000D01*
X149921286Y-126531413D01*
X162112192Y-126531413D01*
X162207956Y-126795814D01*
X162497571Y-126936704D01*
X162809108Y-127018384D01*
X163130595Y-127037718D01*
X163449675Y-126993961D01*
X163754088Y-126888795D01*
X163928044Y-126795814D01*
X164023808Y-126531413D01*
X163068000Y-125575605D01*
X162112192Y-126531413D01*
X149921286Y-126531413D01*
X149921286Y-125464000D01*
X144474000Y-125464000D01*
X144474000Y-125458595D01*
X161426282Y-125458595D01*
X161470039Y-125777675D01*
X161575205Y-126082088D01*
X161668186Y-126256044D01*
X161932587Y-126351808D01*
X162888395Y-125396000D01*
X163247605Y-125396000D01*
X164203413Y-126351808D01*
X164467814Y-126256044D01*
X164608704Y-125966429D01*
X164690384Y-125654892D01*
X164709718Y-125333405D01*
X164665961Y-125014325D01*
X164560795Y-124709912D01*
X164467814Y-124535956D01*
X164203413Y-124440192D01*
X163247605Y-125396000D01*
X162888395Y-125396000D01*
X161932587Y-124440192D01*
X161668186Y-124535956D01*
X161527296Y-124825571D01*
X161445616Y-125137108D01*
X161426282Y-125458595D01*
X144474000Y-125458595D01*
X144474000Y-124260587D01*
X162112192Y-124260587D01*
X163068000Y-125216395D01*
X164023808Y-124260587D01*
X163928044Y-123996186D01*
X163638429Y-123855296D01*
X163326892Y-123773616D01*
X163005405Y-123754282D01*
X162686325Y-123798039D01*
X162381912Y-123903205D01*
X162207956Y-123996186D01*
X162112192Y-124260587D01*
X144474000Y-124260587D01*
X144474000Y-120234967D01*
X161433000Y-120234967D01*
X161433000Y-120557033D01*
X161495832Y-120872912D01*
X161619082Y-121170463D01*
X161798013Y-121438252D01*
X162025748Y-121665987D01*
X162293537Y-121844918D01*
X162591088Y-121968168D01*
X162906967Y-122031000D01*
X163229033Y-122031000D01*
X163544912Y-121968168D01*
X163842463Y-121844918D01*
X164110252Y-121665987D01*
X164337987Y-121438252D01*
X164516918Y-121170463D01*
X164640168Y-120872912D01*
X164703000Y-120557033D01*
X164703000Y-120234967D01*
X164640168Y-119919088D01*
X164516918Y-119621537D01*
X164337987Y-119353748D01*
X164110252Y-119126013D01*
X163842463Y-118947082D01*
X163544912Y-118823832D01*
X163229033Y-118761000D01*
X162906967Y-118761000D01*
X162591088Y-118823832D01*
X162293537Y-118947082D01*
X162025748Y-119126013D01*
X161798013Y-119353748D01*
X161619082Y-119621537D01*
X161495832Y-119919088D01*
X161433000Y-120234967D01*
X144474000Y-120234967D01*
X144474000Y-116382244D01*
X144524320Y-116503727D01*
X144681363Y-116738759D01*
X144881241Y-116938637D01*
X145116273Y-117095680D01*
X145377426Y-117203853D01*
X145654665Y-117259000D01*
X145937335Y-117259000D01*
X146214574Y-117203853D01*
X146475727Y-117095680D01*
X146710759Y-116938637D01*
X146910637Y-116738759D01*
X147067680Y-116503727D01*
X147175853Y-116242574D01*
X147231000Y-115965335D01*
X147231000Y-115682665D01*
X147175853Y-115405426D01*
X147067680Y-115144273D01*
X146910637Y-114909241D01*
X146710759Y-114709363D01*
X146475727Y-114552320D01*
X146214574Y-114444147D01*
X145937335Y-114389000D01*
X145654665Y-114389000D01*
X145377426Y-114444147D01*
X145116273Y-114552320D01*
X144881241Y-114709363D01*
X144681363Y-114909241D01*
X144524320Y-115144273D01*
X144474000Y-115265756D01*
X144474000Y-105268665D01*
X148425000Y-105268665D01*
X148425000Y-105551335D01*
X148480147Y-105828574D01*
X148588320Y-106089727D01*
X148745363Y-106324759D01*
X148945241Y-106524637D01*
X149180273Y-106681680D01*
X149441426Y-106789853D01*
X149718665Y-106845000D01*
X150001335Y-106845000D01*
X150278574Y-106789853D01*
X150539727Y-106681680D01*
X150774759Y-106524637D01*
X150974637Y-106324759D01*
X151130000Y-106092241D01*
X151285363Y-106324759D01*
X151485241Y-106524637D01*
X151720273Y-106681680D01*
X151981426Y-106789853D01*
X152258665Y-106845000D01*
X152541335Y-106845000D01*
X152818574Y-106789853D01*
X153079727Y-106681680D01*
X153314759Y-106524637D01*
X153514637Y-106324759D01*
X153618043Y-106170000D01*
X153721957Y-106170000D01*
X153825363Y-106324759D01*
X154025241Y-106524637D01*
X154260273Y-106681680D01*
X154521426Y-106789853D01*
X154798665Y-106845000D01*
X155081335Y-106845000D01*
X155358574Y-106789853D01*
X155619727Y-106681680D01*
X155854759Y-106524637D01*
X156054637Y-106324759D01*
X156211680Y-106089727D01*
X156216067Y-106079135D01*
X156327615Y-106265131D01*
X156516586Y-106473519D01*
X156742580Y-106641037D01*
X156996913Y-106761246D01*
X157130961Y-106801904D01*
X157353000Y-106679915D01*
X157353000Y-105537000D01*
X157607000Y-105537000D01*
X157607000Y-106679915D01*
X157829039Y-106801904D01*
X157963087Y-106761246D01*
X158217420Y-106641037D01*
X158443414Y-106473519D01*
X158632385Y-106265131D01*
X158777070Y-106023881D01*
X158871909Y-105759040D01*
X158750624Y-105537000D01*
X157607000Y-105537000D01*
X157353000Y-105537000D01*
X157333000Y-105537000D01*
X157333000Y-105283000D01*
X157353000Y-105283000D01*
X157353000Y-104140085D01*
X157607000Y-104140085D01*
X157607000Y-105283000D01*
X158750624Y-105283000D01*
X158871909Y-105060960D01*
X158777070Y-104796119D01*
X158632385Y-104554869D01*
X158443414Y-104346481D01*
X158217420Y-104178963D01*
X157963087Y-104058754D01*
X157829039Y-104018096D01*
X157607000Y-104140085D01*
X157353000Y-104140085D01*
X157130961Y-104018096D01*
X156996913Y-104058754D01*
X156742580Y-104178963D01*
X156516586Y-104346481D01*
X156327615Y-104554869D01*
X156216067Y-104740865D01*
X156211680Y-104730273D01*
X156054637Y-104495241D01*
X155854759Y-104295363D01*
X155619727Y-104138320D01*
X155358574Y-104030147D01*
X155081335Y-103975000D01*
X154798665Y-103975000D01*
X154521426Y-104030147D01*
X154260273Y-104138320D01*
X154025241Y-104295363D01*
X153825363Y-104495241D01*
X153721957Y-104650000D01*
X153618043Y-104650000D01*
X153514637Y-104495241D01*
X153314759Y-104295363D01*
X153079727Y-104138320D01*
X152818574Y-104030147D01*
X152541335Y-103975000D01*
X152258665Y-103975000D01*
X151981426Y-104030147D01*
X151720273Y-104138320D01*
X151485241Y-104295363D01*
X151285363Y-104495241D01*
X151130000Y-104727759D01*
X150974637Y-104495241D01*
X150774759Y-104295363D01*
X150539727Y-104138320D01*
X150278574Y-104030147D01*
X150001335Y-103975000D01*
X149718665Y-103975000D01*
X149441426Y-104030147D01*
X149180273Y-104138320D01*
X148945241Y-104295363D01*
X148745363Y-104495241D01*
X148588320Y-104730273D01*
X148480147Y-104991426D01*
X148425000Y-105268665D01*
X144474000Y-105268665D01*
X144474000Y-101142244D01*
X144524320Y-101263727D01*
X144681363Y-101498759D01*
X144881241Y-101698637D01*
X145116273Y-101855680D01*
X145377426Y-101963853D01*
X145654665Y-102019000D01*
X145937335Y-102019000D01*
X146214574Y-101963853D01*
X146475727Y-101855680D01*
X146710759Y-101698637D01*
X146910637Y-101498759D01*
X147067680Y-101263727D01*
X147175853Y-101002574D01*
X147231000Y-100725335D01*
X147231000Y-100442665D01*
X147227082Y-100422967D01*
X149495000Y-100422967D01*
X149495000Y-100745033D01*
X149557832Y-101060912D01*
X149681082Y-101358463D01*
X149860013Y-101626252D01*
X150087748Y-101853987D01*
X150355537Y-102032918D01*
X150653088Y-102156168D01*
X150968967Y-102219000D01*
X151291033Y-102219000D01*
X151606912Y-102156168D01*
X151904463Y-102032918D01*
X152172252Y-101853987D01*
X152306826Y-101719413D01*
X155174192Y-101719413D01*
X155269956Y-101983814D01*
X155559571Y-102124704D01*
X155871108Y-102206384D01*
X156192595Y-102225718D01*
X156511675Y-102181961D01*
X156816088Y-102076795D01*
X156990044Y-101983814D01*
X157085808Y-101719413D01*
X156130000Y-100763605D01*
X155174192Y-101719413D01*
X152306826Y-101719413D01*
X152399987Y-101626252D01*
X152578918Y-101358463D01*
X152702168Y-101060912D01*
X152765000Y-100745033D01*
X152765000Y-100646595D01*
X154488282Y-100646595D01*
X154532039Y-100965675D01*
X154637205Y-101270088D01*
X154730186Y-101444044D01*
X154994587Y-101539808D01*
X155950395Y-100584000D01*
X156309605Y-100584000D01*
X157265413Y-101539808D01*
X157529814Y-101444044D01*
X157670704Y-101154429D01*
X157728748Y-100933040D01*
X160152091Y-100933040D01*
X160246930Y-101197881D01*
X160391615Y-101439131D01*
X160580586Y-101647519D01*
X160806580Y-101815037D01*
X161060913Y-101935246D01*
X161194961Y-101975904D01*
X161417000Y-101853915D01*
X161417000Y-100711000D01*
X161671000Y-100711000D01*
X161671000Y-101853915D01*
X161893039Y-101975904D01*
X162027087Y-101935246D01*
X162281420Y-101815037D01*
X162507414Y-101647519D01*
X162696385Y-101439131D01*
X162841070Y-101197881D01*
X162935909Y-100933040D01*
X163454091Y-100933040D01*
X163548930Y-101197881D01*
X163693615Y-101439131D01*
X163882586Y-101647519D01*
X164108580Y-101815037D01*
X164362913Y-101935246D01*
X164496961Y-101975904D01*
X164719000Y-101853915D01*
X164719000Y-100711000D01*
X163575376Y-100711000D01*
X163454091Y-100933040D01*
X162935909Y-100933040D01*
X162814624Y-100711000D01*
X161671000Y-100711000D01*
X161417000Y-100711000D01*
X160273376Y-100711000D01*
X160152091Y-100933040D01*
X157728748Y-100933040D01*
X157752384Y-100842892D01*
X157771718Y-100521405D01*
X157732437Y-100234960D01*
X160152091Y-100234960D01*
X160273376Y-100457000D01*
X161417000Y-100457000D01*
X161417000Y-99314085D01*
X161671000Y-99314085D01*
X161671000Y-100457000D01*
X162814624Y-100457000D01*
X162935909Y-100234960D01*
X163454091Y-100234960D01*
X163575376Y-100457000D01*
X164719000Y-100457000D01*
X164719000Y-99314085D01*
X164496961Y-99192096D01*
X164362913Y-99232754D01*
X164108580Y-99352963D01*
X163882586Y-99520481D01*
X163693615Y-99728869D01*
X163548930Y-99970119D01*
X163454091Y-100234960D01*
X162935909Y-100234960D01*
X162841070Y-99970119D01*
X162696385Y-99728869D01*
X162507414Y-99520481D01*
X162281420Y-99352963D01*
X162027087Y-99232754D01*
X161893039Y-99192096D01*
X161671000Y-99314085D01*
X161417000Y-99314085D01*
X161194961Y-99192096D01*
X161060913Y-99232754D01*
X160806580Y-99352963D01*
X160580586Y-99520481D01*
X160391615Y-99728869D01*
X160246930Y-99970119D01*
X160152091Y-100234960D01*
X157732437Y-100234960D01*
X157727961Y-100202325D01*
X157622795Y-99897912D01*
X157529814Y-99723956D01*
X157265413Y-99628192D01*
X156309605Y-100584000D01*
X155950395Y-100584000D01*
X154994587Y-99628192D01*
X154730186Y-99723956D01*
X154589296Y-100013571D01*
X154507616Y-100325108D01*
X154488282Y-100646595D01*
X152765000Y-100646595D01*
X152765000Y-100422967D01*
X152702168Y-100107088D01*
X152578918Y-99809537D01*
X152399987Y-99541748D01*
X152306826Y-99448587D01*
X155174192Y-99448587D01*
X156130000Y-100404395D01*
X157085808Y-99448587D01*
X156990044Y-99184186D01*
X156700429Y-99043296D01*
X156388892Y-98961616D01*
X156067405Y-98942282D01*
X155748325Y-98986039D01*
X155443912Y-99091205D01*
X155269956Y-99184186D01*
X155174192Y-99448587D01*
X152306826Y-99448587D01*
X152172252Y-99314013D01*
X151904463Y-99135082D01*
X151606912Y-99011832D01*
X151291033Y-98949000D01*
X150968967Y-98949000D01*
X150653088Y-99011832D01*
X150355537Y-99135082D01*
X150087748Y-99314013D01*
X149860013Y-99541748D01*
X149681082Y-99809537D01*
X149557832Y-100107088D01*
X149495000Y-100422967D01*
X147227082Y-100422967D01*
X147175853Y-100165426D01*
X147067680Y-99904273D01*
X146910637Y-99669241D01*
X146710759Y-99469363D01*
X146475727Y-99312320D01*
X146214574Y-99204147D01*
X145937335Y-99149000D01*
X145654665Y-99149000D01*
X145377426Y-99204147D01*
X145116273Y-99312320D01*
X144881241Y-99469363D01*
X144681363Y-99669241D01*
X144524320Y-99904273D01*
X144474000Y-100025756D01*
X144474000Y-87578000D01*
X165914000Y-87578000D01*
X165914000Y-99635814D01*
G37*
X165914000Y-99635814D02*
X165809414Y-99520481D01*
X165583420Y-99352963D01*
X165329087Y-99232754D01*
X165195039Y-99192096D01*
X164973000Y-99314085D01*
X164973000Y-100457000D01*
X164993000Y-100457000D01*
X164993000Y-100711000D01*
X164973000Y-100711000D01*
X164973000Y-101853915D01*
X165195039Y-101975904D01*
X165329087Y-101935246D01*
X165583420Y-101815037D01*
X165809414Y-101647519D01*
X165914000Y-101532186D01*
X165914001Y-114862605D01*
X165760759Y-114709363D01*
X165525727Y-114552320D01*
X165264574Y-114444147D01*
X164987335Y-114389000D01*
X164704665Y-114389000D01*
X164522114Y-114425312D01*
X163377804Y-113281003D01*
X163354001Y-113251999D01*
X163238276Y-113157026D01*
X163106247Y-113086454D01*
X162962986Y-113042997D01*
X162851333Y-113032000D01*
X162851322Y-113032000D01*
X162814000Y-113028324D01*
X162776678Y-113032000D01*
X156247322Y-113032000D01*
X156209999Y-113028324D01*
X156172676Y-113032000D01*
X156172667Y-113032000D01*
X156061014Y-113042997D01*
X155917753Y-113086454D01*
X155785724Y-113157026D01*
X155669999Y-113251999D01*
X155646201Y-113280997D01*
X154790593Y-114136606D01*
X154521426Y-114190147D01*
X154260273Y-114298320D01*
X154025241Y-114455363D01*
X153825363Y-114655241D01*
X153670000Y-114887759D01*
X153514637Y-114655241D01*
X153314759Y-114455363D01*
X153079727Y-114298320D01*
X152818574Y-114190147D01*
X152541335Y-114135000D01*
X152258665Y-114135000D01*
X151981426Y-114190147D01*
X151720273Y-114298320D01*
X151485241Y-114455363D01*
X151286643Y-114653961D01*
X151285812Y-114645518D01*
X151249502Y-114525820D01*
X151190537Y-114415506D01*
X151111185Y-114318815D01*
X151014494Y-114239463D01*
X150904180Y-114180498D01*
X150784482Y-114144188D01*
X150660000Y-114131928D01*
X149060000Y-114131928D01*
X148935518Y-114144188D01*
X148815820Y-114180498D01*
X148705506Y-114239463D01*
X148608815Y-114318815D01*
X148529463Y-114415506D01*
X148470498Y-114525820D01*
X148434188Y-114645518D01*
X148421928Y-114770000D01*
X148421928Y-116370000D01*
X148434188Y-116494482D01*
X148470498Y-116614180D01*
X148529463Y-116724494D01*
X148608815Y-116821185D01*
X148705506Y-116900537D01*
X148815820Y-116959502D01*
X148935518Y-116995812D01*
X149060000Y-117008072D01*
X150660000Y-117008072D01*
X150784482Y-116995812D01*
X150904180Y-116959502D01*
X151014494Y-116900537D01*
X151111185Y-116821185D01*
X151190537Y-116724494D01*
X151249502Y-116614180D01*
X151285812Y-116494482D01*
X151286643Y-116486039D01*
X151485241Y-116684637D01*
X151720273Y-116841680D01*
X151981426Y-116949853D01*
X152258665Y-117005000D01*
X152541335Y-117005000D01*
X152723886Y-116968688D01*
X153360205Y-117605008D01*
X153383999Y-117634001D01*
X153412992Y-117657795D01*
X153412996Y-117657799D01*
X153483685Y-117715811D01*
X153499724Y-117728974D01*
X153631753Y-117799546D01*
X153775014Y-117843003D01*
X153886667Y-117854000D01*
X153886676Y-117854000D01*
X153923999Y-117857676D01*
X153961322Y-117854000D01*
X159474678Y-117854000D01*
X159512000Y-117857676D01*
X159549322Y-117854000D01*
X159549333Y-117854000D01*
X159660986Y-117843003D01*
X159804247Y-117799546D01*
X159936276Y-117728974D01*
X160052001Y-117634001D01*
X160075804Y-117604997D01*
X160696934Y-116983868D01*
X160864273Y-117095680D01*
X161125426Y-117203853D01*
X161402665Y-117259000D01*
X161685335Y-117259000D01*
X161962574Y-117203853D01*
X162223727Y-117095680D01*
X162458759Y-116938637D01*
X162658637Y-116738759D01*
X162815680Y-116503727D01*
X162923853Y-116242574D01*
X162979000Y-115965335D01*
X162979000Y-115682665D01*
X162923853Y-115405426D01*
X162815680Y-115144273D01*
X162658637Y-114909241D01*
X162458759Y-114709363D01*
X162223727Y-114552320D01*
X162222954Y-114552000D01*
X162499199Y-114552000D01*
X163447312Y-115500114D01*
X163411000Y-115682665D01*
X163411000Y-115965335D01*
X163466147Y-116242574D01*
X163574320Y-116503727D01*
X163731363Y-116738759D01*
X163931241Y-116938637D01*
X164166273Y-117095680D01*
X164427426Y-117203853D01*
X164704665Y-117259000D01*
X164987335Y-117259000D01*
X165264574Y-117203853D01*
X165525727Y-117095680D01*
X165760759Y-116938637D01*
X165914001Y-116785395D01*
X165914001Y-127814000D01*
X149921286Y-127814000D01*
X149921286Y-126531413D01*
X162112192Y-126531413D01*
X162207956Y-126795814D01*
X162497571Y-126936704D01*
X162809108Y-127018384D01*
X163130595Y-127037718D01*
X163449675Y-126993961D01*
X163754088Y-126888795D01*
X163928044Y-126795814D01*
X164023808Y-126531413D01*
X163068000Y-125575605D01*
X162112192Y-126531413D01*
X149921286Y-126531413D01*
X149921286Y-125464000D01*
X144474000Y-125464000D01*
X144474000Y-125458595D01*
X161426282Y-125458595D01*
X161470039Y-125777675D01*
X161575205Y-126082088D01*
X161668186Y-126256044D01*
X161932587Y-126351808D01*
X162888395Y-125396000D01*
X163247605Y-125396000D01*
X164203413Y-126351808D01*
X164467814Y-126256044D01*
X164608704Y-125966429D01*
X164690384Y-125654892D01*
X164709718Y-125333405D01*
X164665961Y-125014325D01*
X164560795Y-124709912D01*
X164467814Y-124535956D01*
X164203413Y-124440192D01*
X163247605Y-125396000D01*
X162888395Y-125396000D01*
X161932587Y-124440192D01*
X161668186Y-124535956D01*
X161527296Y-124825571D01*
X161445616Y-125137108D01*
X161426282Y-125458595D01*
X144474000Y-125458595D01*
X144474000Y-124260587D01*
X162112192Y-124260587D01*
X163068000Y-125216395D01*
X164023808Y-124260587D01*
X163928044Y-123996186D01*
X163638429Y-123855296D01*
X163326892Y-123773616D01*
X163005405Y-123754282D01*
X162686325Y-123798039D01*
X162381912Y-123903205D01*
X162207956Y-123996186D01*
X162112192Y-124260587D01*
X144474000Y-124260587D01*
X144474000Y-120234967D01*
X161433000Y-120234967D01*
X161433000Y-120557033D01*
X161495832Y-120872912D01*
X161619082Y-121170463D01*
X161798013Y-121438252D01*
X162025748Y-121665987D01*
X162293537Y-121844918D01*
X162591088Y-121968168D01*
X162906967Y-122031000D01*
X163229033Y-122031000D01*
X163544912Y-121968168D01*
X163842463Y-121844918D01*
X164110252Y-121665987D01*
X164337987Y-121438252D01*
X164516918Y-121170463D01*
X164640168Y-120872912D01*
X164703000Y-120557033D01*
X164703000Y-120234967D01*
X164640168Y-119919088D01*
X164516918Y-119621537D01*
X164337987Y-119353748D01*
X164110252Y-119126013D01*
X163842463Y-118947082D01*
X163544912Y-118823832D01*
X163229033Y-118761000D01*
X162906967Y-118761000D01*
X162591088Y-118823832D01*
X162293537Y-118947082D01*
X162025748Y-119126013D01*
X161798013Y-119353748D01*
X161619082Y-119621537D01*
X161495832Y-119919088D01*
X161433000Y-120234967D01*
X144474000Y-120234967D01*
X144474000Y-116382244D01*
X144524320Y-116503727D01*
X144681363Y-116738759D01*
X144881241Y-116938637D01*
X145116273Y-117095680D01*
X145377426Y-117203853D01*
X145654665Y-117259000D01*
X145937335Y-117259000D01*
X146214574Y-117203853D01*
X146475727Y-117095680D01*
X146710759Y-116938637D01*
X146910637Y-116738759D01*
X147067680Y-116503727D01*
X147175853Y-116242574D01*
X147231000Y-115965335D01*
X147231000Y-115682665D01*
X147175853Y-115405426D01*
X147067680Y-115144273D01*
X146910637Y-114909241D01*
X146710759Y-114709363D01*
X146475727Y-114552320D01*
X146214574Y-114444147D01*
X145937335Y-114389000D01*
X145654665Y-114389000D01*
X145377426Y-114444147D01*
X145116273Y-114552320D01*
X144881241Y-114709363D01*
X144681363Y-114909241D01*
X144524320Y-115144273D01*
X144474000Y-115265756D01*
X144474000Y-105268665D01*
X148425000Y-105268665D01*
X148425000Y-105551335D01*
X148480147Y-105828574D01*
X148588320Y-106089727D01*
X148745363Y-106324759D01*
X148945241Y-106524637D01*
X149180273Y-106681680D01*
X149441426Y-106789853D01*
X149718665Y-106845000D01*
X150001335Y-106845000D01*
X150278574Y-106789853D01*
X150539727Y-106681680D01*
X150774759Y-106524637D01*
X150974637Y-106324759D01*
X151130000Y-106092241D01*
X151285363Y-106324759D01*
X151485241Y-106524637D01*
X151720273Y-106681680D01*
X151981426Y-106789853D01*
X152258665Y-106845000D01*
X152541335Y-106845000D01*
X152818574Y-106789853D01*
X153079727Y-106681680D01*
X153314759Y-106524637D01*
X153514637Y-106324759D01*
X153618043Y-106170000D01*
X153721957Y-106170000D01*
X153825363Y-106324759D01*
X154025241Y-106524637D01*
X154260273Y-106681680D01*
X154521426Y-106789853D01*
X154798665Y-106845000D01*
X155081335Y-106845000D01*
X155358574Y-106789853D01*
X155619727Y-106681680D01*
X155854759Y-106524637D01*
X156054637Y-106324759D01*
X156211680Y-106089727D01*
X156216067Y-106079135D01*
X156327615Y-106265131D01*
X156516586Y-106473519D01*
X156742580Y-106641037D01*
X156996913Y-106761246D01*
X157130961Y-106801904D01*
X157353000Y-106679915D01*
X157353000Y-105537000D01*
X157607000Y-105537000D01*
X157607000Y-106679915D01*
X157829039Y-106801904D01*
X157963087Y-106761246D01*
X158217420Y-106641037D01*
X158443414Y-106473519D01*
X158632385Y-106265131D01*
X158777070Y-106023881D01*
X158871909Y-105759040D01*
X158750624Y-105537000D01*
X157607000Y-105537000D01*
X157353000Y-105537000D01*
X157333000Y-105537000D01*
X157333000Y-105283000D01*
X157353000Y-105283000D01*
X157353000Y-104140085D01*
X157607000Y-104140085D01*
X157607000Y-105283000D01*
X158750624Y-105283000D01*
X158871909Y-105060960D01*
X158777070Y-104796119D01*
X158632385Y-104554869D01*
X158443414Y-104346481D01*
X158217420Y-104178963D01*
X157963087Y-104058754D01*
X157829039Y-104018096D01*
X157607000Y-104140085D01*
X157353000Y-104140085D01*
X157130961Y-104018096D01*
X156996913Y-104058754D01*
X156742580Y-104178963D01*
X156516586Y-104346481D01*
X156327615Y-104554869D01*
X156216067Y-104740865D01*
X156211680Y-104730273D01*
X156054637Y-104495241D01*
X155854759Y-104295363D01*
X155619727Y-104138320D01*
X155358574Y-104030147D01*
X155081335Y-103975000D01*
X154798665Y-103975000D01*
X154521426Y-104030147D01*
X154260273Y-104138320D01*
X154025241Y-104295363D01*
X153825363Y-104495241D01*
X153721957Y-104650000D01*
X153618043Y-104650000D01*
X153514637Y-104495241D01*
X153314759Y-104295363D01*
X153079727Y-104138320D01*
X152818574Y-104030147D01*
X152541335Y-103975000D01*
X152258665Y-103975000D01*
X151981426Y-104030147D01*
X151720273Y-104138320D01*
X151485241Y-104295363D01*
X151285363Y-104495241D01*
X151130000Y-104727759D01*
X150974637Y-104495241D01*
X150774759Y-104295363D01*
X150539727Y-104138320D01*
X150278574Y-104030147D01*
X150001335Y-103975000D01*
X149718665Y-103975000D01*
X149441426Y-104030147D01*
X149180273Y-104138320D01*
X148945241Y-104295363D01*
X148745363Y-104495241D01*
X148588320Y-104730273D01*
X148480147Y-104991426D01*
X148425000Y-105268665D01*
X144474000Y-105268665D01*
X144474000Y-101142244D01*
X144524320Y-101263727D01*
X144681363Y-101498759D01*
X144881241Y-101698637D01*
X145116273Y-101855680D01*
X145377426Y-101963853D01*
X145654665Y-102019000D01*
X145937335Y-102019000D01*
X146214574Y-101963853D01*
X146475727Y-101855680D01*
X146710759Y-101698637D01*
X146910637Y-101498759D01*
X147067680Y-101263727D01*
X147175853Y-101002574D01*
X147231000Y-100725335D01*
X147231000Y-100442665D01*
X147227082Y-100422967D01*
X149495000Y-100422967D01*
X149495000Y-100745033D01*
X149557832Y-101060912D01*
X149681082Y-101358463D01*
X149860013Y-101626252D01*
X150087748Y-101853987D01*
X150355537Y-102032918D01*
X150653088Y-102156168D01*
X150968967Y-102219000D01*
X151291033Y-102219000D01*
X151606912Y-102156168D01*
X151904463Y-102032918D01*
X152172252Y-101853987D01*
X152306826Y-101719413D01*
X155174192Y-101719413D01*
X155269956Y-101983814D01*
X155559571Y-102124704D01*
X155871108Y-102206384D01*
X156192595Y-102225718D01*
X156511675Y-102181961D01*
X156816088Y-102076795D01*
X156990044Y-101983814D01*
X157085808Y-101719413D01*
X156130000Y-100763605D01*
X155174192Y-101719413D01*
X152306826Y-101719413D01*
X152399987Y-101626252D01*
X152578918Y-101358463D01*
X152702168Y-101060912D01*
X152765000Y-100745033D01*
X152765000Y-100646595D01*
X154488282Y-100646595D01*
X154532039Y-100965675D01*
X154637205Y-101270088D01*
X154730186Y-101444044D01*
X154994587Y-101539808D01*
X155950395Y-100584000D01*
X156309605Y-100584000D01*
X157265413Y-101539808D01*
X157529814Y-101444044D01*
X157670704Y-101154429D01*
X157728748Y-100933040D01*
X160152091Y-100933040D01*
X160246930Y-101197881D01*
X160391615Y-101439131D01*
X160580586Y-101647519D01*
X160806580Y-101815037D01*
X161060913Y-101935246D01*
X161194961Y-101975904D01*
X161417000Y-101853915D01*
X161417000Y-100711000D01*
X161671000Y-100711000D01*
X161671000Y-101853915D01*
X161893039Y-101975904D01*
X162027087Y-101935246D01*
X162281420Y-101815037D01*
X162507414Y-101647519D01*
X162696385Y-101439131D01*
X162841070Y-101197881D01*
X162935909Y-100933040D01*
X163454091Y-100933040D01*
X163548930Y-101197881D01*
X163693615Y-101439131D01*
X163882586Y-101647519D01*
X164108580Y-101815037D01*
X164362913Y-101935246D01*
X164496961Y-101975904D01*
X164719000Y-101853915D01*
X164719000Y-100711000D01*
X163575376Y-100711000D01*
X163454091Y-100933040D01*
X162935909Y-100933040D01*
X162814624Y-100711000D01*
X161671000Y-100711000D01*
X161417000Y-100711000D01*
X160273376Y-100711000D01*
X160152091Y-100933040D01*
X157728748Y-100933040D01*
X157752384Y-100842892D01*
X157771718Y-100521405D01*
X157732437Y-100234960D01*
X160152091Y-100234960D01*
X160273376Y-100457000D01*
X161417000Y-100457000D01*
X161417000Y-99314085D01*
X161671000Y-99314085D01*
X161671000Y-100457000D01*
X162814624Y-100457000D01*
X162935909Y-100234960D01*
X163454091Y-100234960D01*
X163575376Y-100457000D01*
X164719000Y-100457000D01*
X164719000Y-99314085D01*
X164496961Y-99192096D01*
X164362913Y-99232754D01*
X164108580Y-99352963D01*
X163882586Y-99520481D01*
X163693615Y-99728869D01*
X163548930Y-99970119D01*
X163454091Y-100234960D01*
X162935909Y-100234960D01*
X162841070Y-99970119D01*
X162696385Y-99728869D01*
X162507414Y-99520481D01*
X162281420Y-99352963D01*
X162027087Y-99232754D01*
X161893039Y-99192096D01*
X161671000Y-99314085D01*
X161417000Y-99314085D01*
X161194961Y-99192096D01*
X161060913Y-99232754D01*
X160806580Y-99352963D01*
X160580586Y-99520481D01*
X160391615Y-99728869D01*
X160246930Y-99970119D01*
X160152091Y-100234960D01*
X157732437Y-100234960D01*
X157727961Y-100202325D01*
X157622795Y-99897912D01*
X157529814Y-99723956D01*
X157265413Y-99628192D01*
X156309605Y-100584000D01*
X155950395Y-100584000D01*
X154994587Y-99628192D01*
X154730186Y-99723956D01*
X154589296Y-100013571D01*
X154507616Y-100325108D01*
X154488282Y-100646595D01*
X152765000Y-100646595D01*
X152765000Y-100422967D01*
X152702168Y-100107088D01*
X152578918Y-99809537D01*
X152399987Y-99541748D01*
X152306826Y-99448587D01*
X155174192Y-99448587D01*
X156130000Y-100404395D01*
X157085808Y-99448587D01*
X156990044Y-99184186D01*
X156700429Y-99043296D01*
X156388892Y-98961616D01*
X156067405Y-98942282D01*
X155748325Y-98986039D01*
X155443912Y-99091205D01*
X155269956Y-99184186D01*
X155174192Y-99448587D01*
X152306826Y-99448587D01*
X152172252Y-99314013D01*
X151904463Y-99135082D01*
X151606912Y-99011832D01*
X151291033Y-98949000D01*
X150968967Y-98949000D01*
X150653088Y-99011832D01*
X150355537Y-99135082D01*
X150087748Y-99314013D01*
X149860013Y-99541748D01*
X149681082Y-99809537D01*
X149557832Y-100107088D01*
X149495000Y-100422967D01*
X147227082Y-100422967D01*
X147175853Y-100165426D01*
X147067680Y-99904273D01*
X146910637Y-99669241D01*
X146710759Y-99469363D01*
X146475727Y-99312320D01*
X146214574Y-99204147D01*
X145937335Y-99149000D01*
X145654665Y-99149000D01*
X145377426Y-99204147D01*
X145116273Y-99312320D01*
X144881241Y-99469363D01*
X144681363Y-99669241D01*
X144524320Y-99904273D01*
X144474000Y-100025756D01*
X144474000Y-87578000D01*
X165914000Y-87578000D01*
X165914000Y-99635814D01*
G36*
X160864273Y-114552320D02*
G01*
X160629241Y-114709363D01*
X160429363Y-114909241D01*
X160272320Y-115144273D01*
X160191282Y-115339916D01*
X159197199Y-116334000D01*
X158695371Y-116334000D01*
X158751680Y-116249727D01*
X158859853Y-115988574D01*
X158915000Y-115711335D01*
X158915000Y-115428665D01*
X158859853Y-115151426D01*
X158751680Y-114890273D01*
X158594637Y-114655241D01*
X158491396Y-114552000D01*
X160865046Y-114552000D01*
X160864273Y-114552320D01*
G37*
X160864273Y-114552320D02*
X160629241Y-114709363D01*
X160429363Y-114909241D01*
X160272320Y-115144273D01*
X160191282Y-115339916D01*
X159197199Y-116334000D01*
X158695371Y-116334000D01*
X158751680Y-116249727D01*
X158859853Y-115988574D01*
X158915000Y-115711335D01*
X158915000Y-115428665D01*
X158859853Y-115151426D01*
X158751680Y-114890273D01*
X158594637Y-114655241D01*
X158491396Y-114552000D01*
X160865046Y-114552000D01*
X160864273Y-114552320D01*
M02*
